G04 #@! TF.GenerationSoftware,KiCad,Pcbnew,(5.1.5)-3*
G04 #@! TF.CreationDate,2020-04-10T15:09:37-04:00*
G04 #@! TF.ProjectId,final_project,66696e61-6c5f-4707-926f-6a6563742e6b,rev?*
G04 #@! TF.SameCoordinates,Original*
G04 #@! TF.FileFunction,Copper,L1,Top*
G04 #@! TF.FilePolarity,Positive*
%FSLAX46Y46*%
G04 Gerber Fmt 4.6, Leading zero omitted, Abs format (unit mm)*
G04 Created by KiCad (PCBNEW (5.1.5)-3) date 2020-04-10 15:09:37*
%MOMM*%
%LPD*%
G04 APERTURE LIST*
%ADD10R,0.850000X0.850000*%
%ADD11O,0.850000X0.850000*%
%ADD12R,1.600000X1.600000*%
%ADD13C,1.600000*%
%ADD14R,1.200000X1.200000*%
%ADD15C,1.200000*%
%ADD16R,1.800000X1.800000*%
%ADD17C,1.800000*%
%ADD18O,1.600000X1.600000*%
%ADD19O,2.200000X3.500000*%
%ADD20O,1.500000X2.500000*%
%ADD21R,1.500000X2.500000*%
%ADD22O,1.020000X2.000000*%
%ADD23R,1.060000X0.650000*%
%ADD24C,0.250000*%
%ADD25C,0.762000*%
%ADD26C,0.254000*%
G04 APERTURE END LIST*
D10*
X124460000Y-68580000D03*
D11*
X124460000Y-67580000D03*
X124460000Y-66580000D03*
D12*
X142240000Y-92710000D03*
D13*
X142240000Y-90210000D03*
D14*
X161290000Y-80010000D03*
D15*
X161290000Y-81510000D03*
D12*
X125730000Y-107950000D03*
D13*
X130730000Y-107950000D03*
D15*
X124690000Y-99060000D03*
D14*
X123190000Y-99060000D03*
D13*
X119340000Y-105410000D03*
D12*
X116840000Y-105410000D03*
X163830000Y-60960000D03*
D13*
X166330000Y-60960000D03*
X158710000Y-71120000D03*
D12*
X156210000Y-71120000D03*
D16*
X119380000Y-80010000D03*
D17*
X119380000Y-82550000D03*
D10*
X133350000Y-91440000D03*
D11*
X134350000Y-91440000D03*
X135350000Y-91440000D03*
X136350000Y-91440000D03*
D10*
X111760000Y-67310000D03*
D11*
X111760000Y-68310000D03*
X111760000Y-69310000D03*
X111760000Y-70310000D03*
X111760000Y-71310000D03*
X111760000Y-72310000D03*
X111760000Y-73310000D03*
X111760000Y-74310000D03*
D10*
X120650000Y-67310000D03*
D11*
X120650000Y-68310000D03*
X116840000Y-66580000D03*
X116840000Y-67580000D03*
D10*
X116840000Y-68580000D03*
D11*
X134620000Y-66580000D03*
X134620000Y-67580000D03*
D10*
X134620000Y-68580000D03*
X147320000Y-67310000D03*
D11*
X147320000Y-66310000D03*
X147320000Y-65310000D03*
X154940000Y-79740000D03*
D10*
X154940000Y-78740000D03*
D13*
X110490000Y-92710000D03*
D18*
X118110000Y-92710000D03*
D19*
X157230000Y-62230000D03*
X149030000Y-62230000D03*
D20*
X155130000Y-62230000D03*
X153130000Y-62230000D03*
D21*
X151130000Y-62230000D03*
D19*
X119130000Y-62230000D03*
X110930000Y-62230000D03*
D20*
X117030000Y-62230000D03*
X115030000Y-62230000D03*
D21*
X113030000Y-62230000D03*
X125730000Y-62230000D03*
D20*
X127730000Y-62230000D03*
X129730000Y-62230000D03*
D19*
X123630000Y-62230000D03*
X131830000Y-62230000D03*
D21*
X138430000Y-62230000D03*
D20*
X140430000Y-62230000D03*
X142430000Y-62230000D03*
D19*
X136330000Y-62230000D03*
X144530000Y-62230000D03*
D22*
X142240000Y-83820000D03*
X142240000Y-73660000D03*
X139700000Y-83820000D03*
X139700000Y-73660000D03*
X137160000Y-83820000D03*
X137160000Y-73660000D03*
X134620000Y-83820000D03*
X134620000Y-73660000D03*
X132080000Y-83820000D03*
X132080000Y-73660000D03*
X129540000Y-83820000D03*
X129540000Y-73660000D03*
X127000000Y-83820000D03*
X127000000Y-73660000D03*
X124460000Y-83820000D03*
X124460000Y-73660000D03*
D23*
X165270000Y-73980000D03*
X165270000Y-74930000D03*
X165270000Y-75880000D03*
X167470000Y-75880000D03*
X167470000Y-73980000D03*
D24*
X142240000Y-90210000D02*
X138430000Y-86400000D01*
X138430000Y-86400000D02*
X138430000Y-85090000D01*
X138430000Y-85090000D02*
X139700000Y-83820000D01*
X166050000Y-73980000D02*
X165270000Y-73980000D01*
X166125001Y-74055001D02*
X166050000Y-73980000D01*
X161290000Y-80010000D02*
X160440000Y-80010000D01*
X160440000Y-80010000D02*
X159170000Y-78740000D01*
X159170000Y-78740000D02*
X162900002Y-78740000D01*
X162900002Y-78740000D02*
X166125001Y-75515001D01*
X166125001Y-75515001D02*
X166125001Y-74055001D01*
X154940000Y-78740000D02*
X159170000Y-78740000D01*
X166050000Y-75880000D02*
X165270000Y-75880000D01*
X166125001Y-75804999D02*
X166050000Y-75880000D01*
X166125001Y-75515001D02*
X166125001Y-75804999D01*
X116840000Y-104360000D02*
X111760000Y-99280000D01*
X116840000Y-105410000D02*
X116840000Y-104360000D01*
X111760000Y-99280000D02*
X111760000Y-74310000D01*
X111980000Y-99060000D02*
X111760000Y-99280000D01*
X123190000Y-99060000D02*
X111980000Y-99060000D01*
X125730000Y-101600000D02*
X123190000Y-99060000D01*
X125730000Y-107950000D02*
X125730000Y-101600000D01*
X154338960Y-79740000D02*
X154940000Y-79740000D01*
X146540000Y-79740000D02*
X154338960Y-79740000D01*
X140460000Y-73660000D02*
X146540000Y-79740000D01*
X139700000Y-73660000D02*
X140460000Y-73660000D01*
X154940000Y-79740000D02*
X154940000Y-105410000D01*
X154940000Y-105410000D02*
X144780000Y-115570000D01*
X144780000Y-115570000D02*
X121920000Y-115570000D01*
X116840000Y-110490000D02*
X116840000Y-105410000D01*
X121920000Y-115570000D02*
X116840000Y-110490000D01*
D25*
X117030000Y-62230000D02*
X117030000Y-60218000D01*
X129730000Y-62230000D02*
X129730000Y-60218000D01*
X117030000Y-60218000D02*
X115570000Y-58420000D01*
X140632000Y-58420000D02*
X127000000Y-58420000D01*
X142430000Y-62230000D02*
X142430000Y-60218000D01*
X129730000Y-60218000D02*
X127000000Y-58420000D01*
X127000000Y-58420000D02*
X127932000Y-58420000D01*
X155130000Y-62230000D02*
X155130000Y-60218000D01*
X142430000Y-60218000D02*
X140970000Y-58420000D01*
X153332000Y-58420000D02*
X140970000Y-58420000D01*
X140970000Y-58420000D02*
X140632000Y-58420000D01*
X159728000Y-58420000D02*
X153670000Y-58420000D01*
X163830000Y-60960000D02*
X162268000Y-60960000D01*
X155130000Y-60218000D02*
X153670000Y-58420000D01*
X153670000Y-58420000D02*
X153332000Y-58420000D01*
X168762000Y-73980000D02*
X170180000Y-72562000D01*
X167470000Y-73980000D02*
X168762000Y-73980000D01*
X170180000Y-72562000D02*
X170180000Y-59690000D01*
X168910000Y-58420000D02*
X160020000Y-58420000D01*
X170180000Y-59690000D02*
X168910000Y-58420000D01*
X162268000Y-60960000D02*
X160020000Y-58420000D01*
X160020000Y-58420000D02*
X159728000Y-58420000D01*
X168762000Y-73980000D02*
X169230000Y-73980000D01*
X109220000Y-59690000D02*
X110490000Y-58420000D01*
X110490000Y-58420000D02*
X115570000Y-58420000D01*
X110570000Y-72310000D02*
X111271118Y-72310000D01*
X109220000Y-73660000D02*
X110570000Y-72310000D01*
X109220000Y-59690000D02*
X109220000Y-73660000D01*
X121920000Y-58420000D02*
X121920000Y-66040000D01*
X127932000Y-58420000D02*
X121920000Y-58420000D01*
X121920000Y-58420000D02*
X115570000Y-58420000D01*
X121920000Y-66040000D02*
X120656001Y-67303999D01*
X110490000Y-92710000D02*
X110490000Y-81280000D01*
X109220000Y-80010000D02*
X109220000Y-73660000D01*
X110490000Y-81280000D02*
X109220000Y-80010000D01*
D24*
X156210000Y-71080000D02*
X156210000Y-71120000D01*
X166330000Y-60960000D02*
X156210000Y-71080000D01*
X111009999Y-66624999D02*
X111594998Y-66040000D01*
X111760000Y-71310000D02*
X111158960Y-71310000D01*
X111009999Y-71161039D02*
X111009999Y-66624999D01*
X111158960Y-71310000D02*
X111009999Y-71161039D01*
X112864998Y-66040000D02*
X111594998Y-66040000D01*
X124460000Y-73660000D02*
X119380000Y-73660000D01*
X119380000Y-73660000D02*
X113030000Y-67310000D01*
X113030000Y-66205002D02*
X112864998Y-66040000D01*
X113030000Y-67310000D02*
X113030000Y-66205002D01*
X119380000Y-78740000D02*
X119380000Y-80010000D01*
X118110000Y-77470000D02*
X119380000Y-78740000D01*
X111760000Y-71310000D02*
X111870002Y-71310000D01*
X111870002Y-71310000D02*
X118110000Y-77470000D01*
X118110000Y-92710000D02*
X118110000Y-91440000D01*
X118110000Y-91440000D02*
X114300000Y-87630000D01*
X114300000Y-87630000D02*
X119380000Y-82550000D01*
X133350000Y-91440000D02*
X133350000Y-90170000D01*
X129540000Y-86360000D02*
X129540000Y-83820000D01*
X133350000Y-90170000D02*
X129540000Y-86360000D01*
X134350000Y-91440000D02*
X134350000Y-88630000D01*
X132080000Y-86360000D02*
X132080000Y-83820000D01*
X134350000Y-88630000D02*
X132080000Y-86360000D01*
X136400000Y-83820000D02*
X137160000Y-83820000D01*
X135350000Y-84870000D02*
X136400000Y-83820000D01*
X135350000Y-91440000D02*
X135350000Y-84870000D01*
X134620000Y-82570000D02*
X134620000Y-83820000D01*
X134695010Y-82494990D02*
X134620000Y-82570000D01*
X137505872Y-82494990D02*
X134695010Y-82494990D01*
X137995010Y-82984128D02*
X137505872Y-82494990D01*
X137995010Y-84655872D02*
X137995010Y-82984128D01*
X136350000Y-86300882D02*
X137995010Y-84655872D01*
X136350000Y-91440000D02*
X136350000Y-86300882D01*
X111870002Y-67310000D02*
X111760000Y-67310000D01*
X125295010Y-72824128D02*
X123590882Y-71120000D01*
X111760000Y-67310000D02*
X112393590Y-67310000D01*
X120068600Y-74985010D02*
X124805872Y-74985010D01*
X118705000Y-71120000D02*
X116840000Y-69255000D01*
X116840000Y-69255000D02*
X116840000Y-68580000D01*
X124805872Y-74985010D02*
X125295010Y-74495872D01*
X112393590Y-67310000D02*
X120068600Y-74985010D01*
X123590882Y-71120000D02*
X118705000Y-71120000D01*
X125295010Y-74495872D02*
X125295010Y-72824128D01*
X111870002Y-68310000D02*
X111760000Y-68310000D01*
X118995023Y-75435021D02*
X111870002Y-68310000D01*
X126130882Y-68580000D02*
X130810000Y-73259118D01*
X129435861Y-75435021D02*
X118995023Y-75435021D01*
X130810000Y-73259118D02*
X130810000Y-74060882D01*
X124460000Y-68580000D02*
X126130882Y-68580000D01*
X130810000Y-74060882D02*
X129435861Y-75435021D01*
X132915010Y-69609990D02*
X132915010Y-74495872D01*
X132915010Y-74495872D02*
X131525850Y-75885032D01*
X133945000Y-68580000D02*
X132915010Y-69609990D01*
X134620000Y-68580000D02*
X133945000Y-68580000D01*
X118445034Y-75885032D02*
X111870002Y-69310000D01*
X131525850Y-75885032D02*
X118445034Y-75885032D01*
X111870002Y-69310000D02*
X111760000Y-69310000D01*
X111760000Y-70310000D02*
X112233592Y-70310000D01*
X147320000Y-67310000D02*
X146645000Y-67310000D01*
X146645000Y-67310000D02*
X141620010Y-72334990D01*
X141620010Y-72334990D02*
X138485010Y-72334990D01*
X138445021Y-74914979D02*
X137024957Y-76335043D01*
X111870002Y-70310000D02*
X111760000Y-70310000D01*
X138430000Y-72390000D02*
X138445021Y-72405021D01*
X138445021Y-72405021D02*
X138445021Y-74914979D01*
X137024957Y-76335043D02*
X117895045Y-76335043D01*
X117895045Y-76335043D02*
X111870002Y-70310000D01*
X120650000Y-68310000D02*
X122559978Y-70219978D01*
X122559978Y-70219978D02*
X124809978Y-70219978D01*
X127000000Y-72410000D02*
X127000000Y-73660000D01*
X124809978Y-70219978D02*
X127000000Y-72410000D01*
X115030000Y-64770000D02*
X115030000Y-62230000D01*
X116840000Y-66580000D02*
X115030000Y-64770000D01*
X129540000Y-73170000D02*
X129540000Y-73660000D01*
X126048205Y-74379087D02*
X126048205Y-72940912D01*
X129540000Y-73660000D02*
X129540000Y-74150000D01*
X117441040Y-67580000D02*
X116840000Y-67580000D01*
X120531029Y-70669989D02*
X117441040Y-67580000D01*
X126654128Y-74985010D02*
X126048205Y-74379087D01*
X126048205Y-72940912D02*
X123777282Y-70669989D01*
X129540000Y-74150000D02*
X128704990Y-74985010D01*
X128704990Y-74985010D02*
X126654128Y-74985010D01*
X123777282Y-70669989D02*
X120531029Y-70669989D01*
X137160000Y-73660000D02*
X137160000Y-73170000D01*
X127730000Y-63500000D02*
X127730000Y-62230000D01*
X127730000Y-63310000D02*
X127730000Y-62230000D01*
X124460000Y-66580000D02*
X127730000Y-63310000D01*
X140430000Y-63310000D02*
X140430000Y-62230000D01*
X140430000Y-63730000D02*
X140430000Y-62230000D01*
X137580000Y-66580000D02*
X140430000Y-63730000D01*
X134620000Y-66580000D02*
X137580000Y-66580000D01*
X132080000Y-73170000D02*
X132080000Y-73660000D01*
X132080000Y-72410000D02*
X132080000Y-73660000D01*
X127250000Y-67580000D02*
X132080000Y-72410000D01*
X124460000Y-67580000D02*
X127250000Y-67580000D01*
X137160000Y-72410000D02*
X137160000Y-73660000D01*
X137160000Y-69518960D02*
X137160000Y-72410000D01*
X135221040Y-67580000D02*
X137160000Y-69518960D01*
X134620000Y-67580000D02*
X135221040Y-67580000D01*
X137863635Y-72692752D02*
X137995010Y-72824128D01*
X137995010Y-74495872D02*
X137505872Y-74985010D01*
X137505872Y-74985010D02*
X134695010Y-74985010D01*
X147320000Y-66310000D02*
X143873589Y-66310000D01*
X134620000Y-74910000D02*
X134620000Y-73660000D01*
X137995010Y-72824128D02*
X137995010Y-74495872D01*
X134695010Y-74985010D02*
X134620000Y-74910000D01*
X137863637Y-72319950D02*
X137863635Y-72692752D01*
X143873589Y-66310000D02*
X137863637Y-72319950D01*
X151550000Y-65310000D02*
X153130000Y-63730000D01*
X153130000Y-63730000D02*
X153130000Y-62230000D01*
X147320000Y-65310000D02*
X151550000Y-65310000D01*
D26*
G36*
X170790000Y-119990000D02*
G01*
X108610000Y-119990000D01*
X108610000Y-80836840D01*
X109474001Y-81700842D01*
X109474000Y-91696604D01*
X109375363Y-91795241D01*
X109218320Y-92030273D01*
X109110147Y-92291426D01*
X109055000Y-92568665D01*
X109055000Y-92851335D01*
X109110147Y-93128574D01*
X109218320Y-93389727D01*
X109375363Y-93624759D01*
X109575241Y-93824637D01*
X109810273Y-93981680D01*
X110071426Y-94089853D01*
X110348665Y-94145000D01*
X110631335Y-94145000D01*
X110908574Y-94089853D01*
X111000000Y-94051983D01*
X111000000Y-99242678D01*
X110996324Y-99280000D01*
X111000000Y-99317322D01*
X111000000Y-99317332D01*
X111010997Y-99428985D01*
X111054077Y-99571002D01*
X111054454Y-99572246D01*
X111125026Y-99704276D01*
X111196200Y-99791002D01*
X111219999Y-99820001D01*
X111249003Y-99843804D01*
X115577635Y-104172437D01*
X115509463Y-104255506D01*
X115450498Y-104365820D01*
X115414188Y-104485518D01*
X115401928Y-104610000D01*
X115401928Y-106210000D01*
X115414188Y-106334482D01*
X115450498Y-106454180D01*
X115509463Y-106564494D01*
X115588815Y-106661185D01*
X115685506Y-106740537D01*
X115795820Y-106799502D01*
X115915518Y-106835812D01*
X116040000Y-106848072D01*
X116080001Y-106848072D01*
X116080000Y-110452677D01*
X116076324Y-110490000D01*
X116080000Y-110527322D01*
X116080000Y-110527332D01*
X116090997Y-110638985D01*
X116134454Y-110782246D01*
X116205026Y-110914276D01*
X116244871Y-110962826D01*
X116299999Y-111030001D01*
X116329003Y-111053804D01*
X121356201Y-116081003D01*
X121379999Y-116110001D01*
X121408997Y-116133799D01*
X121495723Y-116204974D01*
X121627753Y-116275546D01*
X121771014Y-116319003D01*
X121882667Y-116330000D01*
X121882677Y-116330000D01*
X121920000Y-116333676D01*
X121957323Y-116330000D01*
X144742678Y-116330000D01*
X144780000Y-116333676D01*
X144817322Y-116330000D01*
X144817333Y-116330000D01*
X144928986Y-116319003D01*
X145072247Y-116275546D01*
X145204276Y-116204974D01*
X145320001Y-116110001D01*
X145343804Y-116080997D01*
X155451003Y-105973799D01*
X155480001Y-105950001D01*
X155574974Y-105834276D01*
X155645546Y-105702247D01*
X155689003Y-105558986D01*
X155700000Y-105447333D01*
X155700000Y-105447325D01*
X155703676Y-105410000D01*
X155700000Y-105372675D01*
X155700000Y-80479067D01*
X155763356Y-80415711D01*
X155879360Y-80242098D01*
X155959265Y-80049191D01*
X156000000Y-79844401D01*
X156000000Y-79635599D01*
X155973028Y-79500000D01*
X158855199Y-79500000D01*
X159876201Y-80521003D01*
X159899999Y-80550001D01*
X160015724Y-80644974D01*
X160057576Y-80667345D01*
X160064188Y-80734482D01*
X160100498Y-80854180D01*
X160159463Y-80964494D01*
X160172581Y-80980478D01*
X160102460Y-81149764D01*
X160055000Y-81388363D01*
X160055000Y-81631637D01*
X160102460Y-81870236D01*
X160195557Y-82094992D01*
X160330713Y-82297267D01*
X160502733Y-82469287D01*
X160705008Y-82604443D01*
X160929764Y-82697540D01*
X161168363Y-82745000D01*
X161411637Y-82745000D01*
X161650236Y-82697540D01*
X161874992Y-82604443D01*
X162077267Y-82469287D01*
X162249287Y-82297267D01*
X162384443Y-82094992D01*
X162477540Y-81870236D01*
X162525000Y-81631637D01*
X162525000Y-81388363D01*
X162477540Y-81149764D01*
X162407419Y-80980478D01*
X162420537Y-80964494D01*
X162479502Y-80854180D01*
X162515812Y-80734482D01*
X162528072Y-80610000D01*
X162528072Y-79500000D01*
X162862680Y-79500000D01*
X162900002Y-79503676D01*
X162937324Y-79500000D01*
X162937335Y-79500000D01*
X163048988Y-79489003D01*
X163192249Y-79445546D01*
X163324278Y-79374974D01*
X163440003Y-79280001D01*
X163463806Y-79250997D01*
X165879568Y-76835235D01*
X165924482Y-76830812D01*
X166044180Y-76794502D01*
X166154494Y-76735537D01*
X166251185Y-76656185D01*
X166298189Y-76598911D01*
X166342247Y-76585546D01*
X166405357Y-76551812D01*
X166409463Y-76559494D01*
X166488815Y-76656185D01*
X166585506Y-76735537D01*
X166695820Y-76794502D01*
X166815518Y-76830812D01*
X166940000Y-76843072D01*
X168000000Y-76843072D01*
X168124482Y-76830812D01*
X168244180Y-76794502D01*
X168354494Y-76735537D01*
X168451185Y-76656185D01*
X168530537Y-76559494D01*
X168589502Y-76449180D01*
X168625812Y-76329482D01*
X168638072Y-76205000D01*
X168638072Y-75555000D01*
X168625812Y-75430518D01*
X168589502Y-75310820D01*
X168530537Y-75200506D01*
X168451185Y-75103815D01*
X168354494Y-75024463D01*
X168301244Y-74996000D01*
X168712098Y-74996000D01*
X168762000Y-75000915D01*
X168811902Y-74996000D01*
X169279902Y-74996000D01*
X169429171Y-74981298D01*
X169620687Y-74923202D01*
X169797190Y-74828860D01*
X169951896Y-74701896D01*
X170078860Y-74547190D01*
X170173202Y-74370687D01*
X170231298Y-74179171D01*
X170250915Y-73980000D01*
X170246246Y-73932595D01*
X170790001Y-73388840D01*
X170790000Y-119990000D01*
G37*
X170790000Y-119990000D02*
X108610000Y-119990000D01*
X108610000Y-80836840D01*
X109474001Y-81700842D01*
X109474000Y-91696604D01*
X109375363Y-91795241D01*
X109218320Y-92030273D01*
X109110147Y-92291426D01*
X109055000Y-92568665D01*
X109055000Y-92851335D01*
X109110147Y-93128574D01*
X109218320Y-93389727D01*
X109375363Y-93624759D01*
X109575241Y-93824637D01*
X109810273Y-93981680D01*
X110071426Y-94089853D01*
X110348665Y-94145000D01*
X110631335Y-94145000D01*
X110908574Y-94089853D01*
X111000000Y-94051983D01*
X111000000Y-99242678D01*
X110996324Y-99280000D01*
X111000000Y-99317322D01*
X111000000Y-99317332D01*
X111010997Y-99428985D01*
X111054077Y-99571002D01*
X111054454Y-99572246D01*
X111125026Y-99704276D01*
X111196200Y-99791002D01*
X111219999Y-99820001D01*
X111249003Y-99843804D01*
X115577635Y-104172437D01*
X115509463Y-104255506D01*
X115450498Y-104365820D01*
X115414188Y-104485518D01*
X115401928Y-104610000D01*
X115401928Y-106210000D01*
X115414188Y-106334482D01*
X115450498Y-106454180D01*
X115509463Y-106564494D01*
X115588815Y-106661185D01*
X115685506Y-106740537D01*
X115795820Y-106799502D01*
X115915518Y-106835812D01*
X116040000Y-106848072D01*
X116080001Y-106848072D01*
X116080000Y-110452677D01*
X116076324Y-110490000D01*
X116080000Y-110527322D01*
X116080000Y-110527332D01*
X116090997Y-110638985D01*
X116134454Y-110782246D01*
X116205026Y-110914276D01*
X116244871Y-110962826D01*
X116299999Y-111030001D01*
X116329003Y-111053804D01*
X121356201Y-116081003D01*
X121379999Y-116110001D01*
X121408997Y-116133799D01*
X121495723Y-116204974D01*
X121627753Y-116275546D01*
X121771014Y-116319003D01*
X121882667Y-116330000D01*
X121882677Y-116330000D01*
X121920000Y-116333676D01*
X121957323Y-116330000D01*
X144742678Y-116330000D01*
X144780000Y-116333676D01*
X144817322Y-116330000D01*
X144817333Y-116330000D01*
X144928986Y-116319003D01*
X145072247Y-116275546D01*
X145204276Y-116204974D01*
X145320001Y-116110001D01*
X145343804Y-116080997D01*
X155451003Y-105973799D01*
X155480001Y-105950001D01*
X155574974Y-105834276D01*
X155645546Y-105702247D01*
X155689003Y-105558986D01*
X155700000Y-105447333D01*
X155700000Y-105447325D01*
X155703676Y-105410000D01*
X155700000Y-105372675D01*
X155700000Y-80479067D01*
X155763356Y-80415711D01*
X155879360Y-80242098D01*
X155959265Y-80049191D01*
X156000000Y-79844401D01*
X156000000Y-79635599D01*
X155973028Y-79500000D01*
X158855199Y-79500000D01*
X159876201Y-80521003D01*
X159899999Y-80550001D01*
X160015724Y-80644974D01*
X160057576Y-80667345D01*
X160064188Y-80734482D01*
X160100498Y-80854180D01*
X160159463Y-80964494D01*
X160172581Y-80980478D01*
X160102460Y-81149764D01*
X160055000Y-81388363D01*
X160055000Y-81631637D01*
X160102460Y-81870236D01*
X160195557Y-82094992D01*
X160330713Y-82297267D01*
X160502733Y-82469287D01*
X160705008Y-82604443D01*
X160929764Y-82697540D01*
X161168363Y-82745000D01*
X161411637Y-82745000D01*
X161650236Y-82697540D01*
X161874992Y-82604443D01*
X162077267Y-82469287D01*
X162249287Y-82297267D01*
X162384443Y-82094992D01*
X162477540Y-81870236D01*
X162525000Y-81631637D01*
X162525000Y-81388363D01*
X162477540Y-81149764D01*
X162407419Y-80980478D01*
X162420537Y-80964494D01*
X162479502Y-80854180D01*
X162515812Y-80734482D01*
X162528072Y-80610000D01*
X162528072Y-79500000D01*
X162862680Y-79500000D01*
X162900002Y-79503676D01*
X162937324Y-79500000D01*
X162937335Y-79500000D01*
X163048988Y-79489003D01*
X163192249Y-79445546D01*
X163324278Y-79374974D01*
X163440003Y-79280001D01*
X163463806Y-79250997D01*
X165879568Y-76835235D01*
X165924482Y-76830812D01*
X166044180Y-76794502D01*
X166154494Y-76735537D01*
X166251185Y-76656185D01*
X166298189Y-76598911D01*
X166342247Y-76585546D01*
X166405357Y-76551812D01*
X166409463Y-76559494D01*
X166488815Y-76656185D01*
X166585506Y-76735537D01*
X166695820Y-76794502D01*
X166815518Y-76830812D01*
X166940000Y-76843072D01*
X168000000Y-76843072D01*
X168124482Y-76830812D01*
X168244180Y-76794502D01*
X168354494Y-76735537D01*
X168451185Y-76656185D01*
X168530537Y-76559494D01*
X168589502Y-76449180D01*
X168625812Y-76329482D01*
X168638072Y-76205000D01*
X168638072Y-75555000D01*
X168625812Y-75430518D01*
X168589502Y-75310820D01*
X168530537Y-75200506D01*
X168451185Y-75103815D01*
X168354494Y-75024463D01*
X168301244Y-74996000D01*
X168712098Y-74996000D01*
X168762000Y-75000915D01*
X168811902Y-74996000D01*
X169279902Y-74996000D01*
X169429171Y-74981298D01*
X169620687Y-74923202D01*
X169797190Y-74828860D01*
X169951896Y-74701896D01*
X170078860Y-74547190D01*
X170173202Y-74370687D01*
X170231298Y-74179171D01*
X170250915Y-73980000D01*
X170246246Y-73932595D01*
X170790001Y-73388840D01*
X170790000Y-119990000D01*
G36*
X117574407Y-78009208D02*
G01*
X118137989Y-78572791D01*
X118125506Y-78579463D01*
X118028815Y-78658815D01*
X117949463Y-78755506D01*
X117890498Y-78865820D01*
X117854188Y-78985518D01*
X117841928Y-79110000D01*
X117841928Y-80910000D01*
X117854188Y-81034482D01*
X117890498Y-81154180D01*
X117949463Y-81264494D01*
X118028815Y-81361185D01*
X118125506Y-81440537D01*
X118235820Y-81499502D01*
X118254127Y-81505056D01*
X118187688Y-81571495D01*
X118019701Y-81822905D01*
X117903989Y-82102257D01*
X117845000Y-82398816D01*
X117845000Y-82701184D01*
X117896269Y-82958930D01*
X113789003Y-87066196D01*
X113759999Y-87089999D01*
X113711576Y-87149003D01*
X113665026Y-87205724D01*
X113594454Y-87337754D01*
X113550998Y-87481015D01*
X113536324Y-87630000D01*
X113550998Y-87778985D01*
X113594454Y-87922246D01*
X113665026Y-88054276D01*
X113759999Y-88170001D01*
X113789003Y-88193804D01*
X117192901Y-91597703D01*
X116995363Y-91795241D01*
X116838320Y-92030273D01*
X116730147Y-92291426D01*
X116675000Y-92568665D01*
X116675000Y-92851335D01*
X116730147Y-93128574D01*
X116838320Y-93389727D01*
X116995363Y-93624759D01*
X117195241Y-93824637D01*
X117430273Y-93981680D01*
X117691426Y-94089853D01*
X117968665Y-94145000D01*
X118251335Y-94145000D01*
X118528574Y-94089853D01*
X118789727Y-93981680D01*
X119024759Y-93824637D01*
X119224637Y-93624759D01*
X119381680Y-93389727D01*
X119489853Y-93128574D01*
X119545000Y-92851335D01*
X119545000Y-92568665D01*
X119489853Y-92291426D01*
X119381680Y-92030273D01*
X119224637Y-91795241D01*
X119024759Y-91595363D01*
X118870000Y-91491957D01*
X118870000Y-91477325D01*
X118873676Y-91440000D01*
X118870000Y-91402675D01*
X118870000Y-91402667D01*
X118859003Y-91291014D01*
X118815546Y-91147753D01*
X118744974Y-91015724D01*
X118650001Y-90899999D01*
X118621003Y-90876201D01*
X115374801Y-87630000D01*
X118971070Y-84033731D01*
X119228816Y-84085000D01*
X119531184Y-84085000D01*
X119827743Y-84026011D01*
X120107095Y-83910299D01*
X120358505Y-83742312D01*
X120572312Y-83528505D01*
X120740299Y-83277095D01*
X120741684Y-83273751D01*
X123315000Y-83273751D01*
X123315000Y-84366248D01*
X123331567Y-84534458D01*
X123397040Y-84750292D01*
X123503361Y-84949205D01*
X123646445Y-85123555D01*
X123820794Y-85266639D01*
X124019707Y-85372960D01*
X124235541Y-85438433D01*
X124460000Y-85460540D01*
X124684458Y-85438433D01*
X124900292Y-85372960D01*
X125099205Y-85266639D01*
X125273555Y-85123555D01*
X125416639Y-84949206D01*
X125522960Y-84750293D01*
X125588433Y-84534459D01*
X125605000Y-84366249D01*
X125605000Y-83273751D01*
X125855000Y-83273751D01*
X125855000Y-84366248D01*
X125871567Y-84534458D01*
X125937040Y-84750292D01*
X126043361Y-84949205D01*
X126186445Y-85123555D01*
X126360794Y-85266639D01*
X126559707Y-85372960D01*
X126775541Y-85438433D01*
X127000000Y-85460540D01*
X127224458Y-85438433D01*
X127440292Y-85372960D01*
X127639205Y-85266639D01*
X127813555Y-85123555D01*
X127956639Y-84949206D01*
X128062960Y-84750293D01*
X128128433Y-84534459D01*
X128145000Y-84366249D01*
X128145000Y-83273751D01*
X128395000Y-83273751D01*
X128395000Y-84366248D01*
X128411567Y-84534458D01*
X128477040Y-84750292D01*
X128583361Y-84949205D01*
X128726445Y-85123555D01*
X128780000Y-85167507D01*
X128780000Y-86322677D01*
X128776324Y-86360000D01*
X128780000Y-86397322D01*
X128780000Y-86397332D01*
X128790997Y-86508985D01*
X128816521Y-86593128D01*
X128834454Y-86652246D01*
X128905026Y-86784276D01*
X128937853Y-86824275D01*
X128999999Y-86900001D01*
X129029003Y-86923804D01*
X132582989Y-90477791D01*
X132570506Y-90484463D01*
X132473815Y-90563815D01*
X132394463Y-90660506D01*
X132335498Y-90770820D01*
X132299188Y-90890518D01*
X132286928Y-91015000D01*
X132286928Y-91865000D01*
X132299188Y-91989482D01*
X132335498Y-92109180D01*
X132394463Y-92219494D01*
X132473815Y-92316185D01*
X132570506Y-92395537D01*
X132680820Y-92454502D01*
X132800518Y-92490812D01*
X132925000Y-92503072D01*
X133775000Y-92503072D01*
X133899482Y-92490812D01*
X134019180Y-92454502D01*
X134023603Y-92452138D01*
X134040809Y-92459265D01*
X134245599Y-92500000D01*
X134454401Y-92500000D01*
X134659191Y-92459265D01*
X134850000Y-92380229D01*
X135040809Y-92459265D01*
X135245599Y-92500000D01*
X135454401Y-92500000D01*
X135659191Y-92459265D01*
X135850000Y-92380229D01*
X136040809Y-92459265D01*
X136245599Y-92500000D01*
X136454401Y-92500000D01*
X136659191Y-92459265D01*
X136852098Y-92379360D01*
X137025711Y-92263356D01*
X137173356Y-92115711D01*
X137289360Y-91942098D01*
X137369265Y-91749191D01*
X137410000Y-91544401D01*
X137410000Y-91335599D01*
X137369265Y-91130809D01*
X137289360Y-90937902D01*
X137173356Y-90764289D01*
X137110000Y-90700933D01*
X137110000Y-86615683D01*
X137670000Y-86055684D01*
X137670000Y-86362677D01*
X137666324Y-86400000D01*
X137670000Y-86437322D01*
X137670000Y-86437332D01*
X137680997Y-86548985D01*
X137712321Y-86652247D01*
X137724454Y-86692246D01*
X137795026Y-86824276D01*
X137834871Y-86872826D01*
X137889999Y-86940001D01*
X137919003Y-86963804D01*
X140841312Y-89886114D01*
X140805000Y-90068665D01*
X140805000Y-90351335D01*
X140860147Y-90628574D01*
X140968320Y-90889727D01*
X141125363Y-91124759D01*
X141291943Y-91291339D01*
X141195820Y-91320498D01*
X141085506Y-91379463D01*
X140988815Y-91458815D01*
X140909463Y-91555506D01*
X140850498Y-91665820D01*
X140814188Y-91785518D01*
X140801928Y-91910000D01*
X140801928Y-93510000D01*
X140814188Y-93634482D01*
X140850498Y-93754180D01*
X140909463Y-93864494D01*
X140988815Y-93961185D01*
X141085506Y-94040537D01*
X141195820Y-94099502D01*
X141315518Y-94135812D01*
X141440000Y-94148072D01*
X143040000Y-94148072D01*
X143164482Y-94135812D01*
X143284180Y-94099502D01*
X143394494Y-94040537D01*
X143491185Y-93961185D01*
X143570537Y-93864494D01*
X143629502Y-93754180D01*
X143665812Y-93634482D01*
X143678072Y-93510000D01*
X143678072Y-91910000D01*
X143665812Y-91785518D01*
X143629502Y-91665820D01*
X143570537Y-91555506D01*
X143491185Y-91458815D01*
X143394494Y-91379463D01*
X143284180Y-91320498D01*
X143188057Y-91291339D01*
X143354637Y-91124759D01*
X143511680Y-90889727D01*
X143619853Y-90628574D01*
X143675000Y-90351335D01*
X143675000Y-90068665D01*
X143619853Y-89791426D01*
X143511680Y-89530273D01*
X143354637Y-89295241D01*
X143154759Y-89095363D01*
X142919727Y-88938320D01*
X142658574Y-88830147D01*
X142381335Y-88775000D01*
X142098665Y-88775000D01*
X141916114Y-88811312D01*
X139190000Y-86085199D01*
X139190000Y-85404801D01*
X139235031Y-85359770D01*
X139259707Y-85372960D01*
X139475541Y-85438433D01*
X139700000Y-85460540D01*
X139924458Y-85438433D01*
X140140292Y-85372960D01*
X140339205Y-85266639D01*
X140513555Y-85123555D01*
X140656639Y-84949206D01*
X140762960Y-84750293D01*
X140828433Y-84534459D01*
X140845000Y-84366249D01*
X140845000Y-83273751D01*
X141095000Y-83273751D01*
X141095000Y-84366248D01*
X141111567Y-84534458D01*
X141177040Y-84750292D01*
X141283361Y-84949205D01*
X141426445Y-85123555D01*
X141600794Y-85266639D01*
X141799707Y-85372960D01*
X142015541Y-85438433D01*
X142240000Y-85460540D01*
X142464458Y-85438433D01*
X142680292Y-85372960D01*
X142879205Y-85266639D01*
X143053555Y-85123555D01*
X143196639Y-84949206D01*
X143302960Y-84750293D01*
X143368433Y-84534459D01*
X143385000Y-84366249D01*
X143385000Y-83273752D01*
X143368433Y-83105541D01*
X143302960Y-82889707D01*
X143196639Y-82690794D01*
X143053555Y-82516445D01*
X142879206Y-82373361D01*
X142680293Y-82267040D01*
X142464459Y-82201567D01*
X142240000Y-82179460D01*
X142015542Y-82201567D01*
X141799708Y-82267040D01*
X141600795Y-82373361D01*
X141426446Y-82516445D01*
X141283362Y-82690794D01*
X141177040Y-82889707D01*
X141111567Y-83105541D01*
X141095000Y-83273751D01*
X140845000Y-83273751D01*
X140828433Y-83105541D01*
X140762960Y-82889707D01*
X140656639Y-82690794D01*
X140513555Y-82516445D01*
X140339206Y-82373361D01*
X140140293Y-82267040D01*
X139924459Y-82201567D01*
X139700000Y-82179460D01*
X139475542Y-82201567D01*
X139259708Y-82267040D01*
X139060795Y-82373361D01*
X138886446Y-82516445D01*
X138743362Y-82690794D01*
X138715843Y-82742277D01*
X138700556Y-82691881D01*
X138629984Y-82559852D01*
X138621899Y-82550000D01*
X138535011Y-82444127D01*
X138506007Y-82420324D01*
X138069676Y-81983993D01*
X138045873Y-81954989D01*
X137930148Y-81860016D01*
X137798119Y-81789444D01*
X137654858Y-81745987D01*
X137543205Y-81734990D01*
X137543194Y-81734990D01*
X137505872Y-81731314D01*
X137468550Y-81734990D01*
X134732332Y-81734990D01*
X134695009Y-81731314D01*
X134657687Y-81734990D01*
X134657677Y-81734990D01*
X134546024Y-81745987D01*
X134402763Y-81789444D01*
X134270734Y-81860016D01*
X134155009Y-81954989D01*
X134131206Y-81983993D01*
X134109003Y-82006196D01*
X134079999Y-82029999D01*
X134046585Y-82070715D01*
X133985026Y-82145724D01*
X133937240Y-82235125D01*
X133914454Y-82277754D01*
X133870997Y-82421015D01*
X133866448Y-82467203D01*
X133806446Y-82516445D01*
X133663362Y-82690794D01*
X133557040Y-82889707D01*
X133491567Y-83105541D01*
X133475000Y-83273751D01*
X133475000Y-84366248D01*
X133491567Y-84534458D01*
X133557040Y-84750292D01*
X133663361Y-84949205D01*
X133806445Y-85123555D01*
X133980794Y-85266639D01*
X134179707Y-85372960D01*
X134395541Y-85438433D01*
X134590001Y-85457585D01*
X134590001Y-87795199D01*
X132840000Y-86045199D01*
X132840000Y-85167506D01*
X132893555Y-85123555D01*
X133036639Y-84949206D01*
X133142960Y-84750293D01*
X133208433Y-84534459D01*
X133225000Y-84366249D01*
X133225000Y-83273752D01*
X133208433Y-83105541D01*
X133142960Y-82889707D01*
X133036639Y-82690794D01*
X132893555Y-82516445D01*
X132719206Y-82373361D01*
X132520293Y-82267040D01*
X132304459Y-82201567D01*
X132080000Y-82179460D01*
X131855542Y-82201567D01*
X131639708Y-82267040D01*
X131440795Y-82373361D01*
X131266446Y-82516445D01*
X131123362Y-82690794D01*
X131017040Y-82889707D01*
X130951567Y-83105541D01*
X130935000Y-83273751D01*
X130935000Y-84366248D01*
X130951567Y-84534458D01*
X131017040Y-84750292D01*
X131123361Y-84949205D01*
X131266445Y-85123555D01*
X131320000Y-85167507D01*
X131320000Y-86322677D01*
X131316324Y-86360000D01*
X131320000Y-86397322D01*
X131320000Y-86397332D01*
X131330997Y-86508985D01*
X131356521Y-86593128D01*
X131374454Y-86652246D01*
X131445026Y-86784276D01*
X131477853Y-86824275D01*
X131539999Y-86900001D01*
X131569003Y-86923804D01*
X133590001Y-88944803D01*
X133590001Y-89335199D01*
X130300000Y-86045199D01*
X130300000Y-85167506D01*
X130353555Y-85123555D01*
X130496639Y-84949206D01*
X130602960Y-84750293D01*
X130668433Y-84534459D01*
X130685000Y-84366249D01*
X130685000Y-83273752D01*
X130668433Y-83105541D01*
X130602960Y-82889707D01*
X130496639Y-82690794D01*
X130353555Y-82516445D01*
X130179206Y-82373361D01*
X129980293Y-82267040D01*
X129764459Y-82201567D01*
X129540000Y-82179460D01*
X129315542Y-82201567D01*
X129099708Y-82267040D01*
X128900795Y-82373361D01*
X128726446Y-82516445D01*
X128583362Y-82690794D01*
X128477040Y-82889707D01*
X128411567Y-83105541D01*
X128395000Y-83273751D01*
X128145000Y-83273751D01*
X128128433Y-83105541D01*
X128062960Y-82889707D01*
X127956639Y-82690794D01*
X127813555Y-82516445D01*
X127639206Y-82373361D01*
X127440293Y-82267040D01*
X127224459Y-82201567D01*
X127000000Y-82179460D01*
X126775542Y-82201567D01*
X126559708Y-82267040D01*
X126360795Y-82373361D01*
X126186446Y-82516445D01*
X126043362Y-82690794D01*
X125937040Y-82889707D01*
X125871567Y-83105541D01*
X125855000Y-83273751D01*
X125605000Y-83273751D01*
X125588433Y-83105541D01*
X125522960Y-82889707D01*
X125416639Y-82690794D01*
X125273555Y-82516445D01*
X125099206Y-82373361D01*
X124900293Y-82267040D01*
X124684459Y-82201567D01*
X124460000Y-82179460D01*
X124235542Y-82201567D01*
X124019708Y-82267040D01*
X123820795Y-82373361D01*
X123646446Y-82516445D01*
X123503362Y-82690794D01*
X123397040Y-82889707D01*
X123331567Y-83105541D01*
X123315000Y-83273751D01*
X120741684Y-83273751D01*
X120856011Y-82997743D01*
X120915000Y-82701184D01*
X120915000Y-82398816D01*
X120856011Y-82102257D01*
X120740299Y-81822905D01*
X120572312Y-81571495D01*
X120505873Y-81505056D01*
X120524180Y-81499502D01*
X120634494Y-81440537D01*
X120731185Y-81361185D01*
X120810537Y-81264494D01*
X120869502Y-81154180D01*
X120905812Y-81034482D01*
X120918072Y-80910000D01*
X120918072Y-79110000D01*
X120905812Y-78985518D01*
X120869502Y-78865820D01*
X120810537Y-78755506D01*
X120731185Y-78658815D01*
X120634494Y-78579463D01*
X120524180Y-78520498D01*
X120404482Y-78484188D01*
X120280000Y-78471928D01*
X120092879Y-78471928D01*
X120085546Y-78447753D01*
X120014974Y-78315724D01*
X119920001Y-78199999D01*
X119891003Y-78176201D01*
X118809844Y-77095043D01*
X136987635Y-77095043D01*
X137024957Y-77098719D01*
X137062279Y-77095043D01*
X137062290Y-77095043D01*
X137173943Y-77084046D01*
X137317204Y-77040589D01*
X137449233Y-76970017D01*
X137564958Y-76875044D01*
X137588761Y-76846040D01*
X138956024Y-75478778D01*
X138985022Y-75454980D01*
X139079995Y-75339255D01*
X139150567Y-75207226D01*
X139164297Y-75161963D01*
X139259707Y-75212960D01*
X139475541Y-75278433D01*
X139700000Y-75300540D01*
X139924458Y-75278433D01*
X140140292Y-75212960D01*
X140339205Y-75106639D01*
X140513555Y-74963555D01*
X140592526Y-74867328D01*
X145976205Y-80251008D01*
X145999999Y-80280001D01*
X146028992Y-80303795D01*
X146028996Y-80303799D01*
X146051735Y-80322460D01*
X146115724Y-80374974D01*
X146247753Y-80445546D01*
X146391014Y-80489003D01*
X146502667Y-80500000D01*
X146502676Y-80500000D01*
X146539999Y-80503676D01*
X146577322Y-80500000D01*
X154180000Y-80500000D01*
X154180001Y-105095197D01*
X144465199Y-114810000D01*
X122234802Y-114810000D01*
X117600000Y-110175199D01*
X117600000Y-106848072D01*
X117640000Y-106848072D01*
X117764482Y-106835812D01*
X117884180Y-106799502D01*
X117994494Y-106740537D01*
X118091185Y-106661185D01*
X118170537Y-106564494D01*
X118229502Y-106454180D01*
X118258661Y-106358057D01*
X118425241Y-106524637D01*
X118660273Y-106681680D01*
X118921426Y-106789853D01*
X119198665Y-106845000D01*
X119481335Y-106845000D01*
X119758574Y-106789853D01*
X120019727Y-106681680D01*
X120254759Y-106524637D01*
X120454637Y-106324759D01*
X120611680Y-106089727D01*
X120719853Y-105828574D01*
X120775000Y-105551335D01*
X120775000Y-105268665D01*
X120719853Y-104991426D01*
X120611680Y-104730273D01*
X120454637Y-104495241D01*
X120254759Y-104295363D01*
X120019727Y-104138320D01*
X119758574Y-104030147D01*
X119481335Y-103975000D01*
X119198665Y-103975000D01*
X118921426Y-104030147D01*
X118660273Y-104138320D01*
X118425241Y-104295363D01*
X118258661Y-104461943D01*
X118229502Y-104365820D01*
X118170537Y-104255506D01*
X118091185Y-104158815D01*
X117994494Y-104079463D01*
X117884180Y-104020498D01*
X117764482Y-103984188D01*
X117640000Y-103971928D01*
X117494326Y-103971928D01*
X117474974Y-103935723D01*
X117403799Y-103848997D01*
X117380001Y-103819999D01*
X117351003Y-103796201D01*
X113374801Y-99820000D01*
X121974962Y-99820000D01*
X122000498Y-99904180D01*
X122059463Y-100014494D01*
X122138815Y-100111185D01*
X122235506Y-100190537D01*
X122345820Y-100249502D01*
X122465518Y-100285812D01*
X122590000Y-100298072D01*
X123353270Y-100298072D01*
X124970001Y-101914804D01*
X124970000Y-106511928D01*
X124930000Y-106511928D01*
X124805518Y-106524188D01*
X124685820Y-106560498D01*
X124575506Y-106619463D01*
X124478815Y-106698815D01*
X124399463Y-106795506D01*
X124340498Y-106905820D01*
X124304188Y-107025518D01*
X124291928Y-107150000D01*
X124291928Y-108750000D01*
X124304188Y-108874482D01*
X124340498Y-108994180D01*
X124399463Y-109104494D01*
X124478815Y-109201185D01*
X124575506Y-109280537D01*
X124685820Y-109339502D01*
X124805518Y-109375812D01*
X124930000Y-109388072D01*
X126530000Y-109388072D01*
X126654482Y-109375812D01*
X126774180Y-109339502D01*
X126884494Y-109280537D01*
X126981185Y-109201185D01*
X127060537Y-109104494D01*
X127119502Y-108994180D01*
X127155812Y-108874482D01*
X127168072Y-108750000D01*
X127168072Y-107808665D01*
X129295000Y-107808665D01*
X129295000Y-108091335D01*
X129350147Y-108368574D01*
X129458320Y-108629727D01*
X129615363Y-108864759D01*
X129815241Y-109064637D01*
X130050273Y-109221680D01*
X130311426Y-109329853D01*
X130588665Y-109385000D01*
X130871335Y-109385000D01*
X131148574Y-109329853D01*
X131409727Y-109221680D01*
X131644759Y-109064637D01*
X131844637Y-108864759D01*
X132001680Y-108629727D01*
X132109853Y-108368574D01*
X132165000Y-108091335D01*
X132165000Y-107808665D01*
X132109853Y-107531426D01*
X132001680Y-107270273D01*
X131844637Y-107035241D01*
X131644759Y-106835363D01*
X131409727Y-106678320D01*
X131148574Y-106570147D01*
X130871335Y-106515000D01*
X130588665Y-106515000D01*
X130311426Y-106570147D01*
X130050273Y-106678320D01*
X129815241Y-106835363D01*
X129615363Y-107035241D01*
X129458320Y-107270273D01*
X129350147Y-107531426D01*
X129295000Y-107808665D01*
X127168072Y-107808665D01*
X127168072Y-107150000D01*
X127155812Y-107025518D01*
X127119502Y-106905820D01*
X127060537Y-106795506D01*
X126981185Y-106698815D01*
X126884494Y-106619463D01*
X126774180Y-106560498D01*
X126654482Y-106524188D01*
X126530000Y-106511928D01*
X126490000Y-106511928D01*
X126490000Y-101637322D01*
X126493676Y-101599999D01*
X126490000Y-101562676D01*
X126490000Y-101562667D01*
X126479003Y-101451014D01*
X126435546Y-101307753D01*
X126364974Y-101175724D01*
X126351811Y-101159685D01*
X126293799Y-101088996D01*
X126293795Y-101088992D01*
X126270001Y-101059999D01*
X126241008Y-101036205D01*
X125325498Y-100120696D01*
X125477267Y-100019287D01*
X125649287Y-99847267D01*
X125784443Y-99644992D01*
X125877540Y-99420236D01*
X125925000Y-99181637D01*
X125925000Y-98938363D01*
X125877540Y-98699764D01*
X125784443Y-98475008D01*
X125649287Y-98272733D01*
X125477267Y-98100713D01*
X125274992Y-97965557D01*
X125050236Y-97872460D01*
X124811637Y-97825000D01*
X124568363Y-97825000D01*
X124329764Y-97872460D01*
X124160478Y-97942581D01*
X124144494Y-97929463D01*
X124034180Y-97870498D01*
X123914482Y-97834188D01*
X123790000Y-97821928D01*
X122590000Y-97821928D01*
X122465518Y-97834188D01*
X122345820Y-97870498D01*
X122235506Y-97929463D01*
X122138815Y-98008815D01*
X122059463Y-98105506D01*
X122000498Y-98215820D01*
X121974962Y-98300000D01*
X112520000Y-98300000D01*
X112520000Y-75049067D01*
X112583356Y-74985711D01*
X112699360Y-74812098D01*
X112779265Y-74619191D01*
X112820000Y-74414401D01*
X112820000Y-74205599D01*
X112779265Y-74000809D01*
X112700229Y-73810000D01*
X112779265Y-73619191D01*
X112820000Y-73414401D01*
X112820000Y-73315753D01*
X117574407Y-78009208D01*
G37*
X117574407Y-78009208D02*
X118137989Y-78572791D01*
X118125506Y-78579463D01*
X118028815Y-78658815D01*
X117949463Y-78755506D01*
X117890498Y-78865820D01*
X117854188Y-78985518D01*
X117841928Y-79110000D01*
X117841928Y-80910000D01*
X117854188Y-81034482D01*
X117890498Y-81154180D01*
X117949463Y-81264494D01*
X118028815Y-81361185D01*
X118125506Y-81440537D01*
X118235820Y-81499502D01*
X118254127Y-81505056D01*
X118187688Y-81571495D01*
X118019701Y-81822905D01*
X117903989Y-82102257D01*
X117845000Y-82398816D01*
X117845000Y-82701184D01*
X117896269Y-82958930D01*
X113789003Y-87066196D01*
X113759999Y-87089999D01*
X113711576Y-87149003D01*
X113665026Y-87205724D01*
X113594454Y-87337754D01*
X113550998Y-87481015D01*
X113536324Y-87630000D01*
X113550998Y-87778985D01*
X113594454Y-87922246D01*
X113665026Y-88054276D01*
X113759999Y-88170001D01*
X113789003Y-88193804D01*
X117192901Y-91597703D01*
X116995363Y-91795241D01*
X116838320Y-92030273D01*
X116730147Y-92291426D01*
X116675000Y-92568665D01*
X116675000Y-92851335D01*
X116730147Y-93128574D01*
X116838320Y-93389727D01*
X116995363Y-93624759D01*
X117195241Y-93824637D01*
X117430273Y-93981680D01*
X117691426Y-94089853D01*
X117968665Y-94145000D01*
X118251335Y-94145000D01*
X118528574Y-94089853D01*
X118789727Y-93981680D01*
X119024759Y-93824637D01*
X119224637Y-93624759D01*
X119381680Y-93389727D01*
X119489853Y-93128574D01*
X119545000Y-92851335D01*
X119545000Y-92568665D01*
X119489853Y-92291426D01*
X119381680Y-92030273D01*
X119224637Y-91795241D01*
X119024759Y-91595363D01*
X118870000Y-91491957D01*
X118870000Y-91477325D01*
X118873676Y-91440000D01*
X118870000Y-91402675D01*
X118870000Y-91402667D01*
X118859003Y-91291014D01*
X118815546Y-91147753D01*
X118744974Y-91015724D01*
X118650001Y-90899999D01*
X118621003Y-90876201D01*
X115374801Y-87630000D01*
X118971070Y-84033731D01*
X119228816Y-84085000D01*
X119531184Y-84085000D01*
X119827743Y-84026011D01*
X120107095Y-83910299D01*
X120358505Y-83742312D01*
X120572312Y-83528505D01*
X120740299Y-83277095D01*
X120741684Y-83273751D01*
X123315000Y-83273751D01*
X123315000Y-84366248D01*
X123331567Y-84534458D01*
X123397040Y-84750292D01*
X123503361Y-84949205D01*
X123646445Y-85123555D01*
X123820794Y-85266639D01*
X124019707Y-85372960D01*
X124235541Y-85438433D01*
X124460000Y-85460540D01*
X124684458Y-85438433D01*
X124900292Y-85372960D01*
X125099205Y-85266639D01*
X125273555Y-85123555D01*
X125416639Y-84949206D01*
X125522960Y-84750293D01*
X125588433Y-84534459D01*
X125605000Y-84366249D01*
X125605000Y-83273751D01*
X125855000Y-83273751D01*
X125855000Y-84366248D01*
X125871567Y-84534458D01*
X125937040Y-84750292D01*
X126043361Y-84949205D01*
X126186445Y-85123555D01*
X126360794Y-85266639D01*
X126559707Y-85372960D01*
X126775541Y-85438433D01*
X127000000Y-85460540D01*
X127224458Y-85438433D01*
X127440292Y-85372960D01*
X127639205Y-85266639D01*
X127813555Y-85123555D01*
X127956639Y-84949206D01*
X128062960Y-84750293D01*
X128128433Y-84534459D01*
X128145000Y-84366249D01*
X128145000Y-83273751D01*
X128395000Y-83273751D01*
X128395000Y-84366248D01*
X128411567Y-84534458D01*
X128477040Y-84750292D01*
X128583361Y-84949205D01*
X128726445Y-85123555D01*
X128780000Y-85167507D01*
X128780000Y-86322677D01*
X128776324Y-86360000D01*
X128780000Y-86397322D01*
X128780000Y-86397332D01*
X128790997Y-86508985D01*
X128816521Y-86593128D01*
X128834454Y-86652246D01*
X128905026Y-86784276D01*
X128937853Y-86824275D01*
X128999999Y-86900001D01*
X129029003Y-86923804D01*
X132582989Y-90477791D01*
X132570506Y-90484463D01*
X132473815Y-90563815D01*
X132394463Y-90660506D01*
X132335498Y-90770820D01*
X132299188Y-90890518D01*
X132286928Y-91015000D01*
X132286928Y-91865000D01*
X132299188Y-91989482D01*
X132335498Y-92109180D01*
X132394463Y-92219494D01*
X132473815Y-92316185D01*
X132570506Y-92395537D01*
X132680820Y-92454502D01*
X132800518Y-92490812D01*
X132925000Y-92503072D01*
X133775000Y-92503072D01*
X133899482Y-92490812D01*
X134019180Y-92454502D01*
X134023603Y-92452138D01*
X134040809Y-92459265D01*
X134245599Y-92500000D01*
X134454401Y-92500000D01*
X134659191Y-92459265D01*
X134850000Y-92380229D01*
X135040809Y-92459265D01*
X135245599Y-92500000D01*
X135454401Y-92500000D01*
X135659191Y-92459265D01*
X135850000Y-92380229D01*
X136040809Y-92459265D01*
X136245599Y-92500000D01*
X136454401Y-92500000D01*
X136659191Y-92459265D01*
X136852098Y-92379360D01*
X137025711Y-92263356D01*
X137173356Y-92115711D01*
X137289360Y-91942098D01*
X137369265Y-91749191D01*
X137410000Y-91544401D01*
X137410000Y-91335599D01*
X137369265Y-91130809D01*
X137289360Y-90937902D01*
X137173356Y-90764289D01*
X137110000Y-90700933D01*
X137110000Y-86615683D01*
X137670000Y-86055684D01*
X137670000Y-86362677D01*
X137666324Y-86400000D01*
X137670000Y-86437322D01*
X137670000Y-86437332D01*
X137680997Y-86548985D01*
X137712321Y-86652247D01*
X137724454Y-86692246D01*
X137795026Y-86824276D01*
X137834871Y-86872826D01*
X137889999Y-86940001D01*
X137919003Y-86963804D01*
X140841312Y-89886114D01*
X140805000Y-90068665D01*
X140805000Y-90351335D01*
X140860147Y-90628574D01*
X140968320Y-90889727D01*
X141125363Y-91124759D01*
X141291943Y-91291339D01*
X141195820Y-91320498D01*
X141085506Y-91379463D01*
X140988815Y-91458815D01*
X140909463Y-91555506D01*
X140850498Y-91665820D01*
X140814188Y-91785518D01*
X140801928Y-91910000D01*
X140801928Y-93510000D01*
X140814188Y-93634482D01*
X140850498Y-93754180D01*
X140909463Y-93864494D01*
X140988815Y-93961185D01*
X141085506Y-94040537D01*
X141195820Y-94099502D01*
X141315518Y-94135812D01*
X141440000Y-94148072D01*
X143040000Y-94148072D01*
X143164482Y-94135812D01*
X143284180Y-94099502D01*
X143394494Y-94040537D01*
X143491185Y-93961185D01*
X143570537Y-93864494D01*
X143629502Y-93754180D01*
X143665812Y-93634482D01*
X143678072Y-93510000D01*
X143678072Y-91910000D01*
X143665812Y-91785518D01*
X143629502Y-91665820D01*
X143570537Y-91555506D01*
X143491185Y-91458815D01*
X143394494Y-91379463D01*
X143284180Y-91320498D01*
X143188057Y-91291339D01*
X143354637Y-91124759D01*
X143511680Y-90889727D01*
X143619853Y-90628574D01*
X143675000Y-90351335D01*
X143675000Y-90068665D01*
X143619853Y-89791426D01*
X143511680Y-89530273D01*
X143354637Y-89295241D01*
X143154759Y-89095363D01*
X142919727Y-88938320D01*
X142658574Y-88830147D01*
X142381335Y-88775000D01*
X142098665Y-88775000D01*
X141916114Y-88811312D01*
X139190000Y-86085199D01*
X139190000Y-85404801D01*
X139235031Y-85359770D01*
X139259707Y-85372960D01*
X139475541Y-85438433D01*
X139700000Y-85460540D01*
X139924458Y-85438433D01*
X140140292Y-85372960D01*
X140339205Y-85266639D01*
X140513555Y-85123555D01*
X140656639Y-84949206D01*
X140762960Y-84750293D01*
X140828433Y-84534459D01*
X140845000Y-84366249D01*
X140845000Y-83273751D01*
X141095000Y-83273751D01*
X141095000Y-84366248D01*
X141111567Y-84534458D01*
X141177040Y-84750292D01*
X141283361Y-84949205D01*
X141426445Y-85123555D01*
X141600794Y-85266639D01*
X141799707Y-85372960D01*
X142015541Y-85438433D01*
X142240000Y-85460540D01*
X142464458Y-85438433D01*
X142680292Y-85372960D01*
X142879205Y-85266639D01*
X143053555Y-85123555D01*
X143196639Y-84949206D01*
X143302960Y-84750293D01*
X143368433Y-84534459D01*
X143385000Y-84366249D01*
X143385000Y-83273752D01*
X143368433Y-83105541D01*
X143302960Y-82889707D01*
X143196639Y-82690794D01*
X143053555Y-82516445D01*
X142879206Y-82373361D01*
X142680293Y-82267040D01*
X142464459Y-82201567D01*
X142240000Y-82179460D01*
X142015542Y-82201567D01*
X141799708Y-82267040D01*
X141600795Y-82373361D01*
X141426446Y-82516445D01*
X141283362Y-82690794D01*
X141177040Y-82889707D01*
X141111567Y-83105541D01*
X141095000Y-83273751D01*
X140845000Y-83273751D01*
X140828433Y-83105541D01*
X140762960Y-82889707D01*
X140656639Y-82690794D01*
X140513555Y-82516445D01*
X140339206Y-82373361D01*
X140140293Y-82267040D01*
X139924459Y-82201567D01*
X139700000Y-82179460D01*
X139475542Y-82201567D01*
X139259708Y-82267040D01*
X139060795Y-82373361D01*
X138886446Y-82516445D01*
X138743362Y-82690794D01*
X138715843Y-82742277D01*
X138700556Y-82691881D01*
X138629984Y-82559852D01*
X138621899Y-82550000D01*
X138535011Y-82444127D01*
X138506007Y-82420324D01*
X138069676Y-81983993D01*
X138045873Y-81954989D01*
X137930148Y-81860016D01*
X137798119Y-81789444D01*
X137654858Y-81745987D01*
X137543205Y-81734990D01*
X137543194Y-81734990D01*
X137505872Y-81731314D01*
X137468550Y-81734990D01*
X134732332Y-81734990D01*
X134695009Y-81731314D01*
X134657687Y-81734990D01*
X134657677Y-81734990D01*
X134546024Y-81745987D01*
X134402763Y-81789444D01*
X134270734Y-81860016D01*
X134155009Y-81954989D01*
X134131206Y-81983993D01*
X134109003Y-82006196D01*
X134079999Y-82029999D01*
X134046585Y-82070715D01*
X133985026Y-82145724D01*
X133937240Y-82235125D01*
X133914454Y-82277754D01*
X133870997Y-82421015D01*
X133866448Y-82467203D01*
X133806446Y-82516445D01*
X133663362Y-82690794D01*
X133557040Y-82889707D01*
X133491567Y-83105541D01*
X133475000Y-83273751D01*
X133475000Y-84366248D01*
X133491567Y-84534458D01*
X133557040Y-84750292D01*
X133663361Y-84949205D01*
X133806445Y-85123555D01*
X133980794Y-85266639D01*
X134179707Y-85372960D01*
X134395541Y-85438433D01*
X134590001Y-85457585D01*
X134590001Y-87795199D01*
X132840000Y-86045199D01*
X132840000Y-85167506D01*
X132893555Y-85123555D01*
X133036639Y-84949206D01*
X133142960Y-84750293D01*
X133208433Y-84534459D01*
X133225000Y-84366249D01*
X133225000Y-83273752D01*
X133208433Y-83105541D01*
X133142960Y-82889707D01*
X133036639Y-82690794D01*
X132893555Y-82516445D01*
X132719206Y-82373361D01*
X132520293Y-82267040D01*
X132304459Y-82201567D01*
X132080000Y-82179460D01*
X131855542Y-82201567D01*
X131639708Y-82267040D01*
X131440795Y-82373361D01*
X131266446Y-82516445D01*
X131123362Y-82690794D01*
X131017040Y-82889707D01*
X130951567Y-83105541D01*
X130935000Y-83273751D01*
X130935000Y-84366248D01*
X130951567Y-84534458D01*
X131017040Y-84750292D01*
X131123361Y-84949205D01*
X131266445Y-85123555D01*
X131320000Y-85167507D01*
X131320000Y-86322677D01*
X131316324Y-86360000D01*
X131320000Y-86397322D01*
X131320000Y-86397332D01*
X131330997Y-86508985D01*
X131356521Y-86593128D01*
X131374454Y-86652246D01*
X131445026Y-86784276D01*
X131477853Y-86824275D01*
X131539999Y-86900001D01*
X131569003Y-86923804D01*
X133590001Y-88944803D01*
X133590001Y-89335199D01*
X130300000Y-86045199D01*
X130300000Y-85167506D01*
X130353555Y-85123555D01*
X130496639Y-84949206D01*
X130602960Y-84750293D01*
X130668433Y-84534459D01*
X130685000Y-84366249D01*
X130685000Y-83273752D01*
X130668433Y-83105541D01*
X130602960Y-82889707D01*
X130496639Y-82690794D01*
X130353555Y-82516445D01*
X130179206Y-82373361D01*
X129980293Y-82267040D01*
X129764459Y-82201567D01*
X129540000Y-82179460D01*
X129315542Y-82201567D01*
X129099708Y-82267040D01*
X128900795Y-82373361D01*
X128726446Y-82516445D01*
X128583362Y-82690794D01*
X128477040Y-82889707D01*
X128411567Y-83105541D01*
X128395000Y-83273751D01*
X128145000Y-83273751D01*
X128128433Y-83105541D01*
X128062960Y-82889707D01*
X127956639Y-82690794D01*
X127813555Y-82516445D01*
X127639206Y-82373361D01*
X127440293Y-82267040D01*
X127224459Y-82201567D01*
X127000000Y-82179460D01*
X126775542Y-82201567D01*
X126559708Y-82267040D01*
X126360795Y-82373361D01*
X126186446Y-82516445D01*
X126043362Y-82690794D01*
X125937040Y-82889707D01*
X125871567Y-83105541D01*
X125855000Y-83273751D01*
X125605000Y-83273751D01*
X125588433Y-83105541D01*
X125522960Y-82889707D01*
X125416639Y-82690794D01*
X125273555Y-82516445D01*
X125099206Y-82373361D01*
X124900293Y-82267040D01*
X124684459Y-82201567D01*
X124460000Y-82179460D01*
X124235542Y-82201567D01*
X124019708Y-82267040D01*
X123820795Y-82373361D01*
X123646446Y-82516445D01*
X123503362Y-82690794D01*
X123397040Y-82889707D01*
X123331567Y-83105541D01*
X123315000Y-83273751D01*
X120741684Y-83273751D01*
X120856011Y-82997743D01*
X120915000Y-82701184D01*
X120915000Y-82398816D01*
X120856011Y-82102257D01*
X120740299Y-81822905D01*
X120572312Y-81571495D01*
X120505873Y-81505056D01*
X120524180Y-81499502D01*
X120634494Y-81440537D01*
X120731185Y-81361185D01*
X120810537Y-81264494D01*
X120869502Y-81154180D01*
X120905812Y-81034482D01*
X120918072Y-80910000D01*
X120918072Y-79110000D01*
X120905812Y-78985518D01*
X120869502Y-78865820D01*
X120810537Y-78755506D01*
X120731185Y-78658815D01*
X120634494Y-78579463D01*
X120524180Y-78520498D01*
X120404482Y-78484188D01*
X120280000Y-78471928D01*
X120092879Y-78471928D01*
X120085546Y-78447753D01*
X120014974Y-78315724D01*
X119920001Y-78199999D01*
X119891003Y-78176201D01*
X118809844Y-77095043D01*
X136987635Y-77095043D01*
X137024957Y-77098719D01*
X137062279Y-77095043D01*
X137062290Y-77095043D01*
X137173943Y-77084046D01*
X137317204Y-77040589D01*
X137449233Y-76970017D01*
X137564958Y-76875044D01*
X137588761Y-76846040D01*
X138956024Y-75478778D01*
X138985022Y-75454980D01*
X139079995Y-75339255D01*
X139150567Y-75207226D01*
X139164297Y-75161963D01*
X139259707Y-75212960D01*
X139475541Y-75278433D01*
X139700000Y-75300540D01*
X139924458Y-75278433D01*
X140140292Y-75212960D01*
X140339205Y-75106639D01*
X140513555Y-74963555D01*
X140592526Y-74867328D01*
X145976205Y-80251008D01*
X145999999Y-80280001D01*
X146028992Y-80303795D01*
X146028996Y-80303799D01*
X146051735Y-80322460D01*
X146115724Y-80374974D01*
X146247753Y-80445546D01*
X146391014Y-80489003D01*
X146502667Y-80500000D01*
X146502676Y-80500000D01*
X146539999Y-80503676D01*
X146577322Y-80500000D01*
X154180000Y-80500000D01*
X154180001Y-105095197D01*
X144465199Y-114810000D01*
X122234802Y-114810000D01*
X117600000Y-110175199D01*
X117600000Y-106848072D01*
X117640000Y-106848072D01*
X117764482Y-106835812D01*
X117884180Y-106799502D01*
X117994494Y-106740537D01*
X118091185Y-106661185D01*
X118170537Y-106564494D01*
X118229502Y-106454180D01*
X118258661Y-106358057D01*
X118425241Y-106524637D01*
X118660273Y-106681680D01*
X118921426Y-106789853D01*
X119198665Y-106845000D01*
X119481335Y-106845000D01*
X119758574Y-106789853D01*
X120019727Y-106681680D01*
X120254759Y-106524637D01*
X120454637Y-106324759D01*
X120611680Y-106089727D01*
X120719853Y-105828574D01*
X120775000Y-105551335D01*
X120775000Y-105268665D01*
X120719853Y-104991426D01*
X120611680Y-104730273D01*
X120454637Y-104495241D01*
X120254759Y-104295363D01*
X120019727Y-104138320D01*
X119758574Y-104030147D01*
X119481335Y-103975000D01*
X119198665Y-103975000D01*
X118921426Y-104030147D01*
X118660273Y-104138320D01*
X118425241Y-104295363D01*
X118258661Y-104461943D01*
X118229502Y-104365820D01*
X118170537Y-104255506D01*
X118091185Y-104158815D01*
X117994494Y-104079463D01*
X117884180Y-104020498D01*
X117764482Y-103984188D01*
X117640000Y-103971928D01*
X117494326Y-103971928D01*
X117474974Y-103935723D01*
X117403799Y-103848997D01*
X117380001Y-103819999D01*
X117351003Y-103796201D01*
X113374801Y-99820000D01*
X121974962Y-99820000D01*
X122000498Y-99904180D01*
X122059463Y-100014494D01*
X122138815Y-100111185D01*
X122235506Y-100190537D01*
X122345820Y-100249502D01*
X122465518Y-100285812D01*
X122590000Y-100298072D01*
X123353270Y-100298072D01*
X124970001Y-101914804D01*
X124970000Y-106511928D01*
X124930000Y-106511928D01*
X124805518Y-106524188D01*
X124685820Y-106560498D01*
X124575506Y-106619463D01*
X124478815Y-106698815D01*
X124399463Y-106795506D01*
X124340498Y-106905820D01*
X124304188Y-107025518D01*
X124291928Y-107150000D01*
X124291928Y-108750000D01*
X124304188Y-108874482D01*
X124340498Y-108994180D01*
X124399463Y-109104494D01*
X124478815Y-109201185D01*
X124575506Y-109280537D01*
X124685820Y-109339502D01*
X124805518Y-109375812D01*
X124930000Y-109388072D01*
X126530000Y-109388072D01*
X126654482Y-109375812D01*
X126774180Y-109339502D01*
X126884494Y-109280537D01*
X126981185Y-109201185D01*
X127060537Y-109104494D01*
X127119502Y-108994180D01*
X127155812Y-108874482D01*
X127168072Y-108750000D01*
X127168072Y-107808665D01*
X129295000Y-107808665D01*
X129295000Y-108091335D01*
X129350147Y-108368574D01*
X129458320Y-108629727D01*
X129615363Y-108864759D01*
X129815241Y-109064637D01*
X130050273Y-109221680D01*
X130311426Y-109329853D01*
X130588665Y-109385000D01*
X130871335Y-109385000D01*
X131148574Y-109329853D01*
X131409727Y-109221680D01*
X131644759Y-109064637D01*
X131844637Y-108864759D01*
X132001680Y-108629727D01*
X132109853Y-108368574D01*
X132165000Y-108091335D01*
X132165000Y-107808665D01*
X132109853Y-107531426D01*
X132001680Y-107270273D01*
X131844637Y-107035241D01*
X131644759Y-106835363D01*
X131409727Y-106678320D01*
X131148574Y-106570147D01*
X130871335Y-106515000D01*
X130588665Y-106515000D01*
X130311426Y-106570147D01*
X130050273Y-106678320D01*
X129815241Y-106835363D01*
X129615363Y-107035241D01*
X129458320Y-107270273D01*
X129350147Y-107531426D01*
X129295000Y-107808665D01*
X127168072Y-107808665D01*
X127168072Y-107150000D01*
X127155812Y-107025518D01*
X127119502Y-106905820D01*
X127060537Y-106795506D01*
X126981185Y-106698815D01*
X126884494Y-106619463D01*
X126774180Y-106560498D01*
X126654482Y-106524188D01*
X126530000Y-106511928D01*
X126490000Y-106511928D01*
X126490000Y-101637322D01*
X126493676Y-101599999D01*
X126490000Y-101562676D01*
X126490000Y-101562667D01*
X126479003Y-101451014D01*
X126435546Y-101307753D01*
X126364974Y-101175724D01*
X126351811Y-101159685D01*
X126293799Y-101088996D01*
X126293795Y-101088992D01*
X126270001Y-101059999D01*
X126241008Y-101036205D01*
X125325498Y-100120696D01*
X125477267Y-100019287D01*
X125649287Y-99847267D01*
X125784443Y-99644992D01*
X125877540Y-99420236D01*
X125925000Y-99181637D01*
X125925000Y-98938363D01*
X125877540Y-98699764D01*
X125784443Y-98475008D01*
X125649287Y-98272733D01*
X125477267Y-98100713D01*
X125274992Y-97965557D01*
X125050236Y-97872460D01*
X124811637Y-97825000D01*
X124568363Y-97825000D01*
X124329764Y-97872460D01*
X124160478Y-97942581D01*
X124144494Y-97929463D01*
X124034180Y-97870498D01*
X123914482Y-97834188D01*
X123790000Y-97821928D01*
X122590000Y-97821928D01*
X122465518Y-97834188D01*
X122345820Y-97870498D01*
X122235506Y-97929463D01*
X122138815Y-98008815D01*
X122059463Y-98105506D01*
X122000498Y-98215820D01*
X121974962Y-98300000D01*
X112520000Y-98300000D01*
X112520000Y-75049067D01*
X112583356Y-74985711D01*
X112699360Y-74812098D01*
X112779265Y-74619191D01*
X112820000Y-74414401D01*
X112820000Y-74205599D01*
X112779265Y-74000809D01*
X112700229Y-73810000D01*
X112779265Y-73619191D01*
X112820000Y-73414401D01*
X112820000Y-73315753D01*
X117574407Y-78009208D01*
G36*
X136346445Y-85123555D02*
G01*
X136404709Y-85171371D01*
X136110000Y-85466081D01*
X136110000Y-85184801D01*
X136267474Y-85027327D01*
X136346445Y-85123555D01*
G37*
X136346445Y-85123555D02*
X136404709Y-85171371D01*
X136110000Y-85466081D01*
X136110000Y-85184801D01*
X136267474Y-85027327D01*
X136346445Y-85123555D01*
G36*
X135859999Y-83279999D02*
G01*
X135836201Y-83308997D01*
X135765000Y-83380198D01*
X135765000Y-83273752D01*
X135763152Y-83254990D01*
X135890473Y-83254990D01*
X135859999Y-83279999D01*
G37*
X135859999Y-83279999D02*
X135836201Y-83308997D01*
X135765000Y-83380198D01*
X135765000Y-83273752D01*
X135763152Y-83254990D01*
X135890473Y-83254990D01*
X135859999Y-83279999D01*
G36*
X110740735Y-73619191D02*
G01*
X110819771Y-73810000D01*
X110740735Y-74000809D01*
X110700000Y-74205599D01*
X110700000Y-74414401D01*
X110740735Y-74619191D01*
X110820640Y-74812098D01*
X110936644Y-74985711D01*
X111000001Y-75049068D01*
X111000001Y-80353160D01*
X110236000Y-79589160D01*
X110236000Y-74080840D01*
X110733587Y-73583254D01*
X110740735Y-73619191D01*
G37*
X110740735Y-73619191D02*
X110819771Y-73810000D01*
X110740735Y-74000809D01*
X110700000Y-74205599D01*
X110700000Y-74414401D01*
X110740735Y-74619191D01*
X110820640Y-74812098D01*
X110936644Y-74985711D01*
X111000001Y-75049068D01*
X111000001Y-80353160D01*
X110236000Y-79589160D01*
X110236000Y-74080840D01*
X110733587Y-73583254D01*
X110740735Y-73619191D01*
G36*
X161494656Y-61619207D02*
G01*
X161546104Y-61681896D01*
X161599534Y-61725745D01*
X161650189Y-61772758D01*
X161676719Y-61789089D01*
X161700810Y-61808860D01*
X161761772Y-61841444D01*
X161820621Y-61877670D01*
X161849832Y-61888513D01*
X161877313Y-61903202D01*
X161943450Y-61923265D01*
X162008246Y-61947317D01*
X162039012Y-61952253D01*
X162068829Y-61961298D01*
X162137616Y-61968073D01*
X162205853Y-61979021D01*
X162286887Y-61976000D01*
X162431950Y-61976000D01*
X162440498Y-62004180D01*
X162499463Y-62114494D01*
X162578815Y-62211185D01*
X162675506Y-62290537D01*
X162785820Y-62349502D01*
X162905518Y-62385812D01*
X163030000Y-62398072D01*
X163817126Y-62398072D01*
X156533271Y-69681928D01*
X155410000Y-69681928D01*
X155285518Y-69694188D01*
X155165820Y-69730498D01*
X155055506Y-69789463D01*
X154958815Y-69868815D01*
X154879463Y-69965506D01*
X154820498Y-70075820D01*
X154784188Y-70195518D01*
X154771928Y-70320000D01*
X154771928Y-71920000D01*
X154784188Y-72044482D01*
X154820498Y-72164180D01*
X154879463Y-72274494D01*
X154958815Y-72371185D01*
X155055506Y-72450537D01*
X155165820Y-72509502D01*
X155285518Y-72545812D01*
X155410000Y-72558072D01*
X157010000Y-72558072D01*
X157134482Y-72545812D01*
X157254180Y-72509502D01*
X157364494Y-72450537D01*
X157461185Y-72371185D01*
X157540537Y-72274494D01*
X157599502Y-72164180D01*
X157628661Y-72068057D01*
X157795241Y-72234637D01*
X158030273Y-72391680D01*
X158291426Y-72499853D01*
X158568665Y-72555000D01*
X158851335Y-72555000D01*
X159128574Y-72499853D01*
X159389727Y-72391680D01*
X159624759Y-72234637D01*
X159824637Y-72034759D01*
X159981680Y-71799727D01*
X160089853Y-71538574D01*
X160145000Y-71261335D01*
X160145000Y-70978665D01*
X160089853Y-70701426D01*
X159981680Y-70440273D01*
X159824637Y-70205241D01*
X159624759Y-70005363D01*
X159389727Y-69848320D01*
X159128574Y-69740147D01*
X158851335Y-69685000D01*
X158679801Y-69685000D01*
X166006114Y-62358688D01*
X166188665Y-62395000D01*
X166471335Y-62395000D01*
X166748574Y-62339853D01*
X167009727Y-62231680D01*
X167244759Y-62074637D01*
X167444637Y-61874759D01*
X167601680Y-61639727D01*
X167709853Y-61378574D01*
X167765000Y-61101335D01*
X167765000Y-60818665D01*
X167709853Y-60541426D01*
X167601680Y-60280273D01*
X167444637Y-60045241D01*
X167244759Y-59845363D01*
X167009727Y-59688320D01*
X166748574Y-59580147D01*
X166471335Y-59525000D01*
X166188665Y-59525000D01*
X165911426Y-59580147D01*
X165650273Y-59688320D01*
X165415241Y-59845363D01*
X165248661Y-60011943D01*
X165219502Y-59915820D01*
X165160537Y-59805506D01*
X165081185Y-59708815D01*
X164984494Y-59629463D01*
X164874180Y-59570498D01*
X164754482Y-59534188D01*
X164630000Y-59521928D01*
X163030000Y-59521928D01*
X162905518Y-59534188D01*
X162785820Y-59570498D01*
X162675506Y-59629463D01*
X162578815Y-59708815D01*
X162549275Y-59744810D01*
X162275966Y-59436000D01*
X168489160Y-59436000D01*
X169164001Y-60110842D01*
X169164000Y-72141159D01*
X168341160Y-72964000D01*
X167420098Y-72964000D01*
X167270829Y-72978702D01*
X167144815Y-73016928D01*
X166940000Y-73016928D01*
X166815518Y-73029188D01*
X166695820Y-73065498D01*
X166585506Y-73124463D01*
X166488815Y-73203815D01*
X166409463Y-73300506D01*
X166405357Y-73308188D01*
X166342247Y-73274454D01*
X166298189Y-73261089D01*
X166251185Y-73203815D01*
X166154494Y-73124463D01*
X166044180Y-73065498D01*
X165924482Y-73029188D01*
X165800000Y-73016928D01*
X164740000Y-73016928D01*
X164615518Y-73029188D01*
X164495820Y-73065498D01*
X164385506Y-73124463D01*
X164288815Y-73203815D01*
X164209463Y-73300506D01*
X164150498Y-73410820D01*
X164114188Y-73530518D01*
X164101928Y-73655000D01*
X164101928Y-74305000D01*
X164114188Y-74429482D01*
X164121929Y-74455000D01*
X164114188Y-74480518D01*
X164101928Y-74605000D01*
X164101928Y-75255000D01*
X164114188Y-75379482D01*
X164121929Y-75405000D01*
X164114188Y-75430518D01*
X164101928Y-75555000D01*
X164101928Y-76205000D01*
X164114188Y-76329482D01*
X164142474Y-76422727D01*
X162585201Y-77980000D01*
X159207322Y-77980000D01*
X159170000Y-77976324D01*
X159132678Y-77980000D01*
X155905957Y-77980000D01*
X155895537Y-77960506D01*
X155816185Y-77863815D01*
X155719494Y-77784463D01*
X155609180Y-77725498D01*
X155489482Y-77689188D01*
X155365000Y-77676928D01*
X154515000Y-77676928D01*
X154390518Y-77689188D01*
X154270820Y-77725498D01*
X154160506Y-77784463D01*
X154063815Y-77863815D01*
X153984463Y-77960506D01*
X153925498Y-78070820D01*
X153889188Y-78190518D01*
X153876928Y-78315000D01*
X153876928Y-78980000D01*
X146854803Y-78980000D01*
X142935358Y-75060556D01*
X143053555Y-74963555D01*
X143196639Y-74789206D01*
X143302960Y-74590293D01*
X143368433Y-74374459D01*
X143385000Y-74206249D01*
X143385000Y-73113752D01*
X143368433Y-72945541D01*
X143302960Y-72729707D01*
X143196639Y-72530794D01*
X143053555Y-72356445D01*
X142879206Y-72213361D01*
X142838303Y-72191498D01*
X146692620Y-68337182D01*
X146770518Y-68360812D01*
X146895000Y-68373072D01*
X147745000Y-68373072D01*
X147869482Y-68360812D01*
X147989180Y-68324502D01*
X148099494Y-68265537D01*
X148196185Y-68186185D01*
X148275537Y-68089494D01*
X148334502Y-67979180D01*
X148370812Y-67859482D01*
X148383072Y-67735000D01*
X148383072Y-66885000D01*
X148370812Y-66760518D01*
X148334502Y-66640820D01*
X148332138Y-66636397D01*
X148339265Y-66619191D01*
X148380000Y-66414401D01*
X148380000Y-66205599D01*
X148353028Y-66070000D01*
X151512678Y-66070000D01*
X151550000Y-66073676D01*
X151587322Y-66070000D01*
X151587333Y-66070000D01*
X151698986Y-66059003D01*
X151842247Y-66015546D01*
X151974276Y-65944974D01*
X152090001Y-65850001D01*
X152113803Y-65820998D01*
X153641009Y-64293794D01*
X153670001Y-64270001D01*
X153693795Y-64241008D01*
X153693799Y-64241004D01*
X153764973Y-64154277D01*
X153764974Y-64154276D01*
X153835546Y-64022247D01*
X153871365Y-63904167D01*
X153903188Y-63887157D01*
X154114081Y-63714081D01*
X154130000Y-63694683D01*
X154145920Y-63714081D01*
X154356813Y-63887157D01*
X154597420Y-64015764D01*
X154858494Y-64094960D01*
X155130000Y-64121701D01*
X155401507Y-64094960D01*
X155662581Y-64015764D01*
X155839862Y-63921006D01*
X155997235Y-64112766D01*
X156261423Y-64329579D01*
X156562833Y-64490686D01*
X156889882Y-64589895D01*
X157230000Y-64623394D01*
X157570119Y-64589895D01*
X157897168Y-64490686D01*
X158198578Y-64329579D01*
X158462766Y-64112766D01*
X158679579Y-63848578D01*
X158840686Y-63547168D01*
X158939895Y-63220119D01*
X158965000Y-62965225D01*
X158965000Y-61494775D01*
X158939895Y-61239881D01*
X158840686Y-60912832D01*
X158679579Y-60611422D01*
X158462766Y-60347234D01*
X158198577Y-60130421D01*
X157897167Y-59969314D01*
X157570118Y-59870105D01*
X157230000Y-59836606D01*
X156889881Y-59870105D01*
X156562832Y-59969314D01*
X156261422Y-60130421D01*
X156146000Y-60225145D01*
X156146000Y-60220303D01*
X156146505Y-60123217D01*
X156136474Y-60071383D01*
X156131298Y-60018829D01*
X156117505Y-59973360D01*
X156108481Y-59926728D01*
X156088532Y-59877849D01*
X156073202Y-59827313D01*
X156050805Y-59785412D01*
X156032856Y-59741432D01*
X156003753Y-59697382D01*
X155978860Y-59650810D01*
X155917126Y-59575587D01*
X155803780Y-59436000D01*
X159562433Y-59436000D01*
X161494656Y-61619207D01*
G37*
X161494656Y-61619207D02*
X161546104Y-61681896D01*
X161599534Y-61725745D01*
X161650189Y-61772758D01*
X161676719Y-61789089D01*
X161700810Y-61808860D01*
X161761772Y-61841444D01*
X161820621Y-61877670D01*
X161849832Y-61888513D01*
X161877313Y-61903202D01*
X161943450Y-61923265D01*
X162008246Y-61947317D01*
X162039012Y-61952253D01*
X162068829Y-61961298D01*
X162137616Y-61968073D01*
X162205853Y-61979021D01*
X162286887Y-61976000D01*
X162431950Y-61976000D01*
X162440498Y-62004180D01*
X162499463Y-62114494D01*
X162578815Y-62211185D01*
X162675506Y-62290537D01*
X162785820Y-62349502D01*
X162905518Y-62385812D01*
X163030000Y-62398072D01*
X163817126Y-62398072D01*
X156533271Y-69681928D01*
X155410000Y-69681928D01*
X155285518Y-69694188D01*
X155165820Y-69730498D01*
X155055506Y-69789463D01*
X154958815Y-69868815D01*
X154879463Y-69965506D01*
X154820498Y-70075820D01*
X154784188Y-70195518D01*
X154771928Y-70320000D01*
X154771928Y-71920000D01*
X154784188Y-72044482D01*
X154820498Y-72164180D01*
X154879463Y-72274494D01*
X154958815Y-72371185D01*
X155055506Y-72450537D01*
X155165820Y-72509502D01*
X155285518Y-72545812D01*
X155410000Y-72558072D01*
X157010000Y-72558072D01*
X157134482Y-72545812D01*
X157254180Y-72509502D01*
X157364494Y-72450537D01*
X157461185Y-72371185D01*
X157540537Y-72274494D01*
X157599502Y-72164180D01*
X157628661Y-72068057D01*
X157795241Y-72234637D01*
X158030273Y-72391680D01*
X158291426Y-72499853D01*
X158568665Y-72555000D01*
X158851335Y-72555000D01*
X159128574Y-72499853D01*
X159389727Y-72391680D01*
X159624759Y-72234637D01*
X159824637Y-72034759D01*
X159981680Y-71799727D01*
X160089853Y-71538574D01*
X160145000Y-71261335D01*
X160145000Y-70978665D01*
X160089853Y-70701426D01*
X159981680Y-70440273D01*
X159824637Y-70205241D01*
X159624759Y-70005363D01*
X159389727Y-69848320D01*
X159128574Y-69740147D01*
X158851335Y-69685000D01*
X158679801Y-69685000D01*
X166006114Y-62358688D01*
X166188665Y-62395000D01*
X166471335Y-62395000D01*
X166748574Y-62339853D01*
X167009727Y-62231680D01*
X167244759Y-62074637D01*
X167444637Y-61874759D01*
X167601680Y-61639727D01*
X167709853Y-61378574D01*
X167765000Y-61101335D01*
X167765000Y-60818665D01*
X167709853Y-60541426D01*
X167601680Y-60280273D01*
X167444637Y-60045241D01*
X167244759Y-59845363D01*
X167009727Y-59688320D01*
X166748574Y-59580147D01*
X166471335Y-59525000D01*
X166188665Y-59525000D01*
X165911426Y-59580147D01*
X165650273Y-59688320D01*
X165415241Y-59845363D01*
X165248661Y-60011943D01*
X165219502Y-59915820D01*
X165160537Y-59805506D01*
X165081185Y-59708815D01*
X164984494Y-59629463D01*
X164874180Y-59570498D01*
X164754482Y-59534188D01*
X164630000Y-59521928D01*
X163030000Y-59521928D01*
X162905518Y-59534188D01*
X162785820Y-59570498D01*
X162675506Y-59629463D01*
X162578815Y-59708815D01*
X162549275Y-59744810D01*
X162275966Y-59436000D01*
X168489160Y-59436000D01*
X169164001Y-60110842D01*
X169164000Y-72141159D01*
X168341160Y-72964000D01*
X167420098Y-72964000D01*
X167270829Y-72978702D01*
X167144815Y-73016928D01*
X166940000Y-73016928D01*
X166815518Y-73029188D01*
X166695820Y-73065498D01*
X166585506Y-73124463D01*
X166488815Y-73203815D01*
X166409463Y-73300506D01*
X166405357Y-73308188D01*
X166342247Y-73274454D01*
X166298189Y-73261089D01*
X166251185Y-73203815D01*
X166154494Y-73124463D01*
X166044180Y-73065498D01*
X165924482Y-73029188D01*
X165800000Y-73016928D01*
X164740000Y-73016928D01*
X164615518Y-73029188D01*
X164495820Y-73065498D01*
X164385506Y-73124463D01*
X164288815Y-73203815D01*
X164209463Y-73300506D01*
X164150498Y-73410820D01*
X164114188Y-73530518D01*
X164101928Y-73655000D01*
X164101928Y-74305000D01*
X164114188Y-74429482D01*
X164121929Y-74455000D01*
X164114188Y-74480518D01*
X164101928Y-74605000D01*
X164101928Y-75255000D01*
X164114188Y-75379482D01*
X164121929Y-75405000D01*
X164114188Y-75430518D01*
X164101928Y-75555000D01*
X164101928Y-76205000D01*
X164114188Y-76329482D01*
X164142474Y-76422727D01*
X162585201Y-77980000D01*
X159207322Y-77980000D01*
X159170000Y-77976324D01*
X159132678Y-77980000D01*
X155905957Y-77980000D01*
X155895537Y-77960506D01*
X155816185Y-77863815D01*
X155719494Y-77784463D01*
X155609180Y-77725498D01*
X155489482Y-77689188D01*
X155365000Y-77676928D01*
X154515000Y-77676928D01*
X154390518Y-77689188D01*
X154270820Y-77725498D01*
X154160506Y-77784463D01*
X154063815Y-77863815D01*
X153984463Y-77960506D01*
X153925498Y-78070820D01*
X153889188Y-78190518D01*
X153876928Y-78315000D01*
X153876928Y-78980000D01*
X146854803Y-78980000D01*
X142935358Y-75060556D01*
X143053555Y-74963555D01*
X143196639Y-74789206D01*
X143302960Y-74590293D01*
X143368433Y-74374459D01*
X143385000Y-74206249D01*
X143385000Y-73113752D01*
X143368433Y-72945541D01*
X143302960Y-72729707D01*
X143196639Y-72530794D01*
X143053555Y-72356445D01*
X142879206Y-72213361D01*
X142838303Y-72191498D01*
X146692620Y-68337182D01*
X146770518Y-68360812D01*
X146895000Y-68373072D01*
X147745000Y-68373072D01*
X147869482Y-68360812D01*
X147989180Y-68324502D01*
X148099494Y-68265537D01*
X148196185Y-68186185D01*
X148275537Y-68089494D01*
X148334502Y-67979180D01*
X148370812Y-67859482D01*
X148383072Y-67735000D01*
X148383072Y-66885000D01*
X148370812Y-66760518D01*
X148334502Y-66640820D01*
X148332138Y-66636397D01*
X148339265Y-66619191D01*
X148380000Y-66414401D01*
X148380000Y-66205599D01*
X148353028Y-66070000D01*
X151512678Y-66070000D01*
X151550000Y-66073676D01*
X151587322Y-66070000D01*
X151587333Y-66070000D01*
X151698986Y-66059003D01*
X151842247Y-66015546D01*
X151974276Y-65944974D01*
X152090001Y-65850001D01*
X152113803Y-65820998D01*
X153641009Y-64293794D01*
X153670001Y-64270001D01*
X153693795Y-64241008D01*
X153693799Y-64241004D01*
X153764973Y-64154277D01*
X153764974Y-64154276D01*
X153835546Y-64022247D01*
X153871365Y-63904167D01*
X153903188Y-63887157D01*
X154114081Y-63714081D01*
X154130000Y-63694683D01*
X154145920Y-63714081D01*
X154356813Y-63887157D01*
X154597420Y-64015764D01*
X154858494Y-64094960D01*
X155130000Y-64121701D01*
X155401507Y-64094960D01*
X155662581Y-64015764D01*
X155839862Y-63921006D01*
X155997235Y-64112766D01*
X156261423Y-64329579D01*
X156562833Y-64490686D01*
X156889882Y-64589895D01*
X157230000Y-64623394D01*
X157570119Y-64589895D01*
X157897168Y-64490686D01*
X158198578Y-64329579D01*
X158462766Y-64112766D01*
X158679579Y-63848578D01*
X158840686Y-63547168D01*
X158939895Y-63220119D01*
X158965000Y-62965225D01*
X158965000Y-61494775D01*
X158939895Y-61239881D01*
X158840686Y-60912832D01*
X158679579Y-60611422D01*
X158462766Y-60347234D01*
X158198577Y-60130421D01*
X157897167Y-59969314D01*
X157570118Y-59870105D01*
X157230000Y-59836606D01*
X156889881Y-59870105D01*
X156562832Y-59969314D01*
X156261422Y-60130421D01*
X156146000Y-60225145D01*
X156146000Y-60220303D01*
X156146505Y-60123217D01*
X156136474Y-60071383D01*
X156131298Y-60018829D01*
X156117505Y-59973360D01*
X156108481Y-59926728D01*
X156088532Y-59877849D01*
X156073202Y-59827313D01*
X156050805Y-59785412D01*
X156032856Y-59741432D01*
X156003753Y-59697382D01*
X155978860Y-59650810D01*
X155917126Y-59575587D01*
X155803780Y-59436000D01*
X159562433Y-59436000D01*
X161494656Y-61619207D01*
G36*
X133663361Y-74789205D02*
G01*
X133806445Y-74963555D01*
X133866448Y-75012798D01*
X133870997Y-75058985D01*
X133906024Y-75174454D01*
X133914454Y-75202246D01*
X133985026Y-75334276D01*
X133993853Y-75345031D01*
X134079999Y-75450001D01*
X134109003Y-75473804D01*
X134131206Y-75496007D01*
X134155009Y-75525011D01*
X134215973Y-75575043D01*
X132910641Y-75575043D01*
X133426013Y-75059671D01*
X133455011Y-75035873D01*
X133499800Y-74981298D01*
X133549984Y-74920149D01*
X133620556Y-74788119D01*
X133635152Y-74740000D01*
X133635843Y-74737723D01*
X133663361Y-74789205D01*
G37*
X133663361Y-74789205D02*
X133806445Y-74963555D01*
X133866448Y-75012798D01*
X133870997Y-75058985D01*
X133906024Y-75174454D01*
X133914454Y-75202246D01*
X133985026Y-75334276D01*
X133993853Y-75345031D01*
X134079999Y-75450001D01*
X134109003Y-75473804D01*
X134131206Y-75496007D01*
X134155009Y-75525011D01*
X134215973Y-75575043D01*
X132910641Y-75575043D01*
X133426013Y-75059671D01*
X133455011Y-75035873D01*
X133499800Y-74981298D01*
X133549984Y-74920149D01*
X133620556Y-74788119D01*
X133635152Y-74740000D01*
X133635843Y-74737723D01*
X133663361Y-74789205D01*
G36*
X131266445Y-74963555D02*
G01*
X131324709Y-75011371D01*
X131211049Y-75125032D01*
X130820652Y-75125032D01*
X131138289Y-74807395D01*
X131266445Y-74963555D01*
G37*
X131266445Y-74963555D02*
X131324709Y-75011371D01*
X131211049Y-75125032D01*
X130820652Y-75125032D01*
X131138289Y-74807395D01*
X131266445Y-74963555D01*
G36*
X128784710Y-72308629D02*
G01*
X128726446Y-72356445D01*
X128583362Y-72530794D01*
X128477040Y-72729707D01*
X128411567Y-72945541D01*
X128395000Y-73113751D01*
X128395000Y-74206248D01*
X128396251Y-74218948D01*
X128390188Y-74225010D01*
X128143152Y-74225010D01*
X128145000Y-74206249D01*
X128145000Y-73113752D01*
X128128433Y-72945541D01*
X128062960Y-72729707D01*
X127956639Y-72530794D01*
X127813555Y-72356445D01*
X127753552Y-72307202D01*
X127749003Y-72261014D01*
X127705546Y-72117753D01*
X127634974Y-71985724D01*
X127540001Y-71869999D01*
X127511004Y-71846202D01*
X125373782Y-69708981D01*
X125349979Y-69679977D01*
X125234254Y-69585004D01*
X125190602Y-69561671D01*
X125239494Y-69535537D01*
X125336185Y-69456185D01*
X125415537Y-69359494D01*
X125425957Y-69340000D01*
X125816081Y-69340000D01*
X128784710Y-72308629D01*
G37*
X128784710Y-72308629D02*
X128726446Y-72356445D01*
X128583362Y-72530794D01*
X128477040Y-72729707D01*
X128411567Y-72945541D01*
X128395000Y-73113751D01*
X128395000Y-74206248D01*
X128396251Y-74218948D01*
X128390188Y-74225010D01*
X128143152Y-74225010D01*
X128145000Y-74206249D01*
X128145000Y-73113752D01*
X128128433Y-72945541D01*
X128062960Y-72729707D01*
X127956639Y-72530794D01*
X127813555Y-72356445D01*
X127753552Y-72307202D01*
X127749003Y-72261014D01*
X127705546Y-72117753D01*
X127634974Y-71985724D01*
X127540001Y-71869999D01*
X127511004Y-71846202D01*
X125373782Y-69708981D01*
X125349979Y-69679977D01*
X125234254Y-69585004D01*
X125190602Y-69561671D01*
X125239494Y-69535537D01*
X125336185Y-69456185D01*
X125415537Y-69359494D01*
X125425957Y-69340000D01*
X125816081Y-69340000D01*
X128784710Y-72308629D01*
G36*
X136400000Y-69833762D02*
G01*
X136400001Y-72312494D01*
X136346446Y-72356445D01*
X136203362Y-72530794D01*
X136097040Y-72729707D01*
X136031567Y-72945541D01*
X136015000Y-73113751D01*
X136015000Y-74206248D01*
X136016848Y-74225010D01*
X135763152Y-74225010D01*
X135765000Y-74206249D01*
X135765000Y-73113752D01*
X135748433Y-72945541D01*
X135682960Y-72729707D01*
X135576639Y-72530794D01*
X135433555Y-72356445D01*
X135259206Y-72213361D01*
X135060293Y-72107040D01*
X134844459Y-72041567D01*
X134620000Y-72019460D01*
X134395542Y-72041567D01*
X134179708Y-72107040D01*
X133980795Y-72213361D01*
X133806446Y-72356445D01*
X133675010Y-72516601D01*
X133675010Y-69924791D01*
X133992620Y-69607182D01*
X134070518Y-69630812D01*
X134195000Y-69643072D01*
X135045000Y-69643072D01*
X135169482Y-69630812D01*
X135289180Y-69594502D01*
X135399494Y-69535537D01*
X135496185Y-69456185D01*
X135575537Y-69359494D01*
X135634502Y-69249180D01*
X135670812Y-69129482D01*
X135673045Y-69106807D01*
X136400000Y-69833762D01*
G37*
X136400000Y-69833762D02*
X136400001Y-72312494D01*
X136346446Y-72356445D01*
X136203362Y-72530794D01*
X136097040Y-72729707D01*
X136031567Y-72945541D01*
X136015000Y-73113751D01*
X136015000Y-74206248D01*
X136016848Y-74225010D01*
X135763152Y-74225010D01*
X135765000Y-74206249D01*
X135765000Y-73113752D01*
X135748433Y-72945541D01*
X135682960Y-72729707D01*
X135576639Y-72530794D01*
X135433555Y-72356445D01*
X135259206Y-72213361D01*
X135060293Y-72107040D01*
X134844459Y-72041567D01*
X134620000Y-72019460D01*
X134395542Y-72041567D01*
X134179708Y-72107040D01*
X133980795Y-72213361D01*
X133806446Y-72356445D01*
X133675010Y-72516601D01*
X133675010Y-69924791D01*
X133992620Y-69607182D01*
X134070518Y-69630812D01*
X134195000Y-69643072D01*
X135045000Y-69643072D01*
X135169482Y-69630812D01*
X135289180Y-69594502D01*
X135399494Y-69535537D01*
X135496185Y-69456185D01*
X135575537Y-69359494D01*
X135634502Y-69249180D01*
X135670812Y-69129482D01*
X135673045Y-69106807D01*
X136400000Y-69833762D01*
G36*
X141095000Y-73113751D02*
G01*
X141095000Y-73220199D01*
X141023804Y-73149003D01*
X141000001Y-73119999D01*
X140969527Y-73094990D01*
X141096848Y-73094990D01*
X141095000Y-73113751D01*
G37*
X141095000Y-73113751D02*
X141095000Y-73220199D01*
X141023804Y-73149003D01*
X141000001Y-73119999D01*
X140969527Y-73094990D01*
X141096848Y-73094990D01*
X141095000Y-73113751D01*
G36*
X123704710Y-72308629D02*
G01*
X123646446Y-72356445D01*
X123503362Y-72530794D01*
X123397040Y-72729707D01*
X123345382Y-72900000D01*
X119694802Y-72900000D01*
X118675580Y-71880778D01*
X118704999Y-71883676D01*
X118742322Y-71880000D01*
X123276081Y-71880000D01*
X123704710Y-72308629D01*
G37*
X123704710Y-72308629D02*
X123646446Y-72356445D01*
X123503362Y-72530794D01*
X123397040Y-72729707D01*
X123345382Y-72900000D01*
X119694802Y-72900000D01*
X118675580Y-71880778D01*
X118704999Y-71883676D01*
X118742322Y-71880000D01*
X123276081Y-71880000D01*
X123704710Y-72308629D01*
G36*
X141305209Y-71574990D02*
G01*
X139683399Y-71574990D01*
X144188391Y-67070000D01*
X145810198Y-67070000D01*
X141305209Y-71574990D01*
G37*
X141305209Y-71574990D02*
X139683399Y-71574990D01*
X144188391Y-67070000D01*
X145810198Y-67070000D01*
X141305209Y-71574990D01*
G36*
X141414001Y-60578555D02*
G01*
X141414001Y-60745854D01*
X141203187Y-60572843D01*
X140962580Y-60444236D01*
X140701506Y-60365040D01*
X140430000Y-60338299D01*
X140158493Y-60365040D01*
X139897419Y-60444236D01*
X139664114Y-60568940D01*
X139631185Y-60528815D01*
X139534494Y-60449463D01*
X139424180Y-60390498D01*
X139304482Y-60354188D01*
X139180000Y-60341928D01*
X137680000Y-60341928D01*
X137567504Y-60353008D01*
X137562766Y-60347234D01*
X137298577Y-60130421D01*
X136997167Y-59969314D01*
X136670118Y-59870105D01*
X136330000Y-59836606D01*
X135989881Y-59870105D01*
X135662832Y-59969314D01*
X135361422Y-60130421D01*
X135097234Y-60347234D01*
X134880421Y-60611423D01*
X134719314Y-60912833D01*
X134620105Y-61239882D01*
X134595000Y-61494776D01*
X134595000Y-62965225D01*
X134620105Y-63220119D01*
X134719315Y-63547168D01*
X134880422Y-63848578D01*
X135097235Y-64112766D01*
X135361423Y-64329579D01*
X135662833Y-64490686D01*
X135989882Y-64589895D01*
X136330000Y-64623394D01*
X136670119Y-64589895D01*
X136997168Y-64490686D01*
X137298578Y-64329579D01*
X137562766Y-64112766D01*
X137567504Y-64106992D01*
X137680000Y-64118072D01*
X138967126Y-64118072D01*
X137265199Y-65820000D01*
X135359067Y-65820000D01*
X135295711Y-65756644D01*
X135122098Y-65640640D01*
X134929191Y-65560735D01*
X134724401Y-65520000D01*
X134515599Y-65520000D01*
X134310809Y-65560735D01*
X134117902Y-65640640D01*
X133944289Y-65756644D01*
X133796644Y-65904289D01*
X133680640Y-66077902D01*
X133600735Y-66270809D01*
X133560000Y-66475599D01*
X133560000Y-66684401D01*
X133600735Y-66889191D01*
X133679771Y-67080000D01*
X133600735Y-67270809D01*
X133560000Y-67475599D01*
X133560000Y-67684401D01*
X133600735Y-67889191D01*
X133605167Y-67899890D01*
X133520724Y-67945026D01*
X133404999Y-68039999D01*
X133381201Y-68068997D01*
X132404012Y-69046186D01*
X132375009Y-69069989D01*
X132333966Y-69120001D01*
X132280036Y-69185714D01*
X132245674Y-69250000D01*
X132209464Y-69317744D01*
X132166007Y-69461005D01*
X132155010Y-69572658D01*
X132155010Y-69572668D01*
X132151334Y-69609990D01*
X132155010Y-69647313D01*
X132155010Y-71410208D01*
X127813804Y-67069003D01*
X127790001Y-67039999D01*
X127674276Y-66945026D01*
X127542247Y-66874454D01*
X127398986Y-66830997D01*
X127287333Y-66820000D01*
X127287322Y-66820000D01*
X127250000Y-66816324D01*
X127212678Y-66820000D01*
X125493028Y-66820000D01*
X125520000Y-66684401D01*
X125520000Y-66594801D01*
X127864358Y-64250444D01*
X127878985Y-64249003D01*
X128022246Y-64205546D01*
X128154275Y-64134974D01*
X128270001Y-64040001D01*
X128311234Y-63989758D01*
X128503188Y-63887157D01*
X128714081Y-63714081D01*
X128730000Y-63694683D01*
X128745920Y-63714081D01*
X128956813Y-63887157D01*
X129197420Y-64015764D01*
X129458494Y-64094960D01*
X129730000Y-64121701D01*
X130001507Y-64094960D01*
X130262581Y-64015764D01*
X130439862Y-63921006D01*
X130597235Y-64112766D01*
X130861423Y-64329579D01*
X131162833Y-64490686D01*
X131489882Y-64589895D01*
X131830000Y-64623394D01*
X132170119Y-64589895D01*
X132497168Y-64490686D01*
X132798578Y-64329579D01*
X133062766Y-64112766D01*
X133279579Y-63848578D01*
X133440686Y-63547168D01*
X133539895Y-63220119D01*
X133565000Y-62965225D01*
X133565000Y-61494775D01*
X133539895Y-61239881D01*
X133440686Y-60912832D01*
X133279579Y-60611422D01*
X133062766Y-60347234D01*
X132798577Y-60130421D01*
X132497167Y-59969314D01*
X132170118Y-59870105D01*
X131830000Y-59836606D01*
X131489881Y-59870105D01*
X131162832Y-59969314D01*
X130861422Y-60130421D01*
X130749909Y-60221937D01*
X130750893Y-60211215D01*
X130740766Y-60114956D01*
X130731298Y-60018829D01*
X130730310Y-60015572D01*
X130729953Y-60012179D01*
X130701246Y-59919762D01*
X130673202Y-59827313D01*
X130671596Y-59824309D01*
X130670585Y-59821053D01*
X130624450Y-59736103D01*
X130578860Y-59650810D01*
X130576696Y-59648173D01*
X130575071Y-59645181D01*
X130513298Y-59570922D01*
X130451896Y-59496104D01*
X130449259Y-59493940D01*
X130447082Y-59491323D01*
X130378750Y-59436000D01*
X140486231Y-59436000D01*
X141414001Y-60578555D01*
G37*
X141414001Y-60578555D02*
X141414001Y-60745854D01*
X141203187Y-60572843D01*
X140962580Y-60444236D01*
X140701506Y-60365040D01*
X140430000Y-60338299D01*
X140158493Y-60365040D01*
X139897419Y-60444236D01*
X139664114Y-60568940D01*
X139631185Y-60528815D01*
X139534494Y-60449463D01*
X139424180Y-60390498D01*
X139304482Y-60354188D01*
X139180000Y-60341928D01*
X137680000Y-60341928D01*
X137567504Y-60353008D01*
X137562766Y-60347234D01*
X137298577Y-60130421D01*
X136997167Y-59969314D01*
X136670118Y-59870105D01*
X136330000Y-59836606D01*
X135989881Y-59870105D01*
X135662832Y-59969314D01*
X135361422Y-60130421D01*
X135097234Y-60347234D01*
X134880421Y-60611423D01*
X134719314Y-60912833D01*
X134620105Y-61239882D01*
X134595000Y-61494776D01*
X134595000Y-62965225D01*
X134620105Y-63220119D01*
X134719315Y-63547168D01*
X134880422Y-63848578D01*
X135097235Y-64112766D01*
X135361423Y-64329579D01*
X135662833Y-64490686D01*
X135989882Y-64589895D01*
X136330000Y-64623394D01*
X136670119Y-64589895D01*
X136997168Y-64490686D01*
X137298578Y-64329579D01*
X137562766Y-64112766D01*
X137567504Y-64106992D01*
X137680000Y-64118072D01*
X138967126Y-64118072D01*
X137265199Y-65820000D01*
X135359067Y-65820000D01*
X135295711Y-65756644D01*
X135122098Y-65640640D01*
X134929191Y-65560735D01*
X134724401Y-65520000D01*
X134515599Y-65520000D01*
X134310809Y-65560735D01*
X134117902Y-65640640D01*
X133944289Y-65756644D01*
X133796644Y-65904289D01*
X133680640Y-66077902D01*
X133600735Y-66270809D01*
X133560000Y-66475599D01*
X133560000Y-66684401D01*
X133600735Y-66889191D01*
X133679771Y-67080000D01*
X133600735Y-67270809D01*
X133560000Y-67475599D01*
X133560000Y-67684401D01*
X133600735Y-67889191D01*
X133605167Y-67899890D01*
X133520724Y-67945026D01*
X133404999Y-68039999D01*
X133381201Y-68068997D01*
X132404012Y-69046186D01*
X132375009Y-69069989D01*
X132333966Y-69120001D01*
X132280036Y-69185714D01*
X132245674Y-69250000D01*
X132209464Y-69317744D01*
X132166007Y-69461005D01*
X132155010Y-69572658D01*
X132155010Y-69572668D01*
X132151334Y-69609990D01*
X132155010Y-69647313D01*
X132155010Y-71410208D01*
X127813804Y-67069003D01*
X127790001Y-67039999D01*
X127674276Y-66945026D01*
X127542247Y-66874454D01*
X127398986Y-66830997D01*
X127287333Y-66820000D01*
X127287322Y-66820000D01*
X127250000Y-66816324D01*
X127212678Y-66820000D01*
X125493028Y-66820000D01*
X125520000Y-66684401D01*
X125520000Y-66594801D01*
X127864358Y-64250444D01*
X127878985Y-64249003D01*
X128022246Y-64205546D01*
X128154275Y-64134974D01*
X128270001Y-64040001D01*
X128311234Y-63989758D01*
X128503188Y-63887157D01*
X128714081Y-63714081D01*
X128730000Y-63694683D01*
X128745920Y-63714081D01*
X128956813Y-63887157D01*
X129197420Y-64015764D01*
X129458494Y-64094960D01*
X129730000Y-64121701D01*
X130001507Y-64094960D01*
X130262581Y-64015764D01*
X130439862Y-63921006D01*
X130597235Y-64112766D01*
X130861423Y-64329579D01*
X131162833Y-64490686D01*
X131489882Y-64589895D01*
X131830000Y-64623394D01*
X132170119Y-64589895D01*
X132497168Y-64490686D01*
X132798578Y-64329579D01*
X133062766Y-64112766D01*
X133279579Y-63848578D01*
X133440686Y-63547168D01*
X133539895Y-63220119D01*
X133565000Y-62965225D01*
X133565000Y-61494775D01*
X133539895Y-61239881D01*
X133440686Y-60912832D01*
X133279579Y-60611422D01*
X133062766Y-60347234D01*
X132798577Y-60130421D01*
X132497167Y-59969314D01*
X132170118Y-59870105D01*
X131830000Y-59836606D01*
X131489881Y-59870105D01*
X131162832Y-59969314D01*
X130861422Y-60130421D01*
X130749909Y-60221937D01*
X130750893Y-60211215D01*
X130740766Y-60114956D01*
X130731298Y-60018829D01*
X130730310Y-60015572D01*
X130729953Y-60012179D01*
X130701246Y-59919762D01*
X130673202Y-59827313D01*
X130671596Y-59824309D01*
X130670585Y-59821053D01*
X130624450Y-59736103D01*
X130578860Y-59650810D01*
X130576696Y-59648173D01*
X130575071Y-59645181D01*
X130513298Y-59570922D01*
X130451896Y-59496104D01*
X130449259Y-59493940D01*
X130447082Y-59491323D01*
X130378750Y-59436000D01*
X140486231Y-59436000D01*
X141414001Y-60578555D01*
G36*
X114270000Y-63894206D02*
G01*
X114270000Y-64732677D01*
X114266324Y-64770000D01*
X114270000Y-64807322D01*
X114270000Y-64807332D01*
X114280997Y-64918985D01*
X114317312Y-65038702D01*
X114324454Y-65062246D01*
X114395026Y-65194276D01*
X114404319Y-65205599D01*
X114489999Y-65310001D01*
X114519003Y-65333804D01*
X115780000Y-66594802D01*
X115780000Y-66684401D01*
X115820735Y-66889191D01*
X115899771Y-67080000D01*
X115820735Y-67270809D01*
X115780000Y-67475599D01*
X115780000Y-67684401D01*
X115820735Y-67889191D01*
X115827862Y-67906397D01*
X115825498Y-67910820D01*
X115789188Y-68030518D01*
X115776928Y-68155000D01*
X115776928Y-68982127D01*
X113790000Y-66995199D01*
X113790000Y-66242324D01*
X113793676Y-66205001D01*
X113790000Y-66167678D01*
X113790000Y-66167669D01*
X113779003Y-66056016D01*
X113735546Y-65912755D01*
X113664974Y-65780726D01*
X113570001Y-65665001D01*
X113540997Y-65641198D01*
X113428802Y-65529003D01*
X113404999Y-65499999D01*
X113289274Y-65405026D01*
X113157245Y-65334454D01*
X113013984Y-65290997D01*
X112902331Y-65280000D01*
X112902320Y-65280000D01*
X112864998Y-65276324D01*
X112827676Y-65280000D01*
X111632331Y-65280000D01*
X111594998Y-65276323D01*
X111557665Y-65280000D01*
X111446012Y-65290997D01*
X111302751Y-65334454D01*
X111170722Y-65405026D01*
X111054997Y-65499999D01*
X111031198Y-65528998D01*
X110498997Y-66061200D01*
X110469999Y-66084998D01*
X110446201Y-66113996D01*
X110446200Y-66113997D01*
X110375025Y-66200723D01*
X110304453Y-66332753D01*
X110297868Y-66354463D01*
X110264558Y-66464276D01*
X110260997Y-66476014D01*
X110246323Y-66624999D01*
X110250000Y-66662331D01*
X110249999Y-71123716D01*
X110246323Y-71161039D01*
X110249999Y-71198361D01*
X110249999Y-71198371D01*
X110260996Y-71310024D01*
X110269884Y-71339324D01*
X110236000Y-71349602D01*
X110236000Y-64476343D01*
X110262833Y-64490686D01*
X110589882Y-64589895D01*
X110930000Y-64623394D01*
X111270119Y-64589895D01*
X111597168Y-64490686D01*
X111898578Y-64329579D01*
X112162766Y-64112766D01*
X112167504Y-64106992D01*
X112280000Y-64118072D01*
X113780000Y-64118072D01*
X113904482Y-64105812D01*
X114024180Y-64069502D01*
X114134494Y-64010537D01*
X114231185Y-63931185D01*
X114264115Y-63891060D01*
X114270000Y-63894206D01*
G37*
X114270000Y-63894206D02*
X114270000Y-64732677D01*
X114266324Y-64770000D01*
X114270000Y-64807322D01*
X114270000Y-64807332D01*
X114280997Y-64918985D01*
X114317312Y-65038702D01*
X114324454Y-65062246D01*
X114395026Y-65194276D01*
X114404319Y-65205599D01*
X114489999Y-65310001D01*
X114519003Y-65333804D01*
X115780000Y-66594802D01*
X115780000Y-66684401D01*
X115820735Y-66889191D01*
X115899771Y-67080000D01*
X115820735Y-67270809D01*
X115780000Y-67475599D01*
X115780000Y-67684401D01*
X115820735Y-67889191D01*
X115827862Y-67906397D01*
X115825498Y-67910820D01*
X115789188Y-68030518D01*
X115776928Y-68155000D01*
X115776928Y-68982127D01*
X113790000Y-66995199D01*
X113790000Y-66242324D01*
X113793676Y-66205001D01*
X113790000Y-66167678D01*
X113790000Y-66167669D01*
X113779003Y-66056016D01*
X113735546Y-65912755D01*
X113664974Y-65780726D01*
X113570001Y-65665001D01*
X113540997Y-65641198D01*
X113428802Y-65529003D01*
X113404999Y-65499999D01*
X113289274Y-65405026D01*
X113157245Y-65334454D01*
X113013984Y-65290997D01*
X112902331Y-65280000D01*
X112902320Y-65280000D01*
X112864998Y-65276324D01*
X112827676Y-65280000D01*
X111632331Y-65280000D01*
X111594998Y-65276323D01*
X111557665Y-65280000D01*
X111446012Y-65290997D01*
X111302751Y-65334454D01*
X111170722Y-65405026D01*
X111054997Y-65499999D01*
X111031198Y-65528998D01*
X110498997Y-66061200D01*
X110469999Y-66084998D01*
X110446201Y-66113996D01*
X110446200Y-66113997D01*
X110375025Y-66200723D01*
X110304453Y-66332753D01*
X110297868Y-66354463D01*
X110264558Y-66464276D01*
X110260997Y-66476014D01*
X110246323Y-66624999D01*
X110250000Y-66662331D01*
X110249999Y-71123716D01*
X110246323Y-71161039D01*
X110249999Y-71198361D01*
X110249999Y-71198371D01*
X110260996Y-71310024D01*
X110269884Y-71339324D01*
X110236000Y-71349602D01*
X110236000Y-64476343D01*
X110262833Y-64490686D01*
X110589882Y-64589895D01*
X110930000Y-64623394D01*
X111270119Y-64589895D01*
X111597168Y-64490686D01*
X111898578Y-64329579D01*
X112162766Y-64112766D01*
X112167504Y-64106992D01*
X112280000Y-64118072D01*
X113780000Y-64118072D01*
X113904482Y-64105812D01*
X114024180Y-64069502D01*
X114134494Y-64010537D01*
X114231185Y-63931185D01*
X114264115Y-63891060D01*
X114270000Y-63894206D01*
G36*
X154114001Y-60578555D02*
G01*
X154114001Y-60745854D01*
X153903187Y-60572843D01*
X153662580Y-60444236D01*
X153401506Y-60365040D01*
X153130000Y-60338299D01*
X152858493Y-60365040D01*
X152597419Y-60444236D01*
X152364114Y-60568940D01*
X152331185Y-60528815D01*
X152234494Y-60449463D01*
X152124180Y-60390498D01*
X152004482Y-60354188D01*
X151880000Y-60341928D01*
X150380000Y-60341928D01*
X150267504Y-60353008D01*
X150262766Y-60347234D01*
X149998577Y-60130421D01*
X149697167Y-59969314D01*
X149370118Y-59870105D01*
X149030000Y-59836606D01*
X148689881Y-59870105D01*
X148362832Y-59969314D01*
X148061422Y-60130421D01*
X147797234Y-60347234D01*
X147580421Y-60611423D01*
X147419314Y-60912833D01*
X147320105Y-61239882D01*
X147295000Y-61494776D01*
X147295000Y-62965225D01*
X147320105Y-63220119D01*
X147419315Y-63547168D01*
X147580422Y-63848578D01*
X147797235Y-64112766D01*
X148061423Y-64329579D01*
X148362833Y-64490686D01*
X148558366Y-64550000D01*
X148059067Y-64550000D01*
X147995711Y-64486644D01*
X147822098Y-64370640D01*
X147629191Y-64290735D01*
X147424401Y-64250000D01*
X147215599Y-64250000D01*
X147010809Y-64290735D01*
X146817902Y-64370640D01*
X146644289Y-64486644D01*
X146496644Y-64634289D01*
X146380640Y-64807902D01*
X146300735Y-65000809D01*
X146260000Y-65205599D01*
X146260000Y-65414401D01*
X146286972Y-65550000D01*
X143910911Y-65550000D01*
X143873588Y-65546324D01*
X143836265Y-65550000D01*
X143836256Y-65550000D01*
X143724603Y-65560997D01*
X143588621Y-65602246D01*
X143581342Y-65604454D01*
X143449312Y-65675026D01*
X143365672Y-65743668D01*
X143333588Y-65769999D01*
X143309790Y-65798997D01*
X137920000Y-71188786D01*
X137920000Y-69556293D01*
X137923677Y-69518960D01*
X137909003Y-69369974D01*
X137865546Y-69226713D01*
X137794974Y-69094684D01*
X137723799Y-69007957D01*
X137700001Y-68978959D01*
X137671004Y-68955162D01*
X136055841Y-67340000D01*
X137542678Y-67340000D01*
X137580000Y-67343676D01*
X137617322Y-67340000D01*
X137617333Y-67340000D01*
X137728986Y-67329003D01*
X137872247Y-67285546D01*
X138004276Y-67214974D01*
X138120001Y-67120001D01*
X138143804Y-67090997D01*
X140941004Y-64293798D01*
X140970001Y-64270001D01*
X141064974Y-64154276D01*
X141135546Y-64022247D01*
X141171365Y-63904167D01*
X141203188Y-63887157D01*
X141414081Y-63714081D01*
X141430000Y-63694683D01*
X141445920Y-63714081D01*
X141656813Y-63887157D01*
X141897420Y-64015764D01*
X142158494Y-64094960D01*
X142430000Y-64121701D01*
X142701507Y-64094960D01*
X142962581Y-64015764D01*
X143139862Y-63921006D01*
X143297235Y-64112766D01*
X143561423Y-64329579D01*
X143862833Y-64490686D01*
X144189882Y-64589895D01*
X144530000Y-64623394D01*
X144870119Y-64589895D01*
X145197168Y-64490686D01*
X145498578Y-64329579D01*
X145762766Y-64112766D01*
X145979579Y-63848578D01*
X146140686Y-63547168D01*
X146239895Y-63220119D01*
X146265000Y-62965225D01*
X146265000Y-61494775D01*
X146239895Y-61239881D01*
X146140686Y-60912832D01*
X145979579Y-60611422D01*
X145762766Y-60347234D01*
X145498577Y-60130421D01*
X145197167Y-59969314D01*
X144870118Y-59870105D01*
X144530000Y-59836606D01*
X144189881Y-59870105D01*
X143862832Y-59969314D01*
X143561422Y-60130421D01*
X143446000Y-60225145D01*
X143446000Y-60220303D01*
X143446505Y-60123217D01*
X143436474Y-60071383D01*
X143431298Y-60018829D01*
X143417505Y-59973360D01*
X143408481Y-59926728D01*
X143388532Y-59877849D01*
X143373202Y-59827313D01*
X143350805Y-59785412D01*
X143332856Y-59741432D01*
X143303753Y-59697382D01*
X143278860Y-59650810D01*
X143217126Y-59575587D01*
X143103780Y-59436000D01*
X153186231Y-59436000D01*
X154114001Y-60578555D01*
G37*
X154114001Y-60578555D02*
X154114001Y-60745854D01*
X153903187Y-60572843D01*
X153662580Y-60444236D01*
X153401506Y-60365040D01*
X153130000Y-60338299D01*
X152858493Y-60365040D01*
X152597419Y-60444236D01*
X152364114Y-60568940D01*
X152331185Y-60528815D01*
X152234494Y-60449463D01*
X152124180Y-60390498D01*
X152004482Y-60354188D01*
X151880000Y-60341928D01*
X150380000Y-60341928D01*
X150267504Y-60353008D01*
X150262766Y-60347234D01*
X149998577Y-60130421D01*
X149697167Y-59969314D01*
X149370118Y-59870105D01*
X149030000Y-59836606D01*
X148689881Y-59870105D01*
X148362832Y-59969314D01*
X148061422Y-60130421D01*
X147797234Y-60347234D01*
X147580421Y-60611423D01*
X147419314Y-60912833D01*
X147320105Y-61239882D01*
X147295000Y-61494776D01*
X147295000Y-62965225D01*
X147320105Y-63220119D01*
X147419315Y-63547168D01*
X147580422Y-63848578D01*
X147797235Y-64112766D01*
X148061423Y-64329579D01*
X148362833Y-64490686D01*
X148558366Y-64550000D01*
X148059067Y-64550000D01*
X147995711Y-64486644D01*
X147822098Y-64370640D01*
X147629191Y-64290735D01*
X147424401Y-64250000D01*
X147215599Y-64250000D01*
X147010809Y-64290735D01*
X146817902Y-64370640D01*
X146644289Y-64486644D01*
X146496644Y-64634289D01*
X146380640Y-64807902D01*
X146300735Y-65000809D01*
X146260000Y-65205599D01*
X146260000Y-65414401D01*
X146286972Y-65550000D01*
X143910911Y-65550000D01*
X143873588Y-65546324D01*
X143836265Y-65550000D01*
X143836256Y-65550000D01*
X143724603Y-65560997D01*
X143588621Y-65602246D01*
X143581342Y-65604454D01*
X143449312Y-65675026D01*
X143365672Y-65743668D01*
X143333588Y-65769999D01*
X143309790Y-65798997D01*
X137920000Y-71188786D01*
X137920000Y-69556293D01*
X137923677Y-69518960D01*
X137909003Y-69369974D01*
X137865546Y-69226713D01*
X137794974Y-69094684D01*
X137723799Y-69007957D01*
X137700001Y-68978959D01*
X137671004Y-68955162D01*
X136055841Y-67340000D01*
X137542678Y-67340000D01*
X137580000Y-67343676D01*
X137617322Y-67340000D01*
X137617333Y-67340000D01*
X137728986Y-67329003D01*
X137872247Y-67285546D01*
X138004276Y-67214974D01*
X138120001Y-67120001D01*
X138143804Y-67090997D01*
X140941004Y-64293798D01*
X140970001Y-64270001D01*
X141064974Y-64154276D01*
X141135546Y-64022247D01*
X141171365Y-63904167D01*
X141203188Y-63887157D01*
X141414081Y-63714081D01*
X141430000Y-63694683D01*
X141445920Y-63714081D01*
X141656813Y-63887157D01*
X141897420Y-64015764D01*
X142158494Y-64094960D01*
X142430000Y-64121701D01*
X142701507Y-64094960D01*
X142962581Y-64015764D01*
X143139862Y-63921006D01*
X143297235Y-64112766D01*
X143561423Y-64329579D01*
X143862833Y-64490686D01*
X144189882Y-64589895D01*
X144530000Y-64623394D01*
X144870119Y-64589895D01*
X145197168Y-64490686D01*
X145498578Y-64329579D01*
X145762766Y-64112766D01*
X145979579Y-63848578D01*
X146140686Y-63547168D01*
X146239895Y-63220119D01*
X146265000Y-62965225D01*
X146265000Y-61494775D01*
X146239895Y-61239881D01*
X146140686Y-60912832D01*
X145979579Y-60611422D01*
X145762766Y-60347234D01*
X145498577Y-60130421D01*
X145197167Y-59969314D01*
X144870118Y-59870105D01*
X144530000Y-59836606D01*
X144189881Y-59870105D01*
X143862832Y-59969314D01*
X143561422Y-60130421D01*
X143446000Y-60225145D01*
X143446000Y-60220303D01*
X143446505Y-60123217D01*
X143436474Y-60071383D01*
X143431298Y-60018829D01*
X143417505Y-59973360D01*
X143408481Y-59926728D01*
X143388532Y-59877849D01*
X143373202Y-59827313D01*
X143350805Y-59785412D01*
X143332856Y-59741432D01*
X143303753Y-59697382D01*
X143278860Y-59650810D01*
X143217126Y-59575587D01*
X143103780Y-59436000D01*
X153186231Y-59436000D01*
X154114001Y-60578555D01*
G36*
X119146238Y-70360000D02*
G01*
X119019802Y-70360000D01*
X117867182Y-69207380D01*
X117890812Y-69129482D01*
X117893045Y-69106807D01*
X119146238Y-70360000D01*
G37*
X119146238Y-70360000D02*
X119019802Y-70360000D01*
X117867182Y-69207380D01*
X117890812Y-69129482D01*
X117893045Y-69106807D01*
X119146238Y-70360000D01*
G36*
X120340809Y-69329265D02*
G01*
X120545599Y-69370000D01*
X120635199Y-69370000D01*
X121175187Y-69909989D01*
X120845831Y-69909989D01*
X120211577Y-69275735D01*
X120340809Y-69329265D01*
G37*
X120340809Y-69329265D02*
X120545599Y-69370000D01*
X120635199Y-69370000D01*
X121175187Y-69909989D01*
X120845831Y-69909989D01*
X120211577Y-69275735D01*
X120340809Y-69329265D01*
G36*
X124980000Y-64118072D02*
G01*
X125847126Y-64118072D01*
X124445199Y-65520000D01*
X124355599Y-65520000D01*
X124150809Y-65560735D01*
X123957902Y-65640640D01*
X123784289Y-65756644D01*
X123636644Y-65904289D01*
X123520640Y-66077902D01*
X123440735Y-66270809D01*
X123400000Y-66475599D01*
X123400000Y-66684401D01*
X123440735Y-66889191D01*
X123519771Y-67080000D01*
X123440735Y-67270809D01*
X123400000Y-67475599D01*
X123400000Y-67684401D01*
X123440735Y-67889191D01*
X123447862Y-67906397D01*
X123445498Y-67910820D01*
X123409188Y-68030518D01*
X123396928Y-68155000D01*
X123396928Y-69005000D01*
X123409188Y-69129482D01*
X123445498Y-69249180D01*
X123504463Y-69359494D01*
X123583815Y-69456185D01*
X123588437Y-69459978D01*
X122874780Y-69459978D01*
X121710000Y-68295199D01*
X121710000Y-68205599D01*
X121669265Y-68000809D01*
X121662138Y-67983603D01*
X121664502Y-67979180D01*
X121700812Y-67859482D01*
X121713072Y-67735000D01*
X121713072Y-67683768D01*
X122603133Y-66793708D01*
X122641896Y-66761896D01*
X122768860Y-66607190D01*
X122863202Y-66430687D01*
X122921298Y-66239171D01*
X122936000Y-66089902D01*
X122940915Y-66040000D01*
X122936000Y-65990098D01*
X122936000Y-64476343D01*
X122962833Y-64490686D01*
X123289882Y-64589895D01*
X123630000Y-64623394D01*
X123970119Y-64589895D01*
X124297168Y-64490686D01*
X124598578Y-64329579D01*
X124862766Y-64112766D01*
X124867504Y-64106992D01*
X124980000Y-64118072D01*
G37*
X124980000Y-64118072D02*
X125847126Y-64118072D01*
X124445199Y-65520000D01*
X124355599Y-65520000D01*
X124150809Y-65560735D01*
X123957902Y-65640640D01*
X123784289Y-65756644D01*
X123636644Y-65904289D01*
X123520640Y-66077902D01*
X123440735Y-66270809D01*
X123400000Y-66475599D01*
X123400000Y-66684401D01*
X123440735Y-66889191D01*
X123519771Y-67080000D01*
X123440735Y-67270809D01*
X123400000Y-67475599D01*
X123400000Y-67684401D01*
X123440735Y-67889191D01*
X123447862Y-67906397D01*
X123445498Y-67910820D01*
X123409188Y-68030518D01*
X123396928Y-68155000D01*
X123396928Y-69005000D01*
X123409188Y-69129482D01*
X123445498Y-69249180D01*
X123504463Y-69359494D01*
X123583815Y-69456185D01*
X123588437Y-69459978D01*
X122874780Y-69459978D01*
X121710000Y-68295199D01*
X121710000Y-68205599D01*
X121669265Y-68000809D01*
X121662138Y-67983603D01*
X121664502Y-67979180D01*
X121700812Y-67859482D01*
X121713072Y-67735000D01*
X121713072Y-67683768D01*
X122603133Y-66793708D01*
X122641896Y-66761896D01*
X122768860Y-66607190D01*
X122863202Y-66430687D01*
X122921298Y-66239171D01*
X122936000Y-66089902D01*
X122940915Y-66040000D01*
X122936000Y-65990098D01*
X122936000Y-64476343D01*
X122962833Y-64490686D01*
X123289882Y-64589895D01*
X123630000Y-64623394D01*
X123970119Y-64589895D01*
X124297168Y-64490686D01*
X124598578Y-64329579D01*
X124862766Y-64112766D01*
X124867504Y-64106992D01*
X124980000Y-64118072D01*
G36*
X120904001Y-65619158D02*
G01*
X120276232Y-66246928D01*
X120225000Y-66246928D01*
X120100518Y-66259188D01*
X119980820Y-66295498D01*
X119870506Y-66354463D01*
X119773815Y-66433815D01*
X119694463Y-66530506D01*
X119635498Y-66640820D01*
X119599188Y-66760518D01*
X119586928Y-66885000D01*
X119586928Y-67735000D01*
X119599188Y-67859482D01*
X119635498Y-67979180D01*
X119637862Y-67983603D01*
X119630735Y-68000809D01*
X119590000Y-68205599D01*
X119590000Y-68414401D01*
X119630735Y-68619191D01*
X119684265Y-68748424D01*
X118004844Y-67069003D01*
X117981041Y-67039999D01*
X117865316Y-66945026D01*
X117841427Y-66932257D01*
X117859265Y-66889191D01*
X117900000Y-66684401D01*
X117900000Y-66475599D01*
X117859265Y-66270809D01*
X117779360Y-66077902D01*
X117663356Y-65904289D01*
X117515711Y-65756644D01*
X117342098Y-65640640D01*
X117149191Y-65560735D01*
X116944401Y-65520000D01*
X116854802Y-65520000D01*
X115790000Y-64455199D01*
X115790000Y-63894206D01*
X115803188Y-63887157D01*
X116014081Y-63714081D01*
X116030000Y-63694683D01*
X116045920Y-63714081D01*
X116256813Y-63887157D01*
X116497420Y-64015764D01*
X116758494Y-64094960D01*
X117030000Y-64121701D01*
X117301507Y-64094960D01*
X117562581Y-64015764D01*
X117739862Y-63921006D01*
X117897235Y-64112766D01*
X118161423Y-64329579D01*
X118462833Y-64490686D01*
X118789882Y-64589895D01*
X119130000Y-64623394D01*
X119470119Y-64589895D01*
X119797168Y-64490686D01*
X120098578Y-64329579D01*
X120362766Y-64112766D01*
X120579579Y-63848578D01*
X120740686Y-63547168D01*
X120839895Y-63220119D01*
X120865000Y-62965225D01*
X120865000Y-61494775D01*
X120839895Y-61239881D01*
X120740686Y-60912832D01*
X120579579Y-60611422D01*
X120362766Y-60347234D01*
X120098577Y-60130421D01*
X119797167Y-59969314D01*
X119470118Y-59870105D01*
X119130000Y-59836606D01*
X118789881Y-59870105D01*
X118462832Y-59969314D01*
X118161422Y-60130421D01*
X118046000Y-60225145D01*
X118046000Y-60220303D01*
X118046505Y-60123217D01*
X118036474Y-60071383D01*
X118031298Y-60018829D01*
X118017505Y-59973360D01*
X118008481Y-59926728D01*
X117988532Y-59877849D01*
X117973202Y-59827313D01*
X117950805Y-59785412D01*
X117932856Y-59741432D01*
X117903753Y-59697382D01*
X117878860Y-59650810D01*
X117817126Y-59575587D01*
X117703780Y-59436000D01*
X120904000Y-59436000D01*
X120904001Y-65619158D01*
G37*
X120904001Y-65619158D02*
X120276232Y-66246928D01*
X120225000Y-66246928D01*
X120100518Y-66259188D01*
X119980820Y-66295498D01*
X119870506Y-66354463D01*
X119773815Y-66433815D01*
X119694463Y-66530506D01*
X119635498Y-66640820D01*
X119599188Y-66760518D01*
X119586928Y-66885000D01*
X119586928Y-67735000D01*
X119599188Y-67859482D01*
X119635498Y-67979180D01*
X119637862Y-67983603D01*
X119630735Y-68000809D01*
X119590000Y-68205599D01*
X119590000Y-68414401D01*
X119630735Y-68619191D01*
X119684265Y-68748424D01*
X118004844Y-67069003D01*
X117981041Y-67039999D01*
X117865316Y-66945026D01*
X117841427Y-66932257D01*
X117859265Y-66889191D01*
X117900000Y-66684401D01*
X117900000Y-66475599D01*
X117859265Y-66270809D01*
X117779360Y-66077902D01*
X117663356Y-65904289D01*
X117515711Y-65756644D01*
X117342098Y-65640640D01*
X117149191Y-65560735D01*
X116944401Y-65520000D01*
X116854802Y-65520000D01*
X115790000Y-64455199D01*
X115790000Y-63894206D01*
X115803188Y-63887157D01*
X116014081Y-63714081D01*
X116030000Y-63694683D01*
X116045920Y-63714081D01*
X116256813Y-63887157D01*
X116497420Y-64015764D01*
X116758494Y-64094960D01*
X117030000Y-64121701D01*
X117301507Y-64094960D01*
X117562581Y-64015764D01*
X117739862Y-63921006D01*
X117897235Y-64112766D01*
X118161423Y-64329579D01*
X118462833Y-64490686D01*
X118789882Y-64589895D01*
X119130000Y-64623394D01*
X119470119Y-64589895D01*
X119797168Y-64490686D01*
X120098578Y-64329579D01*
X120362766Y-64112766D01*
X120579579Y-63848578D01*
X120740686Y-63547168D01*
X120839895Y-63220119D01*
X120865000Y-62965225D01*
X120865000Y-61494775D01*
X120839895Y-61239881D01*
X120740686Y-60912832D01*
X120579579Y-60611422D01*
X120362766Y-60347234D01*
X120098577Y-60130421D01*
X119797167Y-59969314D01*
X119470118Y-59870105D01*
X119130000Y-59836606D01*
X118789881Y-59870105D01*
X118462832Y-59969314D01*
X118161422Y-60130421D01*
X118046000Y-60225145D01*
X118046000Y-60220303D01*
X118046505Y-60123217D01*
X118036474Y-60071383D01*
X118031298Y-60018829D01*
X118017505Y-59973360D01*
X118008481Y-59926728D01*
X117988532Y-59877849D01*
X117973202Y-59827313D01*
X117950805Y-59785412D01*
X117932856Y-59741432D01*
X117903753Y-59697382D01*
X117878860Y-59650810D01*
X117817126Y-59575587D01*
X117703780Y-59436000D01*
X120904000Y-59436000D01*
X120904001Y-65619158D01*
G36*
X150380000Y-64118072D02*
G01*
X151667126Y-64118072D01*
X151235199Y-64550000D01*
X149501635Y-64550000D01*
X149697168Y-64490686D01*
X149998578Y-64329579D01*
X150262766Y-64112766D01*
X150267504Y-64106992D01*
X150380000Y-64118072D01*
G37*
X150380000Y-64118072D02*
X151667126Y-64118072D01*
X151235199Y-64550000D01*
X149501635Y-64550000D01*
X149697168Y-64490686D01*
X149998578Y-64329579D01*
X150262766Y-64112766D01*
X150267504Y-64106992D01*
X150380000Y-64118072D01*
G36*
X116014001Y-60578555D02*
G01*
X116014001Y-60745854D01*
X115803187Y-60572843D01*
X115562580Y-60444236D01*
X115301506Y-60365040D01*
X115030000Y-60338299D01*
X114758493Y-60365040D01*
X114497419Y-60444236D01*
X114264114Y-60568940D01*
X114231185Y-60528815D01*
X114134494Y-60449463D01*
X114024180Y-60390498D01*
X113904482Y-60354188D01*
X113780000Y-60341928D01*
X112280000Y-60341928D01*
X112167504Y-60353008D01*
X112162766Y-60347234D01*
X111898577Y-60130421D01*
X111597167Y-59969314D01*
X111270118Y-59870105D01*
X110930000Y-59836606D01*
X110589881Y-59870105D01*
X110427468Y-59919372D01*
X110910841Y-59436000D01*
X115086231Y-59436000D01*
X116014001Y-60578555D01*
G37*
X116014001Y-60578555D02*
X116014001Y-60745854D01*
X115803187Y-60572843D01*
X115562580Y-60444236D01*
X115301506Y-60365040D01*
X115030000Y-60338299D01*
X114758493Y-60365040D01*
X114497419Y-60444236D01*
X114264114Y-60568940D01*
X114231185Y-60528815D01*
X114134494Y-60449463D01*
X114024180Y-60390498D01*
X113904482Y-60354188D01*
X113780000Y-60341928D01*
X112280000Y-60341928D01*
X112167504Y-60353008D01*
X112162766Y-60347234D01*
X111898577Y-60130421D01*
X111597167Y-59969314D01*
X111270118Y-59870105D01*
X110930000Y-59836606D01*
X110589881Y-59870105D01*
X110427468Y-59919372D01*
X110910841Y-59436000D01*
X115086231Y-59436000D01*
X116014001Y-60578555D01*
G36*
X128195400Y-60423857D02*
G01*
X128001506Y-60365040D01*
X127730000Y-60338299D01*
X127458493Y-60365040D01*
X127197419Y-60444236D01*
X126964114Y-60568940D01*
X126931185Y-60528815D01*
X126834494Y-60449463D01*
X126724180Y-60390498D01*
X126604482Y-60354188D01*
X126480000Y-60341928D01*
X124980000Y-60341928D01*
X124867504Y-60353008D01*
X124862766Y-60347234D01*
X124598577Y-60130421D01*
X124297167Y-59969314D01*
X123970118Y-59870105D01*
X123630000Y-59836606D01*
X123289881Y-59870105D01*
X122962832Y-59969314D01*
X122936000Y-59983656D01*
X122936000Y-59436000D01*
X126695483Y-59436000D01*
X128195400Y-60423857D01*
G37*
X128195400Y-60423857D02*
X128001506Y-60365040D01*
X127730000Y-60338299D01*
X127458493Y-60365040D01*
X127197419Y-60444236D01*
X126964114Y-60568940D01*
X126931185Y-60528815D01*
X126834494Y-60449463D01*
X126724180Y-60390498D01*
X126604482Y-60354188D01*
X126480000Y-60341928D01*
X124980000Y-60341928D01*
X124867504Y-60353008D01*
X124862766Y-60347234D01*
X124598577Y-60130421D01*
X124297167Y-59969314D01*
X123970118Y-59870105D01*
X123630000Y-59836606D01*
X123289881Y-59870105D01*
X122962832Y-59969314D01*
X122936000Y-59983656D01*
X122936000Y-59436000D01*
X126695483Y-59436000D01*
X128195400Y-60423857D01*
G36*
X108610000Y-58863160D02*
G01*
X108610000Y-57810000D01*
X109663159Y-57810000D01*
X108610000Y-58863160D01*
G37*
X108610000Y-58863160D02*
X108610000Y-57810000D01*
X109663159Y-57810000D01*
X108610000Y-58863160D01*
G36*
X170790001Y-58863160D02*
G01*
X169736840Y-57810000D01*
X170790001Y-57810000D01*
X170790001Y-58863160D01*
G37*
X170790001Y-58863160D02*
X169736840Y-57810000D01*
X170790001Y-57810000D01*
X170790001Y-58863160D01*
M02*
