G04 #@! TF.GenerationSoftware,KiCad,Pcbnew,(5.1.5)-3*
G04 #@! TF.CreationDate,2020-04-10T15:09:37-04:00*
G04 #@! TF.ProjectId,final_project,66696e61-6c5f-4707-926f-6a6563742e6b,rev?*
G04 #@! TF.SameCoordinates,Original*
G04 #@! TF.FileFunction,Legend,Bot*
G04 #@! TF.FilePolarity,Positive*
%FSLAX46Y46*%
G04 Gerber Fmt 4.6, Leading zero omitted, Abs format (unit mm)*
G04 Created by KiCad (PCBNEW (5.1.5)-3) date 2020-04-10 15:09:37*
%MOMM*%
%LPD*%
G04 APERTURE LIST*
%ADD10C,0.120000*%
%ADD11C,0.150000*%
G04 APERTURE END LIST*
D10*
X123765000Y-66020000D02*
X124065507Y-66020000D01*
X124854493Y-66020000D02*
X125155000Y-66020000D01*
X123765000Y-67895000D02*
X123765000Y-66020000D01*
X125155000Y-67895000D02*
X125155000Y-66020000D01*
X123765000Y-67895000D02*
X123851724Y-67895000D01*
X125068276Y-67895000D02*
X125155000Y-67895000D01*
X123765000Y-68580000D02*
X123765000Y-69265000D01*
X123765000Y-69265000D02*
X124460000Y-69265000D01*
X118301392Y-82952335D02*
G75*
G02X118144484Y-79720000I1078608J1672335D01*
G01*
X120458608Y-82952335D02*
G75*
G03X120615516Y-79720000I-1078608J1672335D01*
G01*
X118300163Y-82321130D02*
G75*
G02X118300000Y-80239039I1079837J1041130D01*
G01*
X120459837Y-82321130D02*
G75*
G03X120460000Y-80239039I-1079837J1041130D01*
G01*
X118144000Y-79720000D02*
X118300000Y-79720000D01*
X120460000Y-79720000D02*
X120616000Y-79720000D01*
X136910000Y-90745000D02*
X136910000Y-91045507D01*
X136910000Y-91834493D02*
X136910000Y-92135000D01*
X134035000Y-90745000D02*
X136910000Y-90745000D01*
X134035000Y-92135000D02*
X136910000Y-92135000D01*
X134035000Y-90745000D02*
X134035000Y-90831724D01*
X134035000Y-92048276D02*
X134035000Y-92135000D01*
X133350000Y-90745000D02*
X132665000Y-90745000D01*
X132665000Y-90745000D02*
X132665000Y-91440000D01*
X116145000Y-69265000D02*
X116840000Y-69265000D01*
X116145000Y-68580000D02*
X116145000Y-69265000D01*
X117448276Y-67895000D02*
X117535000Y-67895000D01*
X116145000Y-67895000D02*
X116231724Y-67895000D01*
X117535000Y-67895000D02*
X117535000Y-66020000D01*
X116145000Y-67895000D02*
X116145000Y-66020000D01*
X117234493Y-66020000D02*
X117535000Y-66020000D01*
X116145000Y-66020000D02*
X116445507Y-66020000D01*
X133925000Y-69265000D02*
X134620000Y-69265000D01*
X133925000Y-68580000D02*
X133925000Y-69265000D01*
X135228276Y-67895000D02*
X135315000Y-67895000D01*
X133925000Y-67895000D02*
X134011724Y-67895000D01*
X135315000Y-67895000D02*
X135315000Y-66020000D01*
X133925000Y-67895000D02*
X133925000Y-66020000D01*
X135014493Y-66020000D02*
X135315000Y-66020000D01*
X133925000Y-66020000D02*
X134225507Y-66020000D01*
X146625000Y-64750000D02*
X146925507Y-64750000D01*
X147714493Y-64750000D02*
X148015000Y-64750000D01*
X146625000Y-66625000D02*
X146625000Y-64750000D01*
X148015000Y-66625000D02*
X148015000Y-64750000D01*
X146625000Y-66625000D02*
X146711724Y-66625000D01*
X147928276Y-66625000D02*
X148015000Y-66625000D01*
X146625000Y-67310000D02*
X146625000Y-67995000D01*
X146625000Y-67995000D02*
X147320000Y-67995000D01*
D11*
X155130000Y-59930000D02*
X157430000Y-59930000D01*
X148830000Y-59930000D02*
X151030000Y-59930000D01*
X148830000Y-64530000D02*
X157430000Y-64530000D01*
X117030000Y-59930000D02*
X119330000Y-59930000D01*
X110730000Y-59930000D02*
X112930000Y-59930000D01*
X110730000Y-64530000D02*
X119330000Y-64530000D01*
X123430000Y-64530000D02*
X132030000Y-64530000D01*
X123430000Y-59930000D02*
X125630000Y-59930000D01*
X129730000Y-59930000D02*
X132030000Y-59930000D01*
X136130000Y-64530000D02*
X144730000Y-64530000D01*
X136130000Y-59930000D02*
X138330000Y-59930000D01*
X142430000Y-59930000D02*
X144730000Y-59930000D01*
X125293333Y-69592380D02*
X125293333Y-70306666D01*
X125340952Y-70449523D01*
X125436190Y-70544761D01*
X125579047Y-70592380D01*
X125674285Y-70592380D01*
X124817142Y-70592380D02*
X124817142Y-69592380D01*
X124436190Y-69592380D01*
X124340952Y-69640000D01*
X124293333Y-69687619D01*
X124245714Y-69782857D01*
X124245714Y-69925714D01*
X124293333Y-70020952D01*
X124340952Y-70068571D01*
X124436190Y-70116190D01*
X124817142Y-70116190D01*
X123912380Y-69592380D02*
X123293333Y-69592380D01*
X123626666Y-69973333D01*
X123483809Y-69973333D01*
X123388571Y-70020952D01*
X123340952Y-70068571D01*
X123293333Y-70163809D01*
X123293333Y-70401904D01*
X123340952Y-70497142D01*
X123388571Y-70544761D01*
X123483809Y-70592380D01*
X123769523Y-70592380D01*
X123864761Y-70544761D01*
X123912380Y-70497142D01*
X116872380Y-80541904D02*
X115872380Y-80541904D01*
X115872380Y-80780000D01*
X115920000Y-80922857D01*
X116015238Y-81018095D01*
X116110476Y-81065714D01*
X116300952Y-81113333D01*
X116443809Y-81113333D01*
X116634285Y-81065714D01*
X116729523Y-81018095D01*
X116824761Y-80922857D01*
X116872380Y-80780000D01*
X116872380Y-80541904D01*
X116872380Y-82065714D02*
X116872380Y-81494285D01*
X116872380Y-81780000D02*
X115872380Y-81780000D01*
X116015238Y-81684761D01*
X116110476Y-81589523D01*
X116158095Y-81494285D01*
X131242380Y-91106666D02*
X131956666Y-91106666D01*
X132099523Y-91059047D01*
X132194761Y-90963809D01*
X132242380Y-90820952D01*
X132242380Y-90725714D01*
X132242380Y-92106666D02*
X132242380Y-91535238D01*
X132242380Y-91820952D02*
X131242380Y-91820952D01*
X131385238Y-91725714D01*
X131480476Y-91630476D01*
X131528095Y-91535238D01*
X117673333Y-69592380D02*
X117673333Y-70306666D01*
X117720952Y-70449523D01*
X117816190Y-70544761D01*
X117959047Y-70592380D01*
X118054285Y-70592380D01*
X117197142Y-70592380D02*
X117197142Y-69592380D01*
X116816190Y-69592380D01*
X116720952Y-69640000D01*
X116673333Y-69687619D01*
X116625714Y-69782857D01*
X116625714Y-69925714D01*
X116673333Y-70020952D01*
X116720952Y-70068571D01*
X116816190Y-70116190D01*
X117197142Y-70116190D01*
X116244761Y-69687619D02*
X116197142Y-69640000D01*
X116101904Y-69592380D01*
X115863809Y-69592380D01*
X115768571Y-69640000D01*
X115720952Y-69687619D01*
X115673333Y-69782857D01*
X115673333Y-69878095D01*
X115720952Y-70020952D01*
X116292380Y-70592380D01*
X115673333Y-70592380D01*
X135453333Y-69592380D02*
X135453333Y-70306666D01*
X135500952Y-70449523D01*
X135596190Y-70544761D01*
X135739047Y-70592380D01*
X135834285Y-70592380D01*
X134977142Y-70592380D02*
X134977142Y-69592380D01*
X134596190Y-69592380D01*
X134500952Y-69640000D01*
X134453333Y-69687619D01*
X134405714Y-69782857D01*
X134405714Y-69925714D01*
X134453333Y-70020952D01*
X134500952Y-70068571D01*
X134596190Y-70116190D01*
X134977142Y-70116190D01*
X133548571Y-69925714D02*
X133548571Y-70592380D01*
X133786666Y-69544761D02*
X134024761Y-70259047D01*
X133405714Y-70259047D01*
X148153333Y-68322380D02*
X148153333Y-69036666D01*
X148200952Y-69179523D01*
X148296190Y-69274761D01*
X148439047Y-69322380D01*
X148534285Y-69322380D01*
X147677142Y-69322380D02*
X147677142Y-68322380D01*
X147296190Y-68322380D01*
X147200952Y-68370000D01*
X147153333Y-68417619D01*
X147105714Y-68512857D01*
X147105714Y-68655714D01*
X147153333Y-68750952D01*
X147200952Y-68798571D01*
X147296190Y-68846190D01*
X147677142Y-68846190D01*
X146200952Y-68322380D02*
X146677142Y-68322380D01*
X146724761Y-68798571D01*
X146677142Y-68750952D01*
X146581904Y-68703333D01*
X146343809Y-68703333D01*
X146248571Y-68750952D01*
X146200952Y-68798571D01*
X146153333Y-68893809D01*
X146153333Y-69131904D01*
X146200952Y-69227142D01*
X146248571Y-69274761D01*
X146343809Y-69322380D01*
X146581904Y-69322380D01*
X146677142Y-69274761D01*
X146724761Y-69227142D01*
X153863333Y-66234761D02*
X153720476Y-66282380D01*
X153482380Y-66282380D01*
X153387142Y-66234761D01*
X153339523Y-66187142D01*
X153291904Y-66091904D01*
X153291904Y-65996666D01*
X153339523Y-65901428D01*
X153387142Y-65853809D01*
X153482380Y-65806190D01*
X153672857Y-65758571D01*
X153768095Y-65710952D01*
X153815714Y-65663333D01*
X153863333Y-65568095D01*
X153863333Y-65472857D01*
X153815714Y-65377619D01*
X153768095Y-65330000D01*
X153672857Y-65282380D01*
X153434761Y-65282380D01*
X153291904Y-65330000D01*
X152958571Y-65282380D02*
X152720476Y-66282380D01*
X152530000Y-65568095D01*
X152339523Y-66282380D01*
X152101428Y-65282380D01*
X151196666Y-66282380D02*
X151768095Y-66282380D01*
X151482380Y-66282380D02*
X151482380Y-65282380D01*
X151577619Y-65425238D01*
X151672857Y-65520476D01*
X151768095Y-65568095D01*
X115763333Y-66234761D02*
X115620476Y-66282380D01*
X115382380Y-66282380D01*
X115287142Y-66234761D01*
X115239523Y-66187142D01*
X115191904Y-66091904D01*
X115191904Y-65996666D01*
X115239523Y-65901428D01*
X115287142Y-65853809D01*
X115382380Y-65806190D01*
X115572857Y-65758571D01*
X115668095Y-65710952D01*
X115715714Y-65663333D01*
X115763333Y-65568095D01*
X115763333Y-65472857D01*
X115715714Y-65377619D01*
X115668095Y-65330000D01*
X115572857Y-65282380D01*
X115334761Y-65282380D01*
X115191904Y-65330000D01*
X114858571Y-65282380D02*
X114620476Y-66282380D01*
X114430000Y-65568095D01*
X114239523Y-66282380D01*
X114001428Y-65282380D01*
X113668095Y-65377619D02*
X113620476Y-65330000D01*
X113525238Y-65282380D01*
X113287142Y-65282380D01*
X113191904Y-65330000D01*
X113144285Y-65377619D01*
X113096666Y-65472857D01*
X113096666Y-65568095D01*
X113144285Y-65710952D01*
X113715714Y-66282380D01*
X113096666Y-66282380D01*
X128463333Y-66234761D02*
X128320476Y-66282380D01*
X128082380Y-66282380D01*
X127987142Y-66234761D01*
X127939523Y-66187142D01*
X127891904Y-66091904D01*
X127891904Y-65996666D01*
X127939523Y-65901428D01*
X127987142Y-65853809D01*
X128082380Y-65806190D01*
X128272857Y-65758571D01*
X128368095Y-65710952D01*
X128415714Y-65663333D01*
X128463333Y-65568095D01*
X128463333Y-65472857D01*
X128415714Y-65377619D01*
X128368095Y-65330000D01*
X128272857Y-65282380D01*
X128034761Y-65282380D01*
X127891904Y-65330000D01*
X127558571Y-65282380D02*
X127320476Y-66282380D01*
X127130000Y-65568095D01*
X126939523Y-66282380D01*
X126701428Y-65282380D01*
X126415714Y-65282380D02*
X125796666Y-65282380D01*
X126130000Y-65663333D01*
X125987142Y-65663333D01*
X125891904Y-65710952D01*
X125844285Y-65758571D01*
X125796666Y-65853809D01*
X125796666Y-66091904D01*
X125844285Y-66187142D01*
X125891904Y-66234761D01*
X125987142Y-66282380D01*
X126272857Y-66282380D01*
X126368095Y-66234761D01*
X126415714Y-66187142D01*
X141163333Y-66234761D02*
X141020476Y-66282380D01*
X140782380Y-66282380D01*
X140687142Y-66234761D01*
X140639523Y-66187142D01*
X140591904Y-66091904D01*
X140591904Y-65996666D01*
X140639523Y-65901428D01*
X140687142Y-65853809D01*
X140782380Y-65806190D01*
X140972857Y-65758571D01*
X141068095Y-65710952D01*
X141115714Y-65663333D01*
X141163333Y-65568095D01*
X141163333Y-65472857D01*
X141115714Y-65377619D01*
X141068095Y-65330000D01*
X140972857Y-65282380D01*
X140734761Y-65282380D01*
X140591904Y-65330000D01*
X140258571Y-65282380D02*
X140020476Y-66282380D01*
X139830000Y-65568095D01*
X139639523Y-66282380D01*
X139401428Y-65282380D01*
X138591904Y-65615714D02*
X138591904Y-66282380D01*
X138830000Y-65234761D02*
X139068095Y-65949047D01*
X138449047Y-65949047D01*
M02*
