G04 #@! TF.GenerationSoftware,KiCad,Pcbnew,(5.1.5)-3*
G04 #@! TF.CreationDate,2020-04-10T15:09:37-04:00*
G04 #@! TF.ProjectId,final_project,66696e61-6c5f-4707-926f-6a6563742e6b,rev?*
G04 #@! TF.SameCoordinates,Original*
G04 #@! TF.FileFunction,Legend,Top*
G04 #@! TF.FilePolarity,Positive*
%FSLAX46Y46*%
G04 Gerber Fmt 4.6, Leading zero omitted, Abs format (unit mm)*
G04 Created by KiCad (PCBNEW (5.1.5)-3) date 2020-04-10 15:09:37*
%MOMM*%
%LPD*%
G04 APERTURE LIST*
%ADD10C,0.150000*%
%ADD11C,0.120000*%
G04 APERTURE END LIST*
D10*
X150996190Y-112482380D02*
X150996190Y-112672857D01*
X151377142Y-112482380D02*
X151377142Y-112672857D01*
X151662857Y-112482380D02*
X152234285Y-112482380D01*
X151948571Y-113482380D02*
X151948571Y-112482380D01*
X152567619Y-113482380D02*
X152567619Y-112482380D01*
X152996190Y-113482380D02*
X152996190Y-112958571D01*
X152948571Y-112863333D01*
X152853333Y-112815714D01*
X152710476Y-112815714D01*
X152615238Y-112863333D01*
X152567619Y-112910952D01*
X153472380Y-113482380D02*
X153472380Y-112815714D01*
X153472380Y-112482380D02*
X153424761Y-112530000D01*
X153472380Y-112577619D01*
X153520000Y-112530000D01*
X153472380Y-112482380D01*
X153472380Y-112577619D01*
X153900952Y-113434761D02*
X153996190Y-113482380D01*
X154186666Y-113482380D01*
X154281904Y-113434761D01*
X154329523Y-113339523D01*
X154329523Y-113291904D01*
X154281904Y-113196666D01*
X154186666Y-113149047D01*
X154043809Y-113149047D01*
X153948571Y-113101428D01*
X153900952Y-113006190D01*
X153900952Y-112958571D01*
X153948571Y-112863333D01*
X154043809Y-112815714D01*
X154186666Y-112815714D01*
X154281904Y-112863333D01*
X155377142Y-112815714D02*
X155758095Y-112815714D01*
X155520000Y-112482380D02*
X155520000Y-113339523D01*
X155567619Y-113434761D01*
X155662857Y-113482380D01*
X155758095Y-113482380D01*
X156234285Y-113482380D02*
X156139047Y-113434761D01*
X156091428Y-113387142D01*
X156043809Y-113291904D01*
X156043809Y-113006190D01*
X156091428Y-112910952D01*
X156139047Y-112863333D01*
X156234285Y-112815714D01*
X156377142Y-112815714D01*
X156472380Y-112863333D01*
X156520000Y-112910952D01*
X156567619Y-113006190D01*
X156567619Y-113291904D01*
X156520000Y-113387142D01*
X156472380Y-113434761D01*
X156377142Y-113482380D01*
X156234285Y-113482380D01*
X157139047Y-113482380D02*
X157043809Y-113434761D01*
X156996190Y-113387142D01*
X156948571Y-113291904D01*
X156948571Y-113006190D01*
X156996190Y-112910952D01*
X157043809Y-112863333D01*
X157139047Y-112815714D01*
X157281904Y-112815714D01*
X157377142Y-112863333D01*
X157424761Y-112910952D01*
X157472380Y-113006190D01*
X157472380Y-113291904D01*
X157424761Y-113387142D01*
X157377142Y-113434761D01*
X157281904Y-113482380D01*
X157139047Y-113482380D01*
X157900952Y-113482380D02*
X157900952Y-112482380D01*
X157996190Y-113101428D02*
X158281904Y-113482380D01*
X158281904Y-112815714D02*
X157900952Y-113196666D01*
X159329523Y-112815714D02*
X159710476Y-112815714D01*
X159472380Y-113482380D02*
X159472380Y-112625238D01*
X159520000Y-112530000D01*
X159615238Y-112482380D01*
X159710476Y-112482380D01*
X160472380Y-113482380D02*
X160472380Y-112958571D01*
X160424761Y-112863333D01*
X160329523Y-112815714D01*
X160139047Y-112815714D01*
X160043809Y-112863333D01*
X160472380Y-113434761D02*
X160377142Y-113482380D01*
X160139047Y-113482380D01*
X160043809Y-113434761D01*
X159996190Y-113339523D01*
X159996190Y-113244285D01*
X160043809Y-113149047D01*
X160139047Y-113101428D01*
X160377142Y-113101428D01*
X160472380Y-113053809D01*
X160948571Y-113482380D02*
X160948571Y-112815714D01*
X160948571Y-113006190D02*
X160996190Y-112910952D01*
X161043809Y-112863333D01*
X161139047Y-112815714D01*
X161234285Y-112815714D01*
X162186666Y-112815714D02*
X162567619Y-112815714D01*
X162329523Y-112482380D02*
X162329523Y-113339523D01*
X162377142Y-113434761D01*
X162472380Y-113482380D01*
X162567619Y-113482380D01*
X163043809Y-113482380D02*
X162948571Y-113434761D01*
X162900952Y-113387142D01*
X162853333Y-113291904D01*
X162853333Y-113006190D01*
X162900952Y-112910952D01*
X162948571Y-112863333D01*
X163043809Y-112815714D01*
X163186666Y-112815714D01*
X163281904Y-112863333D01*
X163329523Y-112910952D01*
X163377142Y-113006190D01*
X163377142Y-113291904D01*
X163329523Y-113387142D01*
X163281904Y-113434761D01*
X163186666Y-113482380D01*
X163043809Y-113482380D01*
X163948571Y-113482380D02*
X163853333Y-113434761D01*
X163805714Y-113387142D01*
X163758095Y-113291904D01*
X163758095Y-113006190D01*
X163805714Y-112910952D01*
X163853333Y-112863333D01*
X163948571Y-112815714D01*
X164091428Y-112815714D01*
X164186666Y-112863333D01*
X164234285Y-112910952D01*
X164281904Y-113006190D01*
X164281904Y-113291904D01*
X164234285Y-113387142D01*
X164186666Y-113434761D01*
X164091428Y-113482380D01*
X163948571Y-113482380D01*
X165615238Y-113482380D02*
X165520000Y-113434761D01*
X165472380Y-113339523D01*
X165472380Y-112482380D01*
X166139047Y-113482380D02*
X166043809Y-113434761D01*
X165996190Y-113387142D01*
X165948571Y-113291904D01*
X165948571Y-113006190D01*
X165996190Y-112910952D01*
X166043809Y-112863333D01*
X166139047Y-112815714D01*
X166281904Y-112815714D01*
X166377142Y-112863333D01*
X166424761Y-112910952D01*
X166472380Y-113006190D01*
X166472380Y-113291904D01*
X166424761Y-113387142D01*
X166377142Y-113434761D01*
X166281904Y-113482380D01*
X166139047Y-113482380D01*
X166900952Y-112815714D02*
X166900952Y-113482380D01*
X166900952Y-112910952D02*
X166948571Y-112863333D01*
X167043809Y-112815714D01*
X167186666Y-112815714D01*
X167281904Y-112863333D01*
X167329523Y-112958571D01*
X167329523Y-113482380D01*
X168234285Y-112815714D02*
X168234285Y-113625238D01*
X168186666Y-113720476D01*
X168139047Y-113768095D01*
X168043809Y-113815714D01*
X167900952Y-113815714D01*
X167805714Y-113768095D01*
X168234285Y-113434761D02*
X168139047Y-113482380D01*
X167948571Y-113482380D01*
X167853333Y-113434761D01*
X167805714Y-113387142D01*
X167758095Y-113291904D01*
X167758095Y-113006190D01*
X167805714Y-112910952D01*
X167853333Y-112863333D01*
X167948571Y-112815714D01*
X168139047Y-112815714D01*
X168234285Y-112863333D01*
X168662857Y-112482380D02*
X168662857Y-112672857D01*
X169043809Y-112482380D02*
X169043809Y-112672857D01*
X157424761Y-108672380D02*
X158091428Y-109672380D01*
X158091428Y-108672380D02*
X157424761Y-109672380D01*
X158900952Y-109005714D02*
X158900952Y-109672380D01*
X158472380Y-109005714D02*
X158472380Y-109529523D01*
X158520000Y-109624761D01*
X158615238Y-109672380D01*
X158758095Y-109672380D01*
X158853333Y-109624761D01*
X158900952Y-109577142D01*
X160139047Y-109672380D02*
X160139047Y-108672380D01*
X160139047Y-109148571D02*
X160710476Y-109148571D01*
X160710476Y-109672380D02*
X160710476Y-108672380D01*
X161615238Y-109672380D02*
X161615238Y-109148571D01*
X161567619Y-109053333D01*
X161472380Y-109005714D01*
X161281904Y-109005714D01*
X161186666Y-109053333D01*
X161615238Y-109624761D02*
X161520000Y-109672380D01*
X161281904Y-109672380D01*
X161186666Y-109624761D01*
X161139047Y-109529523D01*
X161139047Y-109434285D01*
X161186666Y-109339047D01*
X161281904Y-109291428D01*
X161520000Y-109291428D01*
X161615238Y-109243809D01*
X162091428Y-109005714D02*
X162091428Y-109672380D01*
X162091428Y-109100952D02*
X162139047Y-109053333D01*
X162234285Y-109005714D01*
X162377142Y-109005714D01*
X162472380Y-109053333D01*
X162520000Y-109148571D01*
X162520000Y-109672380D01*
D11*
X143300000Y-93579740D02*
G75*
G03X141180000Y-93579741I-1060000J2119740D01*
G01*
X140905000Y-93997288D02*
X140905000Y-93547288D01*
X140680000Y-93772288D02*
X141130000Y-93772288D01*
X163410000Y-80760000D02*
G75*
G03X163410000Y-80760000I-2120000J0D01*
G01*
X160450000Y-80760000D02*
X159210000Y-80760000D01*
X163370000Y-80760000D02*
X162130000Y-80760000D01*
X160450000Y-80800000D02*
X159210000Y-80800000D01*
X163370000Y-80800000D02*
X162130000Y-80800000D01*
X160450000Y-80840000D02*
X159211000Y-80840000D01*
X163369000Y-80840000D02*
X162130000Y-80840000D01*
X163367000Y-80880000D02*
X162130000Y-80880000D01*
X160450000Y-80880000D02*
X159213000Y-80880000D01*
X163364000Y-80920000D02*
X162130000Y-80920000D01*
X160450000Y-80920000D02*
X159216000Y-80920000D01*
X163361000Y-80960000D02*
X162130000Y-80960000D01*
X160450000Y-80960000D02*
X159219000Y-80960000D01*
X163357000Y-81000000D02*
X162130000Y-81000000D01*
X160450000Y-81000000D02*
X159223000Y-81000000D01*
X163352000Y-81040000D02*
X162130000Y-81040000D01*
X160450000Y-81040000D02*
X159228000Y-81040000D01*
X163346000Y-81080000D02*
X162130000Y-81080000D01*
X160450000Y-81080000D02*
X159234000Y-81080000D01*
X163340000Y-81120000D02*
X162130000Y-81120000D01*
X160450000Y-81120000D02*
X159240000Y-81120000D01*
X163332000Y-81160000D02*
X162130000Y-81160000D01*
X160450000Y-81160000D02*
X159248000Y-81160000D01*
X163324000Y-81200000D02*
X162130000Y-81200000D01*
X160450000Y-81200000D02*
X159256000Y-81200000D01*
X163315000Y-81240000D02*
X162130000Y-81240000D01*
X160450000Y-81240000D02*
X159265000Y-81240000D01*
X163306000Y-81280000D02*
X162130000Y-81280000D01*
X160450000Y-81280000D02*
X159274000Y-81280000D01*
X163295000Y-81320000D02*
X162130000Y-81320000D01*
X160450000Y-81320000D02*
X159285000Y-81320000D01*
X163284000Y-81360000D02*
X162130000Y-81360000D01*
X160450000Y-81360000D02*
X159296000Y-81360000D01*
X163272000Y-81400000D02*
X162130000Y-81400000D01*
X160450000Y-81400000D02*
X159308000Y-81400000D01*
X163258000Y-81440000D02*
X162130000Y-81440000D01*
X160450000Y-81440000D02*
X159322000Y-81440000D01*
X163244000Y-81481000D02*
X162130000Y-81481000D01*
X160450000Y-81481000D02*
X159336000Y-81481000D01*
X163230000Y-81521000D02*
X162130000Y-81521000D01*
X160450000Y-81521000D02*
X159350000Y-81521000D01*
X163214000Y-81561000D02*
X162130000Y-81561000D01*
X160450000Y-81561000D02*
X159366000Y-81561000D01*
X163197000Y-81601000D02*
X162130000Y-81601000D01*
X160450000Y-81601000D02*
X159383000Y-81601000D01*
X163179000Y-81641000D02*
X162130000Y-81641000D01*
X160450000Y-81641000D02*
X159401000Y-81641000D01*
X163160000Y-81681000D02*
X162130000Y-81681000D01*
X160450000Y-81681000D02*
X159420000Y-81681000D01*
X163141000Y-81721000D02*
X162130000Y-81721000D01*
X160450000Y-81721000D02*
X159439000Y-81721000D01*
X163120000Y-81761000D02*
X162130000Y-81761000D01*
X160450000Y-81761000D02*
X159460000Y-81761000D01*
X163098000Y-81801000D02*
X162130000Y-81801000D01*
X160450000Y-81801000D02*
X159482000Y-81801000D01*
X163075000Y-81841000D02*
X162130000Y-81841000D01*
X160450000Y-81841000D02*
X159505000Y-81841000D01*
X163050000Y-81881000D02*
X162130000Y-81881000D01*
X160450000Y-81881000D02*
X159530000Y-81881000D01*
X163025000Y-81921000D02*
X162130000Y-81921000D01*
X160450000Y-81921000D02*
X159555000Y-81921000D01*
X162998000Y-81961000D02*
X162130000Y-81961000D01*
X160450000Y-81961000D02*
X159582000Y-81961000D01*
X162970000Y-82001000D02*
X162130000Y-82001000D01*
X160450000Y-82001000D02*
X159610000Y-82001000D01*
X162940000Y-82041000D02*
X162130000Y-82041000D01*
X160450000Y-82041000D02*
X159640000Y-82041000D01*
X162909000Y-82081000D02*
X162130000Y-82081000D01*
X160450000Y-82081000D02*
X159671000Y-82081000D01*
X162877000Y-82121000D02*
X162130000Y-82121000D01*
X160450000Y-82121000D02*
X159703000Y-82121000D01*
X162842000Y-82161000D02*
X162130000Y-82161000D01*
X160450000Y-82161000D02*
X159738000Y-82161000D01*
X162806000Y-82201000D02*
X162130000Y-82201000D01*
X160450000Y-82201000D02*
X159774000Y-82201000D01*
X162768000Y-82241000D02*
X162130000Y-82241000D01*
X160450000Y-82241000D02*
X159812000Y-82241000D01*
X162728000Y-82281000D02*
X162130000Y-82281000D01*
X160450000Y-82281000D02*
X159852000Y-82281000D01*
X162686000Y-82321000D02*
X162130000Y-82321000D01*
X160450000Y-82321000D02*
X159894000Y-82321000D01*
X162641000Y-82361000D02*
X159939000Y-82361000D01*
X162594000Y-82401000D02*
X159986000Y-82401000D01*
X162544000Y-82441000D02*
X160036000Y-82441000D01*
X162490000Y-82481000D02*
X160090000Y-82481000D01*
X162432000Y-82521000D02*
X160148000Y-82521000D01*
X162370000Y-82561000D02*
X160210000Y-82561000D01*
X162303000Y-82601000D02*
X160277000Y-82601000D01*
X162230000Y-82641000D02*
X160350000Y-82641000D01*
X162149000Y-82681000D02*
X160431000Y-82681000D01*
X162058000Y-82721000D02*
X160522000Y-82721000D01*
X161954000Y-82761000D02*
X160626000Y-82761000D01*
X161827000Y-82801000D02*
X160753000Y-82801000D01*
X161660000Y-82841000D02*
X160920000Y-82841000D01*
X162485000Y-78490199D02*
X162485000Y-78890199D01*
X162685000Y-78690199D02*
X162285000Y-78690199D01*
X132350000Y-107950000D02*
G75*
G03X132350000Y-107950000I-4120000J0D01*
G01*
X128230000Y-103870000D02*
X128230000Y-112030000D01*
X128270000Y-103870000D02*
X128270000Y-112030000D01*
X128310000Y-103870000D02*
X128310000Y-112030000D01*
X128350000Y-103871000D02*
X128350000Y-112029000D01*
X128390000Y-103873000D02*
X128390000Y-112027000D01*
X128430000Y-103874000D02*
X128430000Y-112026000D01*
X128470000Y-103876000D02*
X128470000Y-112024000D01*
X128510000Y-103879000D02*
X128510000Y-112021000D01*
X128550000Y-103882000D02*
X128550000Y-112018000D01*
X128590000Y-103885000D02*
X128590000Y-112015000D01*
X128630000Y-103889000D02*
X128630000Y-112011000D01*
X128670000Y-103893000D02*
X128670000Y-112007000D01*
X128710000Y-103898000D02*
X128710000Y-112002000D01*
X128750000Y-103902000D02*
X128750000Y-111998000D01*
X128790000Y-103908000D02*
X128790000Y-111992000D01*
X128830000Y-103913000D02*
X128830000Y-111987000D01*
X128870000Y-103920000D02*
X128870000Y-111980000D01*
X128910000Y-103926000D02*
X128910000Y-111974000D01*
X128951000Y-103933000D02*
X128951000Y-111967000D01*
X128991000Y-103940000D02*
X128991000Y-111960000D01*
X129031000Y-103948000D02*
X129031000Y-111952000D01*
X129071000Y-103956000D02*
X129071000Y-111944000D01*
X129111000Y-103965000D02*
X129111000Y-111935000D01*
X129151000Y-103974000D02*
X129151000Y-111926000D01*
X129191000Y-103983000D02*
X129191000Y-111917000D01*
X129231000Y-103993000D02*
X129231000Y-111907000D01*
X129271000Y-104003000D02*
X129271000Y-111897000D01*
X129311000Y-104014000D02*
X129311000Y-111886000D01*
X129351000Y-104025000D02*
X129351000Y-111875000D01*
X129391000Y-104036000D02*
X129391000Y-111864000D01*
X129431000Y-104048000D02*
X129431000Y-111852000D01*
X129471000Y-104061000D02*
X129471000Y-111839000D01*
X129511000Y-104073000D02*
X129511000Y-111827000D01*
X129551000Y-104087000D02*
X129551000Y-111813000D01*
X129591000Y-104100000D02*
X129591000Y-111800000D01*
X129631000Y-104115000D02*
X129631000Y-111785000D01*
X129671000Y-104129000D02*
X129671000Y-111771000D01*
X129711000Y-104145000D02*
X129711000Y-106910000D01*
X129711000Y-108990000D02*
X129711000Y-111755000D01*
X129751000Y-104160000D02*
X129751000Y-106910000D01*
X129751000Y-108990000D02*
X129751000Y-111740000D01*
X129791000Y-104176000D02*
X129791000Y-106910000D01*
X129791000Y-108990000D02*
X129791000Y-111724000D01*
X129831000Y-104193000D02*
X129831000Y-106910000D01*
X129831000Y-108990000D02*
X129831000Y-111707000D01*
X129871000Y-104210000D02*
X129871000Y-106910000D01*
X129871000Y-108990000D02*
X129871000Y-111690000D01*
X129911000Y-104228000D02*
X129911000Y-106910000D01*
X129911000Y-108990000D02*
X129911000Y-111672000D01*
X129951000Y-104246000D02*
X129951000Y-106910000D01*
X129951000Y-108990000D02*
X129951000Y-111654000D01*
X129991000Y-104264000D02*
X129991000Y-106910000D01*
X129991000Y-108990000D02*
X129991000Y-111636000D01*
X130031000Y-104284000D02*
X130031000Y-106910000D01*
X130031000Y-108990000D02*
X130031000Y-111616000D01*
X130071000Y-104303000D02*
X130071000Y-106910000D01*
X130071000Y-108990000D02*
X130071000Y-111597000D01*
X130111000Y-104323000D02*
X130111000Y-106910000D01*
X130111000Y-108990000D02*
X130111000Y-111577000D01*
X130151000Y-104344000D02*
X130151000Y-106910000D01*
X130151000Y-108990000D02*
X130151000Y-111556000D01*
X130191000Y-104366000D02*
X130191000Y-106910000D01*
X130191000Y-108990000D02*
X130191000Y-111534000D01*
X130231000Y-104388000D02*
X130231000Y-106910000D01*
X130231000Y-108990000D02*
X130231000Y-111512000D01*
X130271000Y-104410000D02*
X130271000Y-106910000D01*
X130271000Y-108990000D02*
X130271000Y-111490000D01*
X130311000Y-104433000D02*
X130311000Y-106910000D01*
X130311000Y-108990000D02*
X130311000Y-111467000D01*
X130351000Y-104457000D02*
X130351000Y-106910000D01*
X130351000Y-108990000D02*
X130351000Y-111443000D01*
X130391000Y-104481000D02*
X130391000Y-106910000D01*
X130391000Y-108990000D02*
X130391000Y-111419000D01*
X130431000Y-104506000D02*
X130431000Y-106910000D01*
X130431000Y-108990000D02*
X130431000Y-111394000D01*
X130471000Y-104532000D02*
X130471000Y-106910000D01*
X130471000Y-108990000D02*
X130471000Y-111368000D01*
X130511000Y-104558000D02*
X130511000Y-106910000D01*
X130511000Y-108990000D02*
X130511000Y-111342000D01*
X130551000Y-104585000D02*
X130551000Y-106910000D01*
X130551000Y-108990000D02*
X130551000Y-111315000D01*
X130591000Y-104612000D02*
X130591000Y-106910000D01*
X130591000Y-108990000D02*
X130591000Y-111288000D01*
X130631000Y-104641000D02*
X130631000Y-106910000D01*
X130631000Y-108990000D02*
X130631000Y-111259000D01*
X130671000Y-104670000D02*
X130671000Y-106910000D01*
X130671000Y-108990000D02*
X130671000Y-111230000D01*
X130711000Y-104700000D02*
X130711000Y-106910000D01*
X130711000Y-108990000D02*
X130711000Y-111200000D01*
X130751000Y-104730000D02*
X130751000Y-106910000D01*
X130751000Y-108990000D02*
X130751000Y-111170000D01*
X130791000Y-104761000D02*
X130791000Y-106910000D01*
X130791000Y-108990000D02*
X130791000Y-111139000D01*
X130831000Y-104794000D02*
X130831000Y-106910000D01*
X130831000Y-108990000D02*
X130831000Y-111106000D01*
X130871000Y-104826000D02*
X130871000Y-106910000D01*
X130871000Y-108990000D02*
X130871000Y-111074000D01*
X130911000Y-104860000D02*
X130911000Y-106910000D01*
X130911000Y-108990000D02*
X130911000Y-111040000D01*
X130951000Y-104895000D02*
X130951000Y-106910000D01*
X130951000Y-108990000D02*
X130951000Y-111005000D01*
X130991000Y-104931000D02*
X130991000Y-106910000D01*
X130991000Y-108990000D02*
X130991000Y-110969000D01*
X131031000Y-104967000D02*
X131031000Y-106910000D01*
X131031000Y-108990000D02*
X131031000Y-110933000D01*
X131071000Y-105005000D02*
X131071000Y-106910000D01*
X131071000Y-108990000D02*
X131071000Y-110895000D01*
X131111000Y-105043000D02*
X131111000Y-106910000D01*
X131111000Y-108990000D02*
X131111000Y-110857000D01*
X131151000Y-105083000D02*
X131151000Y-106910000D01*
X131151000Y-108990000D02*
X131151000Y-110817000D01*
X131191000Y-105124000D02*
X131191000Y-106910000D01*
X131191000Y-108990000D02*
X131191000Y-110776000D01*
X131231000Y-105166000D02*
X131231000Y-106910000D01*
X131231000Y-108990000D02*
X131231000Y-110734000D01*
X131271000Y-105209000D02*
X131271000Y-106910000D01*
X131271000Y-108990000D02*
X131271000Y-110691000D01*
X131311000Y-105253000D02*
X131311000Y-106910000D01*
X131311000Y-108990000D02*
X131311000Y-110647000D01*
X131351000Y-105299000D02*
X131351000Y-106910000D01*
X131351000Y-108990000D02*
X131351000Y-110601000D01*
X131391000Y-105346000D02*
X131391000Y-106910000D01*
X131391000Y-108990000D02*
X131391000Y-110554000D01*
X131431000Y-105394000D02*
X131431000Y-106910000D01*
X131431000Y-108990000D02*
X131431000Y-110506000D01*
X131471000Y-105445000D02*
X131471000Y-106910000D01*
X131471000Y-108990000D02*
X131471000Y-110455000D01*
X131511000Y-105496000D02*
X131511000Y-106910000D01*
X131511000Y-108990000D02*
X131511000Y-110404000D01*
X131551000Y-105550000D02*
X131551000Y-106910000D01*
X131551000Y-108990000D02*
X131551000Y-110350000D01*
X131591000Y-105605000D02*
X131591000Y-106910000D01*
X131591000Y-108990000D02*
X131591000Y-110295000D01*
X131631000Y-105663000D02*
X131631000Y-106910000D01*
X131631000Y-108990000D02*
X131631000Y-110237000D01*
X131671000Y-105722000D02*
X131671000Y-106910000D01*
X131671000Y-108990000D02*
X131671000Y-110178000D01*
X131711000Y-105784000D02*
X131711000Y-106910000D01*
X131711000Y-108990000D02*
X131711000Y-110116000D01*
X131751000Y-105848000D02*
X131751000Y-106910000D01*
X131751000Y-108990000D02*
X131751000Y-110052000D01*
X131791000Y-105916000D02*
X131791000Y-109984000D01*
X131831000Y-105986000D02*
X131831000Y-109914000D01*
X131871000Y-106060000D02*
X131871000Y-109840000D01*
X131911000Y-106137000D02*
X131911000Y-109763000D01*
X131951000Y-106219000D02*
X131951000Y-109681000D01*
X131991000Y-106305000D02*
X131991000Y-109595000D01*
X132031000Y-106398000D02*
X132031000Y-109502000D01*
X132071000Y-106497000D02*
X132071000Y-109403000D01*
X132111000Y-106604000D02*
X132111000Y-109296000D01*
X132151000Y-106721000D02*
X132151000Y-109179000D01*
X132191000Y-106852000D02*
X132191000Y-109048000D01*
X132231000Y-107002000D02*
X132231000Y-108898000D01*
X132271000Y-107182000D02*
X132271000Y-108718000D01*
X132311000Y-107417000D02*
X132311000Y-108483000D01*
X123820302Y-105635000D02*
X124620302Y-105635000D01*
X124220302Y-105235000D02*
X124220302Y-106035000D01*
X121870199Y-97665000D02*
X121870199Y-98065000D01*
X121670199Y-97865000D02*
X122070199Y-97865000D01*
X126021000Y-98690000D02*
X126021000Y-99430000D01*
X125981000Y-98523000D02*
X125981000Y-99597000D01*
X125941000Y-98396000D02*
X125941000Y-99724000D01*
X125901000Y-98292000D02*
X125901000Y-99828000D01*
X125861000Y-98201000D02*
X125861000Y-99919000D01*
X125821000Y-98120000D02*
X125821000Y-100000000D01*
X125781000Y-98047000D02*
X125781000Y-100073000D01*
X125741000Y-97980000D02*
X125741000Y-100140000D01*
X125701000Y-97918000D02*
X125701000Y-100202000D01*
X125661000Y-97860000D02*
X125661000Y-100260000D01*
X125621000Y-97806000D02*
X125621000Y-100314000D01*
X125581000Y-97756000D02*
X125581000Y-100364000D01*
X125541000Y-97709000D02*
X125541000Y-100411000D01*
X125501000Y-99900000D02*
X125501000Y-100456000D01*
X125501000Y-97664000D02*
X125501000Y-98220000D01*
X125461000Y-99900000D02*
X125461000Y-100498000D01*
X125461000Y-97622000D02*
X125461000Y-98220000D01*
X125421000Y-99900000D02*
X125421000Y-100538000D01*
X125421000Y-97582000D02*
X125421000Y-98220000D01*
X125381000Y-99900000D02*
X125381000Y-100576000D01*
X125381000Y-97544000D02*
X125381000Y-98220000D01*
X125341000Y-99900000D02*
X125341000Y-100612000D01*
X125341000Y-97508000D02*
X125341000Y-98220000D01*
X125301000Y-99900000D02*
X125301000Y-100647000D01*
X125301000Y-97473000D02*
X125301000Y-98220000D01*
X125261000Y-99900000D02*
X125261000Y-100679000D01*
X125261000Y-97441000D02*
X125261000Y-98220000D01*
X125221000Y-99900000D02*
X125221000Y-100710000D01*
X125221000Y-97410000D02*
X125221000Y-98220000D01*
X125181000Y-99900000D02*
X125181000Y-100740000D01*
X125181000Y-97380000D02*
X125181000Y-98220000D01*
X125141000Y-99900000D02*
X125141000Y-100768000D01*
X125141000Y-97352000D02*
X125141000Y-98220000D01*
X125101000Y-99900000D02*
X125101000Y-100795000D01*
X125101000Y-97325000D02*
X125101000Y-98220000D01*
X125061000Y-99900000D02*
X125061000Y-100820000D01*
X125061000Y-97300000D02*
X125061000Y-98220000D01*
X125021000Y-99900000D02*
X125021000Y-100845000D01*
X125021000Y-97275000D02*
X125021000Y-98220000D01*
X124981000Y-99900000D02*
X124981000Y-100868000D01*
X124981000Y-97252000D02*
X124981000Y-98220000D01*
X124941000Y-99900000D02*
X124941000Y-100890000D01*
X124941000Y-97230000D02*
X124941000Y-98220000D01*
X124901000Y-99900000D02*
X124901000Y-100911000D01*
X124901000Y-97209000D02*
X124901000Y-98220000D01*
X124861000Y-99900000D02*
X124861000Y-100930000D01*
X124861000Y-97190000D02*
X124861000Y-98220000D01*
X124821000Y-99900000D02*
X124821000Y-100949000D01*
X124821000Y-97171000D02*
X124821000Y-98220000D01*
X124781000Y-99900000D02*
X124781000Y-100967000D01*
X124781000Y-97153000D02*
X124781000Y-98220000D01*
X124741000Y-99900000D02*
X124741000Y-100984000D01*
X124741000Y-97136000D02*
X124741000Y-98220000D01*
X124701000Y-99900000D02*
X124701000Y-101000000D01*
X124701000Y-97120000D02*
X124701000Y-98220000D01*
X124661000Y-99900000D02*
X124661000Y-101014000D01*
X124661000Y-97106000D02*
X124661000Y-98220000D01*
X124620000Y-99900000D02*
X124620000Y-101028000D01*
X124620000Y-97092000D02*
X124620000Y-98220000D01*
X124580000Y-99900000D02*
X124580000Y-101042000D01*
X124580000Y-97078000D02*
X124580000Y-98220000D01*
X124540000Y-99900000D02*
X124540000Y-101054000D01*
X124540000Y-97066000D02*
X124540000Y-98220000D01*
X124500000Y-99900000D02*
X124500000Y-101065000D01*
X124500000Y-97055000D02*
X124500000Y-98220000D01*
X124460000Y-99900000D02*
X124460000Y-101076000D01*
X124460000Y-97044000D02*
X124460000Y-98220000D01*
X124420000Y-99900000D02*
X124420000Y-101085000D01*
X124420000Y-97035000D02*
X124420000Y-98220000D01*
X124380000Y-99900000D02*
X124380000Y-101094000D01*
X124380000Y-97026000D02*
X124380000Y-98220000D01*
X124340000Y-99900000D02*
X124340000Y-101102000D01*
X124340000Y-97018000D02*
X124340000Y-98220000D01*
X124300000Y-99900000D02*
X124300000Y-101110000D01*
X124300000Y-97010000D02*
X124300000Y-98220000D01*
X124260000Y-99900000D02*
X124260000Y-101116000D01*
X124260000Y-97004000D02*
X124260000Y-98220000D01*
X124220000Y-99900000D02*
X124220000Y-101122000D01*
X124220000Y-96998000D02*
X124220000Y-98220000D01*
X124180000Y-99900000D02*
X124180000Y-101127000D01*
X124180000Y-96993000D02*
X124180000Y-98220000D01*
X124140000Y-99900000D02*
X124140000Y-101131000D01*
X124140000Y-96989000D02*
X124140000Y-98220000D01*
X124100000Y-99900000D02*
X124100000Y-101134000D01*
X124100000Y-96986000D02*
X124100000Y-98220000D01*
X124060000Y-99900000D02*
X124060000Y-101137000D01*
X124060000Y-96983000D02*
X124060000Y-98220000D01*
X124020000Y-96981000D02*
X124020000Y-98220000D01*
X124020000Y-99900000D02*
X124020000Y-101139000D01*
X123980000Y-96980000D02*
X123980000Y-98220000D01*
X123980000Y-99900000D02*
X123980000Y-101140000D01*
X123940000Y-96980000D02*
X123940000Y-98220000D01*
X123940000Y-99900000D02*
X123940000Y-101140000D01*
X126060000Y-99060000D02*
G75*
G03X126060000Y-99060000I-2120000J0D01*
G01*
X115777712Y-103850000D02*
X115777712Y-104300000D01*
X115552712Y-104075000D02*
X116002712Y-104075000D01*
X115970260Y-106470000D02*
G75*
G03X115970259Y-104350000I2119740J1060000D01*
G01*
X162960260Y-62020000D02*
G75*
G03X162960259Y-59900000I2119740J1060000D01*
G01*
X162542712Y-59625000D02*
X162992712Y-59625000D01*
X162767712Y-59400000D02*
X162767712Y-59850000D01*
X155147712Y-69560000D02*
X155147712Y-70010000D01*
X154922712Y-69785000D02*
X155372712Y-69785000D01*
X155340260Y-72180000D02*
G75*
G03X155340259Y-70060000I2119740J1060000D01*
G01*
X111065000Y-74870000D02*
X111365507Y-74870000D01*
X112154493Y-74870000D02*
X112455000Y-74870000D01*
X111065000Y-67995000D02*
X111065000Y-74870000D01*
X112455000Y-67995000D02*
X112455000Y-74870000D01*
X111065000Y-67995000D02*
X111151724Y-67995000D01*
X112368276Y-67995000D02*
X112455000Y-67995000D01*
X111065000Y-67310000D02*
X111065000Y-66625000D01*
X111065000Y-66625000D02*
X111760000Y-66625000D01*
X119955000Y-68870000D02*
X120255507Y-68870000D01*
X121044493Y-68870000D02*
X121345000Y-68870000D01*
X119955000Y-67995000D02*
X119955000Y-68870000D01*
X121345000Y-67995000D02*
X121345000Y-68870000D01*
X119955000Y-67995000D02*
X120041724Y-67995000D01*
X121258276Y-67995000D02*
X121345000Y-67995000D01*
X119955000Y-67310000D02*
X119955000Y-66625000D01*
X119955000Y-66625000D02*
X120650000Y-66625000D01*
X154245000Y-78055000D02*
X154940000Y-78055000D01*
X154245000Y-78740000D02*
X154245000Y-78055000D01*
X155548276Y-79425000D02*
X155635000Y-79425000D01*
X154245000Y-79425000D02*
X154331724Y-79425000D01*
X155635000Y-79425000D02*
X155635000Y-80300000D01*
X154245000Y-79425000D02*
X154245000Y-80300000D01*
X155334493Y-80300000D02*
X155635000Y-80300000D01*
X154245000Y-80300000D02*
X154545507Y-80300000D01*
X111030000Y-91670000D02*
X111030000Y-91340000D01*
X111030000Y-91340000D02*
X117570000Y-91340000D01*
X117570000Y-91340000D02*
X117570000Y-91670000D01*
X111030000Y-93750000D02*
X111030000Y-94080000D01*
X111030000Y-94080000D02*
X117570000Y-94080000D01*
X117570000Y-94080000D02*
X117570000Y-93750000D01*
X143250000Y-72160001D02*
X123450000Y-72160000D01*
X123450000Y-72160000D02*
X123450000Y-85319999D01*
X123450000Y-85319999D02*
X143250000Y-85320000D01*
X143250000Y-85320000D02*
X143250000Y-80933333D01*
X143250000Y-80933333D02*
X142890000Y-80933333D01*
X142890000Y-80933333D02*
X142890000Y-76546667D01*
X142890000Y-76546667D02*
X143250000Y-76546667D01*
X143250000Y-76546667D02*
X143250000Y-72160001D01*
X165470000Y-76540000D02*
X167270000Y-76540000D01*
X167270000Y-73320000D02*
X164820000Y-73320000D01*
D10*
X139097142Y-91626666D02*
X139144761Y-91674285D01*
X139192380Y-91817142D01*
X139192380Y-91912380D01*
X139144761Y-92055238D01*
X139049523Y-92150476D01*
X138954285Y-92198095D01*
X138763809Y-92245714D01*
X138620952Y-92245714D01*
X138430476Y-92198095D01*
X138335238Y-92150476D01*
X138240000Y-92055238D01*
X138192380Y-91912380D01*
X138192380Y-91817142D01*
X138240000Y-91674285D01*
X138287619Y-91626666D01*
X139192380Y-90674285D02*
X139192380Y-91245714D01*
X139192380Y-90960000D02*
X138192380Y-90960000D01*
X138335238Y-91055238D01*
X138430476Y-91150476D01*
X138478095Y-91245714D01*
X164897142Y-80926666D02*
X164944761Y-80974285D01*
X164992380Y-81117142D01*
X164992380Y-81212380D01*
X164944761Y-81355238D01*
X164849523Y-81450476D01*
X164754285Y-81498095D01*
X164563809Y-81545714D01*
X164420952Y-81545714D01*
X164230476Y-81498095D01*
X164135238Y-81450476D01*
X164040000Y-81355238D01*
X163992380Y-81212380D01*
X163992380Y-81117142D01*
X164040000Y-80974285D01*
X164087619Y-80926666D01*
X164087619Y-80545714D02*
X164040000Y-80498095D01*
X163992380Y-80402857D01*
X163992380Y-80164761D01*
X164040000Y-80069523D01*
X164087619Y-80021904D01*
X164182857Y-79974285D01*
X164278095Y-79974285D01*
X164420952Y-80021904D01*
X164992380Y-80593333D01*
X164992380Y-79974285D01*
X128063333Y-103057142D02*
X128015714Y-103104761D01*
X127872857Y-103152380D01*
X127777619Y-103152380D01*
X127634761Y-103104761D01*
X127539523Y-103009523D01*
X127491904Y-102914285D01*
X127444285Y-102723809D01*
X127444285Y-102580952D01*
X127491904Y-102390476D01*
X127539523Y-102295238D01*
X127634761Y-102200000D01*
X127777619Y-102152380D01*
X127872857Y-102152380D01*
X128015714Y-102200000D01*
X128063333Y-102247619D01*
X128396666Y-102152380D02*
X129015714Y-102152380D01*
X128682380Y-102533333D01*
X128825238Y-102533333D01*
X128920476Y-102580952D01*
X128968095Y-102628571D01*
X129015714Y-102723809D01*
X129015714Y-102961904D01*
X128968095Y-103057142D01*
X128920476Y-103104761D01*
X128825238Y-103152380D01*
X128539523Y-103152380D01*
X128444285Y-103104761D01*
X128396666Y-103057142D01*
X123773333Y-96167142D02*
X123725714Y-96214761D01*
X123582857Y-96262380D01*
X123487619Y-96262380D01*
X123344761Y-96214761D01*
X123249523Y-96119523D01*
X123201904Y-96024285D01*
X123154285Y-95833809D01*
X123154285Y-95690952D01*
X123201904Y-95500476D01*
X123249523Y-95405238D01*
X123344761Y-95310000D01*
X123487619Y-95262380D01*
X123582857Y-95262380D01*
X123725714Y-95310000D01*
X123773333Y-95357619D01*
X124630476Y-95595714D02*
X124630476Y-96262380D01*
X124392380Y-95214761D02*
X124154285Y-95929047D01*
X124773333Y-95929047D01*
X117923333Y-102267142D02*
X117875714Y-102314761D01*
X117732857Y-102362380D01*
X117637619Y-102362380D01*
X117494761Y-102314761D01*
X117399523Y-102219523D01*
X117351904Y-102124285D01*
X117304285Y-101933809D01*
X117304285Y-101790952D01*
X117351904Y-101600476D01*
X117399523Y-101505238D01*
X117494761Y-101410000D01*
X117637619Y-101362380D01*
X117732857Y-101362380D01*
X117875714Y-101410000D01*
X117923333Y-101457619D01*
X118828095Y-101362380D02*
X118351904Y-101362380D01*
X118304285Y-101838571D01*
X118351904Y-101790952D01*
X118447142Y-101743333D01*
X118685238Y-101743333D01*
X118780476Y-101790952D01*
X118828095Y-101838571D01*
X118875714Y-101933809D01*
X118875714Y-102171904D01*
X118828095Y-102267142D01*
X118780476Y-102314761D01*
X118685238Y-102362380D01*
X118447142Y-102362380D01*
X118351904Y-102314761D01*
X118304285Y-102267142D01*
X164913333Y-57817142D02*
X164865714Y-57864761D01*
X164722857Y-57912380D01*
X164627619Y-57912380D01*
X164484761Y-57864761D01*
X164389523Y-57769523D01*
X164341904Y-57674285D01*
X164294285Y-57483809D01*
X164294285Y-57340952D01*
X164341904Y-57150476D01*
X164389523Y-57055238D01*
X164484761Y-56960000D01*
X164627619Y-56912380D01*
X164722857Y-56912380D01*
X164865714Y-56960000D01*
X164913333Y-57007619D01*
X165770476Y-56912380D02*
X165580000Y-56912380D01*
X165484761Y-56960000D01*
X165437142Y-57007619D01*
X165341904Y-57150476D01*
X165294285Y-57340952D01*
X165294285Y-57721904D01*
X165341904Y-57817142D01*
X165389523Y-57864761D01*
X165484761Y-57912380D01*
X165675238Y-57912380D01*
X165770476Y-57864761D01*
X165818095Y-57817142D01*
X165865714Y-57721904D01*
X165865714Y-57483809D01*
X165818095Y-57388571D01*
X165770476Y-57340952D01*
X165675238Y-57293333D01*
X165484761Y-57293333D01*
X165389523Y-57340952D01*
X165341904Y-57388571D01*
X165294285Y-57483809D01*
X157293333Y-67977142D02*
X157245714Y-68024761D01*
X157102857Y-68072380D01*
X157007619Y-68072380D01*
X156864761Y-68024761D01*
X156769523Y-67929523D01*
X156721904Y-67834285D01*
X156674285Y-67643809D01*
X156674285Y-67500952D01*
X156721904Y-67310476D01*
X156769523Y-67215238D01*
X156864761Y-67120000D01*
X157007619Y-67072380D01*
X157102857Y-67072380D01*
X157245714Y-67120000D01*
X157293333Y-67167619D01*
X157626666Y-67072380D02*
X158293333Y-67072380D01*
X157864761Y-68072380D01*
X111426666Y-65202380D02*
X111426666Y-65916666D01*
X111379047Y-66059523D01*
X111283809Y-66154761D01*
X111140952Y-66202380D01*
X111045714Y-66202380D01*
X111855238Y-65297619D02*
X111902857Y-65250000D01*
X111998095Y-65202380D01*
X112236190Y-65202380D01*
X112331428Y-65250000D01*
X112379047Y-65297619D01*
X112426666Y-65392857D01*
X112426666Y-65488095D01*
X112379047Y-65630952D01*
X111807619Y-66202380D01*
X112426666Y-66202380D01*
X119816666Y-65202380D02*
X119816666Y-65916666D01*
X119769047Y-66059523D01*
X119673809Y-66154761D01*
X119530952Y-66202380D01*
X119435714Y-66202380D01*
X120292857Y-66202380D02*
X120292857Y-65202380D01*
X120673809Y-65202380D01*
X120769047Y-65250000D01*
X120816666Y-65297619D01*
X120864285Y-65392857D01*
X120864285Y-65535714D01*
X120816666Y-65630952D01*
X120769047Y-65678571D01*
X120673809Y-65726190D01*
X120292857Y-65726190D01*
X121816666Y-66202380D02*
X121245238Y-66202380D01*
X121530952Y-66202380D02*
X121530952Y-65202380D01*
X121435714Y-65345238D01*
X121340476Y-65440476D01*
X121245238Y-65488095D01*
X154106666Y-76632380D02*
X154106666Y-77346666D01*
X154059047Y-77489523D01*
X153963809Y-77584761D01*
X153820952Y-77632380D01*
X153725714Y-77632380D01*
X154582857Y-77632380D02*
X154582857Y-76632380D01*
X154963809Y-76632380D01*
X155059047Y-76680000D01*
X155106666Y-76727619D01*
X155154285Y-76822857D01*
X155154285Y-76965714D01*
X155106666Y-77060952D01*
X155059047Y-77108571D01*
X154963809Y-77156190D01*
X154582857Y-77156190D01*
X156011428Y-76632380D02*
X155820952Y-76632380D01*
X155725714Y-76680000D01*
X155678095Y-76727619D01*
X155582857Y-76870476D01*
X155535238Y-77060952D01*
X155535238Y-77441904D01*
X155582857Y-77537142D01*
X155630476Y-77584761D01*
X155725714Y-77632380D01*
X155916190Y-77632380D01*
X156011428Y-77584761D01*
X156059047Y-77537142D01*
X156106666Y-77441904D01*
X156106666Y-77203809D01*
X156059047Y-77108571D01*
X156011428Y-77060952D01*
X155916190Y-77013333D01*
X155725714Y-77013333D01*
X155630476Y-77060952D01*
X155582857Y-77108571D01*
X155535238Y-77203809D01*
X114133333Y-90792380D02*
X113800000Y-90316190D01*
X113561904Y-90792380D02*
X113561904Y-89792380D01*
X113942857Y-89792380D01*
X114038095Y-89840000D01*
X114085714Y-89887619D01*
X114133333Y-89982857D01*
X114133333Y-90125714D01*
X114085714Y-90220952D01*
X114038095Y-90268571D01*
X113942857Y-90316190D01*
X113561904Y-90316190D01*
X115085714Y-90792380D02*
X114514285Y-90792380D01*
X114800000Y-90792380D02*
X114800000Y-89792380D01*
X114704761Y-89935238D01*
X114609523Y-90030476D01*
X114514285Y-90078095D01*
X143702380Y-79501904D02*
X144511904Y-79501904D01*
X144607142Y-79454285D01*
X144654761Y-79406666D01*
X144702380Y-79311428D01*
X144702380Y-79120952D01*
X144654761Y-79025714D01*
X144607142Y-78978095D01*
X144511904Y-78930476D01*
X143702380Y-78930476D01*
X144702380Y-77930476D02*
X144702380Y-78501904D01*
X144702380Y-78216190D02*
X143702380Y-78216190D01*
X143845238Y-78311428D01*
X143940476Y-78406666D01*
X143988095Y-78501904D01*
X165608095Y-71482380D02*
X165608095Y-72291904D01*
X165655714Y-72387142D01*
X165703333Y-72434761D01*
X165798571Y-72482380D01*
X165989047Y-72482380D01*
X166084285Y-72434761D01*
X166131904Y-72387142D01*
X166179523Y-72291904D01*
X166179523Y-71482380D01*
X166608095Y-71577619D02*
X166655714Y-71530000D01*
X166750952Y-71482380D01*
X166989047Y-71482380D01*
X167084285Y-71530000D01*
X167131904Y-71577619D01*
X167179523Y-71672857D01*
X167179523Y-71768095D01*
X167131904Y-71910952D01*
X166560476Y-72482380D01*
X167179523Y-72482380D01*
M02*
