M48
; DRILL file {KiCad (5.1.5)-3} date 2020-04-10 3:09:29 PM
; FORMAT={-:-/ absolute / inch / decimal}
; #@! TF.CreationDate,2020-04-10T15:09:29-04:00
; #@! TF.GenerationSoftware,Kicad,Pcbnew,(5.1.5)-3
; #@! TF.FileFunction,Plated,1,2,PTH
FMAT,2
INCH
T1C0.0197
T2C0.0236
T3C0.0315
T4C0.0354
T5C0.0591
%
G90
G05
T1
X4.9Y-2.6213
X4.9Y-2.6606
X4.9Y-2.7
X6.1Y-3.1
X6.1Y-3.1394
X4.6Y-2.6213
X4.6Y-2.6606
X4.6Y-2.7
X4.4Y-2.65
X4.4Y-2.6894
X4.4Y-2.7287
X4.4Y-2.7681
X4.4Y-2.8075
X4.4Y-2.8469
X4.4Y-2.8862
X4.4Y-2.9256
X5.8Y-2.5713
X5.8Y-2.6106
X5.8Y-2.65
X5.3Y-2.6213
X5.3Y-2.6606
X5.3Y-2.7
X4.75Y-2.65
X4.75Y-2.6894
X5.25Y-3.6
X5.2894Y-3.6
X5.3287Y-3.6
X5.3681Y-3.6
T2
X4.85Y-3.9
X4.9091Y-3.9
X6.35Y-3.15
X6.35Y-3.2091
T3
X6.45Y-2.4
X6.5484Y-2.4
X4.9Y-2.9
X4.9Y-3.3
X5.0Y-2.9
X5.0Y-3.3
X5.1Y-2.9
X5.1Y-3.3
X5.2Y-2.9
X5.2Y-3.3
X5.3Y-2.9
X5.3Y-3.3
X5.4Y-2.9
X5.4Y-3.3
X5.5Y-2.9
X5.5Y-3.3
X5.6Y-2.9
X5.6Y-3.3
X6.15Y-2.8
X6.2484Y-2.8
X4.6Y-4.15
X4.6984Y-4.15
X5.6Y-3.5516
X5.6Y-3.65
X4.95Y-4.25
X5.1469Y-4.25
X4.35Y-3.65
X4.65Y-3.65
T4
X4.95Y-2.45
X5.0287Y-2.45
X5.1075Y-2.45
X5.95Y-2.45
X6.0287Y-2.45
X6.1075Y-2.45
X4.7Y-3.15
X4.7Y-3.25
X5.45Y-2.45
X5.5287Y-2.45
X5.6075Y-2.45
X4.45Y-2.45
X4.5287Y-2.45
X4.6075Y-2.45
T5
X5.6902Y-2.45
X4.3673Y-2.45
X4.6902Y-2.45
X4.8673Y-2.45
X5.1902Y-2.45
X5.8673Y-2.45
X6.1902Y-2.45
X5.3673Y-2.45
T0
M30
